<?xml version="1.0" standalone="no"?>
<!DOCTYPE svg PUBLIC "-//W3C//DTD SVG 20010904//EN"
 "http://www.w3.org/TR/2001/REC-SVG-20010904/DTD/svg10.dtd">
<svg version="1.0" xmlns="http://www.w3.org/2000/svg"
 width="260.000000pt" height="260.000000pt" viewBox="0 0 260.000000 260.000000"
 preserveAspectRatio="xMidYMid meet">
<metadata>
Created by potrace 1.11, written by Peter Selinger 2001-2013
</metadata>
<g transform="translate(0.000000,260.000000) scale(0.100000,-0.100000)"
fill="#000000" stroke="none">
<path d="M340 2045 l0 -555 200 0 200 0 0 -170 0 -170 -200 0 -200 0 0 -575 0
-575 375 0 375 0 0 375 0 375 210 0 210 0 0 -375 0 -375 370 0 370 0 0 575 0
575 -190 0 -190 0 0 170 0 170 190 0 190 0 0 555 0 555 -370 0 -370 0 0 -355
0 -355 -205 0 -205 0 0 355 0 355 -380 0 -380 0 0 -555z"/>
</g>
</svg>
