<?xml version="1.0" encoding="UTF-8"?>
<svg width="1205px" height="304px" viewBox="0 0 1205 304" version="1.1" xmlns="http://www.w3.org/2000/svg" xmlns:xlink="http://www.w3.org/1999/xlink">
    <!-- Generator: Sketch 52.2 (67145) - http://www.bohemiancoding.com/sketch -->
    <title>accueil-entete-desktop</title>
    <desc>Created with Sketch.</desc>
    <defs>
        <polygon id="path-1" points="802.981 176.672 824.423 169.462 831.759 190.532 810.32 197.742"></polygon>
        <filter x="-24.3%" y="-17.7%" width="148.6%" height="149.5%" filterUnits="objectBoundingBox" id="filter-2">
            <feOffset dx="0" dy="2" in="SourceAlpha" result="shadowOffsetOuter1"></feOffset>
            <feGaussianBlur stdDeviation="2" in="shadowOffsetOuter1" result="shadowBlurOuter1"></feGaussianBlur>
            <feColorMatrix values="0 0 0 0 0   0 0 0 0 0   0 0 0 0 0  0 0 0 0.5 0" type="matrix" in="shadowBlurOuter1"></feColorMatrix>
        </filter>
        <polygon id="path-3" points="623.913 139.119 645.34 131.897 652.692 152.955 631.263 160.177"></polygon>
        <filter x="-24.3%" y="-17.7%" width="148.6%" height="149.5%" filterUnits="objectBoundingBox" id="filter-4">
            <feOffset dx="0" dy="2" in="SourceAlpha" result="shadowOffsetOuter1"></feOffset>
            <feGaussianBlur stdDeviation="2" in="shadowOffsetOuter1" result="shadowBlurOuter1"></feGaussianBlur>
            <feColorMatrix values="0 0 0 0 0   0 0 0 0 0   0 0 0 0 0  0 0 0 0.5 0" type="matrix" in="shadowBlurOuter1"></feColorMatrix>
        </filter>
        <polygon id="path-5" points="588.674 173.685 610.102 166.462 617.452 187.519 596.026 194.742"></polygon>
        <filter x="-24.3%" y="-17.7%" width="148.6%" height="149.5%" filterUnits="objectBoundingBox" id="filter-6">
            <feOffset dx="0" dy="2" in="SourceAlpha" result="shadowOffsetOuter1"></feOffset>
            <feGaussianBlur stdDeviation="2" in="shadowOffsetOuter1" result="shadowBlurOuter1"></feGaussianBlur>
            <feColorMatrix values="0 0 0 0 0   0 0 0 0 0   0 0 0 0 0  0 0 0 0.5 0" type="matrix" in="shadowBlurOuter1"></feColorMatrix>
        </filter>
        <polygon id="path-7" points="487.481 90.891 508.909 83.668 516.26 104.725 494.832 111.948"></polygon>
        <filter x="-24.3%" y="-17.7%" width="148.6%" height="149.5%" filterUnits="objectBoundingBox" id="filter-8">
            <feOffset dx="0" dy="2" in="SourceAlpha" result="shadowOffsetOuter1"></feOffset>
            <feGaussianBlur stdDeviation="2" in="shadowOffsetOuter1" result="shadowBlurOuter1"></feGaussianBlur>
            <feColorMatrix values="0 0 0 0 0   0 0 0 0 0   0 0 0 0 0  0 0 0 0.5 0" type="matrix" in="shadowBlurOuter1"></feColorMatrix>
        </filter>
        <polygon id="path-9" points="959.731 148.392 981.172 141.181 988.509 162.251 967.068 169.462"></polygon>
        <filter x="-24.3%" y="-17.7%" width="148.6%" height="149.5%" filterUnits="objectBoundingBox" id="filter-10">
            <feOffset dx="0" dy="2" in="SourceAlpha" result="shadowOffsetOuter1"></feOffset>
            <feGaussianBlur stdDeviation="2" in="shadowOffsetOuter1" result="shadowBlurOuter1"></feGaussianBlur>
            <feColorMatrix values="0 0 0 0 0   0 0 0 0 0   0 0 0 0 0  0 0 0 0.5 0" type="matrix" in="shadowBlurOuter1"></feColorMatrix>
        </filter>
        <polygon id="path-11" points="20.6785 143.065 42.1066 135.842 49.4572 156.899 28.0291 164.122"></polygon>
        <filter x="-24.3%" y="-17.7%" width="148.6%" height="149.5%" filterUnits="objectBoundingBox" id="filter-12">
            <feOffset dx="0" dy="2" in="SourceAlpha" result="shadowOffsetOuter1"></feOffset>
            <feGaussianBlur stdDeviation="2" in="shadowOffsetOuter1" result="shadowBlurOuter1"></feGaussianBlur>
            <feColorMatrix values="0 0 0 0 0   0 0 0 0 0   0 0 0 0 0  0 0 0 0.5 0" type="matrix" in="shadowBlurOuter1"></feColorMatrix>
        </filter>
        <polygon id="path-13" points="995.905 183.016 1017.33 175.794 1024.68 196.852 1003.26 204.074"></polygon>
        <filter x="-24.3%" y="-17.7%" width="148.7%" height="149.5%" filterUnits="objectBoundingBox" id="filter-14">
            <feOffset dx="0" dy="2" in="SourceAlpha" result="shadowOffsetOuter1"></feOffset>
            <feGaussianBlur stdDeviation="2" in="shadowOffsetOuter1" result="shadowBlurOuter1"></feGaussianBlur>
            <feColorMatrix values="0 0 0 0 0   0 0 0 0 0   0 0 0 0 0  0 0 0 0.5 0" type="matrix" in="shadowBlurOuter1"></feColorMatrix>
        </filter>
        <polygon id="path-15" points="889.317 148.391 910.758 141.181 918.095 162.252 896.654 169.462"></polygon>
        <filter x="-24.3%" y="-17.7%" width="148.6%" height="149.5%" filterUnits="objectBoundingBox" id="filter-16">
            <feOffset dx="0" dy="2" in="SourceAlpha" result="shadowOffsetOuter1"></feOffset>
            <feGaussianBlur stdDeviation="2" in="shadowOffsetOuter1" result="shadowBlurOuter1"></feGaussianBlur>
            <feColorMatrix values="0 0 0 0 0   0 0 0 0 0   0 0 0 0 0  0 0 0 0.5 0" type="matrix" in="shadowBlurOuter1"></feColorMatrix>
        </filter>
        <polygon id="path-17" points="795.52 225.916 816.948 218.691 824.298 239.749 802.869 246.971"></polygon>
        <filter x="-24.3%" y="-17.7%" width="148.6%" height="149.5%" filterUnits="objectBoundingBox" id="filter-18">
            <feOffset dx="0" dy="2" in="SourceAlpha" result="shadowOffsetOuter1"></feOffset>
            <feGaussianBlur stdDeviation="2" in="shadowOffsetOuter1" result="shadowBlurOuter1"></feGaussianBlur>
            <feColorMatrix values="0 0 0 0 0   0 0 0 0 0   0 0 0 0 0  0 0 0 0.837579257 0" type="matrix" in="shadowBlurOuter1"></feColorMatrix>
        </filter>
        <polygon id="path-19" points="730.567 106.495 752.008 99.284 759.346 120.354 737.904 127.565"></polygon>
        <filter x="-24.3%" y="-17.7%" width="148.6%" height="149.5%" filterUnits="objectBoundingBox" id="filter-20">
            <feOffset dx="0" dy="2" in="SourceAlpha" result="shadowOffsetOuter1"></feOffset>
            <feGaussianBlur stdDeviation="2" in="shadowOffsetOuter1" result="shadowBlurOuter1"></feGaussianBlur>
            <feColorMatrix values="0 0 0 0 0   0 0 0 0 0   0 0 0 0 0  0 0 0 0.5 0" type="matrix" in="shadowBlurOuter1"></feColorMatrix>
        </filter>
        <polygon id="path-21" points="674.01 146.394 695.451 139.181 702.788 160.252 681.347 167.462"></polygon>
        <filter x="-24.3%" y="-17.7%" width="148.6%" height="149.5%" filterUnits="objectBoundingBox" id="filter-22">
            <feOffset dx="0" dy="2" in="SourceAlpha" result="shadowOffsetOuter1"></feOffset>
            <feGaussianBlur stdDeviation="2" in="shadowOffsetOuter1" result="shadowBlurOuter1"></feGaussianBlur>
            <feColorMatrix values="0 0 0 0 0   0 0 0 0 0   0 0 0 0 0  0 0 0 0.5 0" type="matrix" in="shadowBlurOuter1"></feColorMatrix>
        </filter>
        <polygon id="path-23" points="622.913 68.882 644.355 61.672 651.692 82.742 630.251 89.952"></polygon>
        <filter x="-24.3%" y="-17.7%" width="148.6%" height="149.5%" filterUnits="objectBoundingBox" id="filter-24">
            <feOffset dx="0" dy="2" in="SourceAlpha" result="shadowOffsetOuter1"></feOffset>
            <feGaussianBlur stdDeviation="2" in="shadowOffsetOuter1" result="shadowBlurOuter1"></feGaussianBlur>
            <feColorMatrix values="0 0 0 0 0   0 0 0 0 0   0 0 0 0 0  0 0 0 0.5 0" type="matrix" in="shadowBlurOuter1"></feColorMatrix>
        </filter>
        <polygon id="path-25" points="493.942 41.6489 515.384 34.4386 522.721 55.5088 501.28 62.719"></polygon>
        <filter x="-24.3%" y="-17.7%" width="148.6%" height="149.5%" filterUnits="objectBoundingBox" id="filter-26">
            <feOffset dx="0" dy="2" in="SourceAlpha" result="shadowOffsetOuter1"></feOffset>
            <feGaussianBlur stdDeviation="2" in="shadowOffsetOuter1" result="shadowBlurOuter1"></feGaussianBlur>
            <feColorMatrix values="0 0 0 0 0   0 0 0 0 0   0 0 0 0 0  0 0 0 0.5 0" type="matrix" in="shadowBlurOuter1"></feColorMatrix>
        </filter>
        <polygon id="path-27" points="595.135 125.443 616.576 118.233 623.913 139.303 602.472 146.513"></polygon>
        <filter x="-24.3%" y="-17.7%" width="148.6%" height="149.5%" filterUnits="objectBoundingBox" id="filter-28">
            <feOffset dx="0" dy="2" in="SourceAlpha" result="shadowOffsetOuter1"></feOffset>
            <feGaussianBlur stdDeviation="2" in="shadowOffsetOuter1" result="shadowBlurOuter1"></feGaussianBlur>
            <feColorMatrix values="0 0 0 0 0   0 0 0 0 0   0 0 0 0 0  0 0 0 0.5 0" type="matrix" in="shadowBlurOuter1"></feColorMatrix>
        </filter>
        <polygon id="path-29" points="725.106 154.724 746.547 147.513 753.885 168.583 732.443 175.794"></polygon>
        <filter x="-24.3%" y="-17.7%" width="148.6%" height="149.5%" filterUnits="objectBoundingBox" id="filter-30">
            <feOffset dx="0" dy="2" in="SourceAlpha" result="shadowOffsetOuter1"></feOffset>
            <feGaussianBlur stdDeviation="2" in="shadowOffsetOuter1" result="shadowBlurOuter1"></feGaussianBlur>
            <feColorMatrix values="0 0 0 0 0   0 0 0 0 0   0 0 0 0 0  0 0 0 0.5 0" type="matrix" in="shadowBlurOuter1"></feColorMatrix>
        </filter>
        <polygon id="path-31" points="208 162.719 229.428 155.495 236.779 176.553 215.351 183.776"></polygon>
        <filter x="-24.3%" y="-17.7%" width="148.6%" height="149.5%" filterUnits="objectBoundingBox" id="filter-32">
            <feOffset dx="0" dy="2" in="SourceAlpha" result="shadowOffsetOuter1"></feOffset>
            <feGaussianBlur stdDeviation="2" in="shadowOffsetOuter1" result="shadowBlurOuter1"></feGaussianBlur>
            <feColorMatrix values="0 0 0 0 0   0 0 0 0 0   0 0 0 0 0  0 0 0 0.5 0" type="matrix" in="shadowBlurOuter1"></feColorMatrix>
        </filter>
        <polygon id="path-33" points="394.75 99.163 416.191 91.952 423.528 113.022 402.087 120.233"></polygon>
        <filter x="-29.5%" y="-23.0%" width="159.1%" height="160.1%" filterUnits="objectBoundingBox" id="filter-34">
            <feOffset dx="0" dy="2" in="SourceAlpha" result="shadowOffsetOuter1"></feOffset>
            <feGaussianBlur stdDeviation="2.5" in="shadowOffsetOuter1" result="shadowBlurOuter1"></feGaussianBlur>
            <feColorMatrix values="0 0 0 0 0   0 0 0 0 0   0 0 0 0 0  0 0 0 0.65 0" type="matrix" in="shadowBlurOuter1"></feColorMatrix>
        </filter>
        <polygon id="path-35" points="673.01 76.214 694.451 69.004 701.788 90.074 680.347 97.284"></polygon>
        <filter x="-24.3%" y="-17.7%" width="148.6%" height="149.5%" filterUnits="objectBoundingBox" id="filter-36">
            <feOffset dx="0" dy="2" in="SourceAlpha" result="shadowOffsetOuter1"></feOffset>
            <feGaussianBlur stdDeviation="2" in="shadowOffsetOuter1" result="shadowBlurOuter1"></feGaussianBlur>
            <feColorMatrix values="0 0 0 0 0   0 0 0 0 0   0 0 0 0 0  0 0 0 0.5 0" type="matrix" in="shadowBlurOuter1"></feColorMatrix>
        </filter>
        <polygon id="path-37" points="874.395 176.672 895.836 169.462 903.173 190.532 881.732 197.742"></polygon>
        <filter x="-24.3%" y="-17.7%" width="148.6%" height="149.5%" filterUnits="objectBoundingBox" id="filter-38">
            <feOffset dx="0" dy="2" in="SourceAlpha" result="shadowOffsetOuter1"></feOffset>
            <feGaussianBlur stdDeviation="2" in="shadowOffsetOuter1" result="shadowBlurOuter1"></feGaussianBlur>
            <feColorMatrix values="0 0 0 0 0   0 0 0 0 0   0 0 0 0 0  0 0 0 0.5 0" type="matrix" in="shadowBlurOuter1"></feColorMatrix>
        </filter>
        <polygon id="path-39" points="960.731 78.214 982.172 71.004 989.509 92.074 968.068 99.284"></polygon>
        <filter x="-24.3%" y="-17.7%" width="148.6%" height="149.5%" filterUnits="objectBoundingBox" id="filter-40">
            <feOffset dx="0" dy="2" in="SourceAlpha" result="shadowOffsetOuter1"></feOffset>
            <feGaussianBlur stdDeviation="2" in="shadowOffsetOuter1" result="shadowBlurOuter1"></feGaussianBlur>
            <feColorMatrix values="0 0 0 0 0   0 0 0 0 0   0 0 0 0 0  0 0 0 0.5 0" type="matrix" in="shadowBlurOuter1"></feColorMatrix>
        </filter>
        <polygon id="path-41" points="429.924 63.597 451.365 56.3871 458.702 77.457 437.261 84.668"></polygon>
        <filter x="-24.3%" y="-17.7%" width="148.6%" height="149.5%" filterUnits="objectBoundingBox" id="filter-42">
            <feOffset dx="0" dy="2" in="SourceAlpha" result="shadowOffsetOuter1"></feOffset>
            <feGaussianBlur stdDeviation="2" in="shadowOffsetOuter1" result="shadowBlurOuter1"></feGaussianBlur>
            <feColorMatrix values="0 0 0 0 0   0 0 0 0 0   0 0 0 0 0  0 0 0 0.5 0" type="matrix" in="shadowBlurOuter1"></feColorMatrix>
        </filter>
    </defs>
    <g id="Page-1" stroke="none" stroke-width="1" fill="none" fill-rule="evenodd">
        <g id="accueil-entete-desktop">
            <polygon id="Path" fill="#FDBC6E" points="1203.75 21.7877 1182.42 29.1066 1174.97 8.145 1196.3 0.8261"></polygon>
            <polygon id="Path" fill="#FDBC6E" points="1153.78 85.626 1131.88 92.386 1125 70.865 1146.9 64.105"></polygon>
            <polygon id="Path" fill="#E03854" points="1168.78 57.9595 1146.88 64.719 1140 43.1982 1161.9 36.4386"></polygon>
            <polygon id="Path" fill="#FDBC6E" points="1174.97 78.213 1196.41 71.004 1203.75 92.075 1182.31 99.284"></polygon>
            <polygon id="Path" fill="#5859C3" points="1168.58 57.2654 1190.02 50.0551 1197.36 71.125 1175.91 78.336"></polygon>
            <polygon id="Path" fill="#E03854" points="1166.58 127.456 1188 120.233 1195.36 141.29 1173.93 148.513"></polygon>
            <polygon id="Path" fill="#5C4882" points="1160.12 106.495 1181.56 99.284 1188.89 120.354 1167.45 127.565"></polygon>
            <polygon id="Path" fill="#FDBC6E" points="1153.65 85.546 1175.09 78.336 1182.43 99.406 1160.99 106.616"></polygon>
            <polygon id="Path" fill="#5C4882" points="1174.97 148.392 1196.41 141.181 1203.75 162.251 1182.31 169.462"></polygon>
            <polygon id="Path" fill="#FDBC6E" points="1145.26 134.787 1166.69 127.565 1174.04 148.62 1152.61 155.845"></polygon>
            <polygon id="Path" fill="#5C4882" points="1138.8 113.826 1160.24 106.616 1167.58 127.686 1146.13 134.897"></polygon>
            <polygon id="Path" fill="#5859C3" points="1132.34 92.88 1153.78 85.668 1161.12 106.739 1139.67 113.948"></polygon>
            <polygon id="Path" fill="#E03854" points="1161.12 176.685 1182.54 169.462 1189.89 190.519 1168.47 197.742"></polygon>
            <polygon id="Path" fill="#5859C3" points="1153.65 155.724 1175.1 148.513 1182.43 169.583 1160.99 176.794"></polygon>
            <polygon id="Path" fill="#5C4882" points="1111.02 99.162 1132.46 91.952 1139.8 113.02 1118.36 120.233"></polygon>
            <polygon id="Path" fill="#E03854" points="1103.56 78.214 1125 71.004 1132.34 92.074 1110.9 99.284"></polygon>
            <polygon id="Path" fill="#E03854" points="1132.34 163.068 1153.76 155.845 1161.12 176.903 1139.69 184.126"></polygon>
            <polygon id="Path" fill="#5859C3" points="1123.88 142.107 1145.31 134.897 1152.65 155.967 1131.21 163.177"></polygon>
            <polygon id="Path" fill="#E03854" points="1102.56 149.405 1123.99 142.181 1131.34 163.238 1109.91 170.462"></polygon>
            <polygon id="Path" fill="#5C4882" points="1096.16 128.443 1117.6 121.233 1124.94 142.303 1103.5 149.513"></polygon>
            <polygon id="Path" fill="#E03854" points="1118.48 191.349 1139.91 184.126 1147.26 205.183 1125.83 212.406"></polygon>
            <polygon id="Path" fill="#FDBC6E" points="1111.02 170.387 1132.46 163.177 1139.8 184.246 1118.36 191.458"></polygon>
            <polygon id="Path" fill="#5859C3" points="1089.7 176.685 1111.13 169.462 1118.48 190.519 1097.05 197.742"></polygon>
            <polygon id="Path" fill="#5C4882" points="1081.24 155.724 1102.68 148.513 1110.02 169.583 1088.58 176.794"></polygon>
            <polygon id="Path" fill="#FDBC6E" points="1074.78 134.774 1096.22 127.565 1103.56 148.636 1082.12 155.845"></polygon>
            <polygon id="Path" fill="#5859C3" points="1103.56 219.63 1124.99 212.406 1132.34 233.463 1110.91 240.687"></polygon>
            <polygon id="Path" fill="#FDBC6E" points="1132.34 233.246 1153.76 226.023 1161.12 247.08 1139.69 254.303"></polygon>
            <polygon id="Path" fill="#FDBC6E" points="1059.92 163.069 1081.35 155.845 1088.7 176.902 1067.27 184.126"></polygon>
            <polygon id="Path" fill="#5C4882" points="1053.46 142.107 1074.9 134.897 1082.24 155.967 1060.8 163.177"></polygon>
            <polygon id="Path" fill="#FDBC6E" points="1046 121.158 1067.44 113.948 1074.78 135.018 1053.34 142.229"></polygon>
            <polygon id="Path" fill="#E03854" points="1074.78 204.966 1096.21 197.742 1103.56 218.799 1082.13 226.023"></polygon>
            <polygon id="Path" fill="#5C4882" points="1068.38 184.006 1089.83 176.794 1097.16 197.865 1075.72 205.074"></polygon>
            <polygon id="Path" fill="#E03854" points="1039.61 100.176 1061.03 92.952 1068.38 114.009 1046.96 121.233"></polygon>
            <polygon id="Path" fill="#5C4882" points="1024.68 127.456 1046.11 120.233 1053.46 141.29 1032.03 148.513"></polygon>
            <polygon id="Path" fill="#FDBC6E" points="1046 190.349 1067.43 183.126 1074.78 204.183 1053.35 211.406"></polygon>
            <polygon id="Path" fill="#5C4882" points="1038.61 169.388 1060.05 162.177 1067.38 183.247 1045.94 190.458"></polygon>
            <polygon id="Path" fill="#5859C3" points="1032.14 148.392 1053.59 141.181 1060.92 162.251 1039.48 169.462"></polygon>
            <polygon id="Path" fill="#E03854" points="1060.92 232.246 1082.35 225.023 1089.7 246.08 1068.27 253.303"></polygon>
            <polygon id="Path" fill="#5859C3" points="1053.46 211.287 1074.9 204.074 1082.24 225.145 1060.8 232.355"></polygon>
            <polygon id="Path" fill="#FDBC6E" points="1010.83 155.736 1032.25 148.513 1039.61 169.571 1018.18 176.794"></polygon>
            <polygon id="Path" fill="#E03854" points="1024.68 197.634 1046.11 190.41 1053.46 211.467 1032.03 218.691"></polygon>
            <polygon id="Path" fill="#5C4882" points="1017.29 176.672 1038.73 169.462 1046.07 190.532 1024.63 197.742"></polygon>
            <polygon id="Path" fill="#5C4882" points="988.509 162.056 1009.95 154.845 1017.29 175.915 995.847 183.126"></polygon>
            <polygon id="Path" fill="#5859C3" points="1003.37 203.953 1024.81 196.742 1032.14 217.813 1010.7 225.023"></polygon>
            <polygon id="Path" fill="#E03854" points="974.587 190.349 996.015 183.126 1003.37 204.183 981.937 211.406"></polygon>
            <polygon id="Path" fill="#FDBC6E" points="967.192 169.388 988.633 162.177 995.97 183.247 974.529 190.458"></polygon>
            <polygon id="Path" fill="#5859C3" points="960.731 148.392 982.172 141.181 989.509 162.251 968.068 169.462"></polygon>
            <polygon id="Path" fill="#E03854" points="989.509 233.246 1010.94 226.023 1018.29 247.08 996.86 254.303"></polygon>
            <polygon id="Path" fill="#FDBC6E" points="982.048 212.284 1003.49 205.074 1010.83 226.143 989.385 233.355"></polygon>
            <polygon id="Path" fill="#E03854" points="945.808 176.685 967.236 169.462 974.587 190.519 953.159 197.742"></polygon>
            <polygon id="Path" fill="#5C4882" points="938.413 155.724 959.854 148.513 967.192 169.583 945.75 176.794"></polygon>
            <polygon id="Path" fill="#E03854" points="931.952 134.775 953.393 127.565 960.731 148.635 939.289 155.845"></polygon>
            <polygon id="Path" fill="#E03854" points="960.731 218.63 982.159 211.406 989.509 232.463 968.081 239.687"></polygon>
            <polygon id="Path" fill="#5C4882" points="953.269 197.621 974.711 190.41 982.048 211.481 960.607 218.691"></polygon>
            <polygon id="Path" fill="#5859C3" points="924.491 184.017 945.919 176.794 953.269 197.851 931.841 205.074"></polygon>
            <polygon id="Path" fill="#FDBC6E" points="917.03 163.056 938.471 155.845 945.808 176.915 924.367 184.126"></polygon>
            <polygon id="Path" fill="#5859C3" points="910.634 142.106 932.076 134.897 939.413 155.968 917.972 163.177"></polygon>
            <polygon id="Path" fill="#FDBC6E" points="939.413 225.914 960.841 218.691 968.192 239.748 946.764 246.971"></polygon>
            <polygon id="Path" fill="#5C4882" points="931.952 204.953 953.393 197.742 960.731 218.813 939.289 226.023"></polygon>
            <polygon id="Path" fill="#E03854" points="895.712 170.401 917.14 163.177 924.491 184.234 903.063 191.458"></polygon>
            <polygon id="Path" fill="#5859C3" points="881.856 127.443 903.297 120.233 910.634 141.303 889.193 148.513"></polygon>
            <polygon id="Path" fill="#E03854" points="910.634 212.3 932.06 205.074 939.413 226.132 917.984 233.355"></polygon>
            <polygon id="Path" fill="#5C4882" points="903.173 191.336 924.613 184.126 931.952 205.196 910.51 212.406"></polygon>
            <polygon id="Path" fill="#E03854" points="874.395 176.685 895.823 169.462 903.173 190.519 881.745 197.742"></polygon>
            <polygon id="Path" fill="#5C4882" points="866.933 155.724 888.375 148.513 895.712 169.583 874.271 176.794"></polygon>
            <polygon id="Path" fill="#5859C3" points="860.538 134.775 881.979 127.565 889.317 148.635 867.875 155.845"></polygon>
            <polygon id="Path" fill="#FDBC6E" points="881.856 197.621 903.295 190.41 910.634 211.481 889.192 218.691"></polygon>
            <polygon id="Path" fill="#E03854" points="860.538 204.966 881.966 197.742 889.317 218.799 867.889 226.023"></polygon>
            <polygon id="Path" fill="#5C4882" points="853.077 184.004 874.518 176.794 881.856 197.864 860.414 205.074"></polygon>
            <polygon id="Path" fill="#E03854" points="845.616 163.055 867.057 155.845 874.395 176.916 852.953 184.126"></polygon>
            <polygon id="Path" fill="#5C4882" points="867.933 224.901 889.375 217.691 896.712 238.761 875.271 245.971"></polygon>
            <polygon id="Path" fill="#FDBC6E" points="1018.29 107.189 996.388 113.948 989.509 92.427 1011.41 85.668"></polygon>
            <polygon id="Path" fill="#FDBC6E" points="953.269 128.137 931.369 134.897 924.491 113.376 946.391 106.616"></polygon>
            <polygon id="Path" fill="#5C4882" points="953.269 268.492 931.369 275.252 924.491 253.731 946.391 246.971"></polygon>
            <polygon id="Path" fill="#5859C3" points="839.221 211.298 860.649 204.074 867.999 225.131 846.57 232.355"></polygon>
            <polygon id="Path" fill="#FDBC6E" points="831.76 190.336 853.201 183.126 860.538 204.196 839.096 211.406"></polygon>
            <polygon id="Path" fill="#5859C3" points="824.298 169.388 845.74 162.177 853.077 183.247 831.638 190.458"></polygon>
            <polygon id="Path" fill="#FDBC6E" points="816.837 148.392 838.279 141.181 845.616 162.251 824.174 169.462"></polygon>
            <polygon id="Path" fill="#5859C3" points="809.442 127.445 830.883 120.233 838.221 141.304 816.779 148.513"></polygon>
            <polygon id="Path" fill="#5859C3" points="846.616 232.233 868.057 225.023 875.395 246.093 853.953 253.303"></polygon>
            <g id="Path">
                <use fill="black" fill-opacity="1" filter="url(#filter-2)" xlink:href="#path-1"></use>
                <use fill="#745CA1" fill-rule="evenodd" xlink:href="#path-1"></use>
            </g>
            <polygon id="Path" fill="#5859C3" points="795.52 155.724 816.962 148.513 824.298 169.583 802.859 176.794"></polygon>
            <polygon id="Path" fill="#FDBC6E" points="788.058 134.775 809.5 127.565 816.837 148.635 795.396 155.845"></polygon>
            <polygon id="Path" fill="#E03854" points="781.663 113.826 803.105 106.616 810.442 127.686 789.001 134.897"></polygon>
            <polygon id="Path" fill="#FDBC6E" points="817.837 219.617 839.279 212.406 846.616 233.476 825.174 240.687"></polygon>
            <polygon id="Path" fill="#5C4882" points="788.058 204.953 809.498 197.742 816.837 218.813 795.395 226.023"></polygon>
            <polygon id="Path" fill="#5859C3" points="781.663 184.004 803.105 176.794 810.442 197.864 789 205.074"></polygon>
            <polygon id="Path" fill="#FDBC6E" points="774.202 163.056 795.643 155.845 802.981 176.915 781.539 184.126"></polygon>
            <polygon id="Path" fill="#E03854" points="766.741 142.107 788.182 134.897 795.52 155.967 774.078 163.177"></polygon>
            <polygon id="Path" fill="#5C4882" points="802.981 246.85 824.422 239.639 831.759 260.71 810.318 267.92"></polygon>
            <polygon id="Path" fill="#E03854" points="760.346 190.349 781.774 183.126 789.124 204.183 767.696 211.406"></polygon>
            <polygon id="Path" fill="#5C4882" points="752.885 169.389 774.326 162.177 781.663 183.248 760.222 190.458"></polygon>
            <polygon id="Path" fill="#5859C3" points="746 148.21 767.441 141 774.779 162.068 753.337 169.28"></polygon>
            <polygon id="Path" fill="#FDBC6E" points="737.962 127.445 759.404 120.233 766.741 141.304 745.3 148.513"></polygon>
            <polygon id="Path" fill="#5C4882" points="695.327 140.107 716.769 132.897 724.106 153.967 702.664 161.177"></polygon>
            <polygon id="Path" fill="#5C4882" points="766.741 211.285 788.182 204.074 795.52 225.145 774.078 232.355"></polygon>
            <polygon id="Path" fill="#E03854" points="738.962 197.633 760.391 190.41 767.741 211.468 746.312 218.691"></polygon>
            <polygon id="Path" fill="#FDBC6E" points="731.567 176.672 753.009 169.462 760.346 190.532 738.906 197.742"></polygon>
            <polygon id="Path" fill="#5859C3" points="724.106 155.726 745.548 148.513 752.885 169.584 731.445 176.794"></polygon>
            <polygon id="Path" fill="#E03854" points="717 134.21 738.441 127 745.779 148.07 724.337 155.281"></polygon>
            <polygon id="Path" fill="#FDBC6E" points="709.249 113.826 730.691 106.616 738.028 127.686 716.587 134.897"></polygon>
            <polygon id="Path" fill="#5859C3" points="745.423 218.617 766.865 211.406 774.202 232.476 752.761 239.687"></polygon>
            <polygon id="Path" fill="#E03854" points="702.788 161.069 724.216 153.845 731.567 174.902 710.139 182.126"></polygon>
            <polygon id="Path" fill="#FDBC6E" points="680.471 97.163 701.912 89.952 709.249 111.022 687.808 118.233"></polygon>
            <polygon id="Path" fill="#FDBC6E" points="717.645 204.966 739.073 197.742 746.423 218.799 724.995 226.023"></polygon>
            <polygon id="Path" fill="#5859C3" points="688.866 188.348 710.294 181.126 717.645 202.184 696.217 209.406"></polygon>
            <polygon id="Path" fill="#5C4882" points="681.471 167.388 702.912 160.177 710.249 181.247 688.808 188.458"></polygon>
            <polygon id="Path" fill="#5859C3" points="659.153 104.495 680.595 97.284 687.932 118.354 666.491 125.565"></polygon>
            <polygon id="Path" fill="#E03854" points="645.231 131.79 666.66 124.565 674.01 145.623 652.581 152.845"></polygon>
            <polygon id="Path" fill="#5C4882" points="637.77 110.826 659.212 103.616 666.548 124.686 645.106 131.897"></polygon>
            <polygon id="Path" fill="#5859C3" points="630.375 89.878 651.817 82.668 659.153 103.738 637.711 110.948"></polygon>
            <polygon id="Path" fill="#5859C3" points="615.452 47.9334 636.894 40.7231 644.231 61.793 622.79 69.004"></polygon>
            <polygon id="Path" fill="#FDBC6E" points="660.153 174.685 681.581 167.462 688.932 188.519 667.504 195.742"></polygon>
            <g id="Path">
                <use fill="black" fill-opacity="1" filter="url(#filter-4)" xlink:href="#path-3"></use>
                <use fill="#FDBC6E" fill-rule="evenodd" xlink:href="#path-3"></use>
            </g>
            <polygon id="Path" fill="#5C4882" points="616.452 118.158 637.892 110.948 645.231 132.018 623.789 139.229"></polygon>
            <polygon id="Path" fill="#E03854" points="608.991 97.164 630.433 89.952 637.77 111.023 616.328 118.233"></polygon>
            <polygon id="Path" fill="#FDBC6E" points="601.596 76.214 623.037 69.004 630.375 90.074 608.933 97.284"></polygon>
            <polygon id="Path" fill="#E03854" points="594.135 55.2654 615.576 48.0551 622.913 69.125 601.472 76.336"></polygon>
            <polygon id="Path" fill="#E03854" points="638.77 181.017 660.198 173.794 667.548 194.851 646.12 202.074"></polygon>
            <polygon id="Path" fill="#5C4882" points="631.375 160.056 652.816 152.845 660.153 173.915 638.712 181.126"></polygon>
            <polygon id="Path" fill="#5C4882" points="602.596 146.392 624.038 139.181 631.375 160.251 609.935 167.462"></polygon>
            <polygon id="Path" fill="#FDBC6E" points="587.674 104.495 609.115 97.284 616.452 118.354 595.011 125.565"></polygon>
            <polygon id="Path" fill="#5859C3" points="580.278 83.548 601.72 76.336 609.057 97.407 587.616 104.616"></polygon>
            <polygon id="Path" fill="#E03854" points="573.817 131.788 595.245 124.565 602.596 145.622 581.168 152.845"></polygon>
            <polygon id="Path" fill="#5C4882" points="566.356 110.826 587.797 103.616 595.135 124.686 573.693 131.897"></polygon>
            <polygon id="Path" fill="#5859C3" points="558.895 89.878 580.336 82.668 587.674 103.738 566.232 110.948"></polygon>
            <polygon id="Path" fill="#FDBC6E" points="551.5 68.882 572.941 61.672 580.278 82.742 558.837 89.952"></polygon>
            <polygon id="Path" fill="#5859C3" points="544.039 47.9334 565.48 40.7231 572.817 61.793 551.376 69.004"></polygon>
            <g id="Path">
                <use fill="black" fill-opacity="1" filter="url(#filter-6)" xlink:href="#path-5"></use>
                <use fill="#FDBC6E" fill-rule="evenodd" xlink:href="#path-5"></use>
            </g>
            <polygon id="Path" fill="#5C4882" points="581.278 152.724 602.72 145.513 610.057 166.583 588.618 173.794"></polygon>
            <polygon id="Path" fill="#FDBC6E" points="552.5 139.107 573.941 131.897 581.278 152.967 559.837 160.177"></polygon>
            <polygon id="Path" fill="#5859C3" points="545.039 118.158 566.48 110.948 573.817 132.018 552.376 139.229"></polygon>
            <polygon id="Path" fill="#FDBC6E" points="537.577 97.163 559.019 89.952 566.356 111.022 544.915 118.233"></polygon>
            <polygon id="Path" fill="#E03854" points="530.182 76.214 551.623 69.004 558.961 90.074 537.519 97.284"></polygon>
            <polygon id="Path" fill="#FDBC6E" points="523.721 125.456 545.149 118.233 552.5 139.29 531.072 146.513"></polygon>
            <polygon id="Path" fill="#5859C3" points="508.799 83.546 530.24 76.336 537.577 97.406 516.136 104.616"></polygon>
            <polygon id="Path" fill="#FDBC6E" points="501.403 62.597 522.845 55.3871 530.182 76.457 508.741 83.668"></polygon>
            <polygon id="Path" fill="#6B6CDA" points="273.24 92.878 294.681 85.668 302.018 106.738 280.577 113.948"></polygon>
            <polygon id="Path" fill="#5C4882" points="531.182 146.394 552.623 139.181 559.961 160.252 538.519 167.462"></polygon>
            <polygon id="Path" fill="#FDBC6E" points="774.202 89.525 752.302 96.284 745.423 74.763 767.323 68.004"></polygon>
            <polygon id="Path" fill="#FDBC6E" points="601.596 76.908 579.696 83.668 572.817 62.144 594.717 55.3871"></polygon>
            <polygon id="Path" fill="#FDBC6E" points="696.327 209.931 674.427 216.691 667.548 195.17 689.448 188.41"></polygon>
            <polygon id="Path" fill="#FDBC6E" points="673.01 76.908 651.11 83.668 644.231 62.144 666.131 55.3871"></polygon>
            <g id="Path">
                <use fill="black" fill-opacity="1" filter="url(#filter-8)" xlink:href="#path-7"></use>
                <use fill="#E03854" fill-rule="evenodd" xlink:href="#path-7"></use>
            </g>
            <polygon id="Path" fill="#5C4882" points="480.02 69.882 501.461 62.672 508.799 83.742 487.357 90.952"></polygon>
            <polygon id="Path" fill="#FDBC6E" points="472.625 48.9334 494.066 41.7231 501.403 62.793 479.962 70.004"></polygon>
            <polygon id="Path" fill="#5C4882" points="494.942 111.828 516.384 104.616 523.721 125.687 502.282 132.897"></polygon>
            <polygon id="Path" fill="#E03854" points="458.702 77.227 480.13 70.004 487.481 91.061 466.053 98.284"></polygon>
            <polygon id="Path" fill="#FDBC6E" points="451.307 56.2654 472.749 49.0551 480.086 70.125 458.644 77.336"></polygon>
            <polygon id="Path" fill="#E03854" points="443.846 35.3169 465.287 28.1066 472.625 49.1768 451.183 56.3871"></polygon>
            <polygon id="Path" fill="#FDBC6E" points="473.625 119.172 495.053 111.948 502.403 133.005 480.975 140.229"></polygon>
            <polygon id="Path" fill="#FDBC6E" points="466.164 98.163 487.605 90.952 494.942 112.022 473.501 119.233"></polygon>
            <polygon id="Path" fill="#5859C3" points="437.385 85.558 458.813 78.336 466.164 99.393 444.735 106.616"></polygon>
            <polygon id="Path" fill="#5C4882" points="429.924 64.597 451.365 57.3871 458.702 78.457 437.261 85.668"></polygon>
            <polygon id="Path" fill="#5859C3" points="422.528 42.6509 443.97 35.4386 451.307 56.5095 429.866 63.719"></polygon>
            <polygon id="Path" fill="#5C4882" points="444.846 106.495 466.287 99.284 473.625 120.354 452.183 127.565"></polygon>
            <polygon id="Path" fill="#FDBC6E" points="416.067 91.891 437.495 84.668 444.846 105.725 423.418 112.948"></polygon>
            <polygon id="Path" fill="#E03854" points="408.606 70.882 430.048 63.672 437.385 84.742 415.944 91.952"></polygon>
            <polygon id="Path" fill="#FDBC6E" points="401.211 49.9334 422.652 42.7231 429.99 63.793 408.548 71.004"></polygon>
            <polygon id="Path" fill="#5859C3" points="429.924 134.788 451.352 127.565 458.702 148.622 437.274 155.845"></polygon>
            <polygon id="Path" fill="#E03854" points="379.828 57.2785 401.254 50.0551 408.606 71.112 387.177 78.336"></polygon>
            <polygon id="Path" fill="#E03854" points="394.75 99.176 416.178 91.952 423.528 113.009 402.1 120.233"></polygon>
            <polygon id="Path" fill="#5859C3" points="387.289 78.214 408.73 71.004 416.067 92.074 394.626 99.284"></polygon>
            <polygon id="Path" fill="#E03854" points="365.971 85.559 387.4 78.336 394.75 99.393 373.321 106.616"></polygon>
            <polygon id="Path" fill="#FDBC6E" points="358.51 64.597 379.952 57.3871 387.289 78.458 365.849 85.668"></polygon>
            <polygon id="Path" fill="#5859C3" points="351.049 43.6489 372.491 36.4386 379.828 57.5088 358.388 64.719"></polygon>
            <polygon id="Path" fill="#FDBC6E" points="373.432 106.495 394.874 99.284 402.211 120.354 380.77 127.565"></polygon>
            <polygon id="Path" fill="#5C4882" points="344.654 92.877 366.095 85.668 373.432 106.736 351.991 113.948"></polygon>
            <polygon id="Path" fill="#5859C3" points="337.192 71.882 358.634 64.672 365.971 85.742 344.53 92.952"></polygon>
            <polygon id="Path" fill="#5C4882" points="315.875 78.214 337.316 71.004 344.654 92.074 323.212 99.284"></polygon>
            <polygon id="Path" fill="#5859C3" points="308.414 57.2648 329.855 50.0551 337.192 71.126 315.751 78.336"></polygon>
            <polygon id="Path" fill="#E03854" points="294.557 85.559 315.985 78.336 323.336 99.393 301.908 106.616"></polygon>
            <polygon id="Path" fill="#FDBC6E" points="287.096 64.599 308.538 57.3871 315.875 78.458 294.434 85.668"></polygon>
            <polygon id="Path" fill="#5C4882" points="301.953 106.495 323.394 99.284 330.731 120.354 309.29 127.565"></polygon>
            <g id="Path">
                <use fill="black" fill-opacity="1" filter="url(#filter-10)" xlink:href="#path-9"></use>
                <use fill="#6B6CDA" fill-rule="evenodd" xlink:href="#path-9"></use>
            </g>
            <polygon id="Path" fill="#FFC681" points="1176.04 78.214 1197.48 71.004 1204.82 92.074 1183.38 99.284"></polygon>
            <polygon id="Path" fill="#FFC681" points="982.048 211.285 1003.49 204.074 1010.83 225.145 989.385 232.355"></polygon>
            <polygon id="Path" fill="#FFC681" points="666.548 125.443 687.99 118.233 695.327 139.303 673.886 146.513"></polygon>
            <polygon id="Path" fill="#6B6CDA" points="1153.65 155.724 1175.1 148.513 1182.43 169.583 1160.99 176.794"></polygon>
            <polygon id="Path" fill="#E03854" points="251.856 100.176 273.284 92.952 280.635 114.009 259.207 121.233"></polygon>
            <polygon id="Path" fill="#5C4882" points="244.461 79.227 265.889 72.004 273.24 93.061 251.812 100.284"></polygon>
            <g id="Path">
                <use fill="black" fill-opacity="1" filter="url(#filter-12)" xlink:href="#path-11"></use>
                <use fill="#FDBC6E" fill-rule="evenodd" xlink:href="#path-11"></use>
            </g>
            <polygon id="Path" fill="#E03854" points="6.67847 171.563 28.1066 164.34 35.4572 185.397 14.0291 192.62"></polygon>
            <polygon id="Path" fill="#E03854" points="216 111.619 237.428 104.396 244.779 125.453 223.351 132.676"></polygon>
            <polygon id="Path" fill="#FDBC6E" points="983 282.607 1004.43 275.384 1011.78 296.441 990.351 303.664"></polygon>
            <polygon id="Path" fill="#FDBC6E" points="896.856 241.334 918.284 234.111 925.634 255.168 904.206 262.391"></polygon>
            <polygon id="Path" fill="#FDBC6E" points="1082 274.745 1103.43 267.522 1110.78 288.579 1089.35 295.803"></polygon>
            <polygon id="Path" fill="#5C4882" points="1067.32 57.6764 1088.75 50.453 1096.1 71.51 1074.67 78.734"></polygon>
            <polygon id="Path" fill="#FDBC6E" points="1004.22 64.45 1025.65 57.2264 1033 78.284 1011.57 85.507"></polygon>
            <polygon id="Path" fill="#5859C3" points="0.678467 49.7094 22.1066 42.4861 29.4572 63.543 8.02905 70.767"></polygon>
            <polygon id="Path" fill="#FDBC6E" points="466.164 28.679 444.264 35.4386 437.385 13.9177 459.285 7.1581"></polygon>
            <polygon id="Path" fill="#FDBC6E" points="394.75 29.679 372.85 36.4386 365.971 14.9177 387.871 8.1581"></polygon>
            <polygon id="Path" fill="#E03854" points="1003.37 134.788 1024.79 127.565 1032.14 148.622 1010.72 155.845"></polygon>
            <polygon id="Path" fill="#5C4882" points="995.905 113.84 1017.33 106.616 1024.68 127.673 1003.25 134.897"></polygon>
            <polygon id="Path" fill="#E03854" points="1067.38 113.84 1088.81 106.616 1096.16 127.673 1074.73 134.897"></polygon>
            <polygon id="Path" fill="#E03854" points="953.269 127.456 974.698 120.233 982.048 141.29 960.62 148.513"></polygon>
            <polygon id="Path" fill="#5C4882" points="974.587 121.173 996.015 113.948 1003.37 135.006 981.937 142.229"></polygon>
            <polygon id="Path" fill="#E03854" points="960.731 78.227 982.159 71.004 989.509 92.061 968.081 99.284"></polygon>
            <polygon id="Path" fill="#5C4882" points="1018.29 246.862 1039.72 239.639 1047.07 260.697 1025.64 267.92"></polygon>
            <polygon id="Path" fill="#745CA1" points="1053.46 142.107 1074.9 134.897 1082.24 155.967 1060.8 163.177"></polygon>
            <polygon id="Path" fill="#5859C3" points="1060.92 92.891 1082.35 85.668 1089.7 106.725 1068.27 113.948"></polygon>
            <polygon id="Path" fill="#E03854" points="830.76 120.158 852.201 112.948 859.538 134.018 838.097 141.229"></polygon>
            <polygon id="Path" fill="#FDBC6E" points="853.077 113.826 874.518 106.616 881.856 127.686 860.414 134.897"></polygon>
            <polygon id="Path" fill="#E03854" points="875.46 105.655 852.99 113.948 844.55 91.868 867.019 83.573"></polygon>
            <g id="Path">
                <use fill="black" fill-opacity="1" filter="url(#filter-14)" xlink:href="#path-13"></use>
                <use fill="#FF405F" fill-rule="evenodd" xlink:href="#path-13"></use>
            </g>
            <g id="Path">
                <use fill="black" fill-opacity="1" filter="url(#filter-16)" xlink:href="#path-15"></use>
                <use fill="#FDBC6E" fill-rule="evenodd" xlink:href="#path-15"></use>
            </g>
            <g id="Path">
                <use fill="black" fill-opacity="1" filter="url(#filter-18)" xlink:href="#path-17"></use>
                <use fill="#FF405F" fill-rule="evenodd" xlink:href="#path-17"></use>
            </g>
            <g id="Path">
                <use fill="black" fill-opacity="1" filter="url(#filter-20)" xlink:href="#path-19"></use>
                <use fill="#5859C3" fill-rule="evenodd" xlink:href="#path-19"></use>
            </g>
            <g id="Path">
                <use fill="black" fill-opacity="1" filter="url(#filter-22)" xlink:href="#path-21"></use>
                <use fill="#5859C3" fill-rule="evenodd" xlink:href="#path-21"></use>
            </g>
            <g id="Path">
                <use fill="black" fill-opacity="1" filter="url(#filter-24)" xlink:href="#path-23"></use>
                <use fill="#FDCB8E" fill-rule="evenodd" xlink:href="#path-23"></use>
            </g>
            <g id="Path">
                <use fill="black" fill-opacity="1" filter="url(#filter-26)" xlink:href="#path-25"></use>
                <use fill="#6B6CDA" fill-rule="evenodd" xlink:href="#path-25"></use>
            </g>
            <g id="Path">
                <use fill="black" fill-opacity="1" filter="url(#filter-28)" xlink:href="#path-27"></use>
                <use fill="#6B6CDA" fill-rule="evenodd" xlink:href="#path-27"></use>
            </g>
            <g id="Path">
                <use fill="black" fill-opacity="1" filter="url(#filter-30)" xlink:href="#path-29"></use>
                <use fill="#6B6CDA" fill-rule="evenodd" xlink:href="#path-29"></use>
            </g>
            <g id="Path">
                <use fill="black" fill-opacity="1" filter="url(#filter-32)" xlink:href="#path-31"></use>
                <use fill="#FDBC6E" fill-rule="evenodd" xlink:href="#path-31"></use>
            </g>
            <g id="Path">
                <use fill="black" fill-opacity="1" filter="url(#filter-34)" xlink:href="#path-33"></use>
                <use fill="#FF405F" fill-rule="evenodd" xlink:href="#path-33"></use>
            </g>
            <g id="Path">
                <use fill="black" fill-opacity="1" filter="url(#filter-36)" xlink:href="#path-35"></use>
                <use fill="#FF405F" fill-rule="evenodd" xlink:href="#path-35"></use>
            </g>
            <g id="Path">
                <use fill="black" fill-opacity="1" filter="url(#filter-38)" xlink:href="#path-37"></use>
                <use fill="#FF405F" fill-rule="evenodd" xlink:href="#path-37"></use>
            </g>
            <g id="Path">
                <use fill="black" fill-opacity="1" filter="url(#filter-40)" xlink:href="#path-39"></use>
                <use fill="#FF405F" fill-rule="evenodd" xlink:href="#path-39"></use>
            </g>
            <polygon id="Path" fill="#745CA1" points="788.058 204.953 809.5 197.742 816.837 218.813 795.396 226.023"></polygon>
            <g id="Path">
                <use fill="black" fill-opacity="1" filter="url(#filter-42)" xlink:href="#path-41"></use>
                <use fill="#745CA1" fill-rule="evenodd" xlink:href="#path-41"></use>
            </g>
        </g>
    </g>
</svg>