<?xml version="1.0" encoding="utf-8"?>
<!-- Generator: Adobe Illustrator 23.0.1, SVG Export Plug-In . SVG Version: 6.00 Build 0)  -->
<svg version="1.1" id="Calque_1" xmlns="http://www.w3.org/2000/svg" xmlns:xlink="http://www.w3.org/1999/xlink" x="0px" y="0px"
	 viewBox="0 0 308.4 138" style="enable-background:new 0 0 308.4 138;" xml:space="preserve">
<style type="text/css">
	.st0{fill-rule:evenodd;clip-rule:evenodd;fill:#FDBC6E;}
	.st1{fill-rule:evenodd;clip-rule:evenodd;fill:#5859C3;}
	.st2{fill-rule:evenodd;clip-rule:evenodd;fill:#6B6CDA;}
	.st3{fill-rule:evenodd;clip-rule:evenodd;fill:#E03854;}
	.st4{fill-rule:evenodd;clip-rule:evenodd;fill:#5C4882;}
	.st5{fill-rule:evenodd;clip-rule:evenodd;fill:#FF405F;}
	.st6{fill-rule:evenodd;clip-rule:evenodd;fill:#745CA1;}
</style>
<path class="st0" d="M304.9,40.1l14.9-5.1l5.1,14.9L310,55L304.9,40.1z"/>
<path class="st1" d="M299.9,25.1l14.9-5.1l5.1,14.9L305,40L299.9,25.1z"/>
<g>
	<path class="st2" d="M144.9,60.1l14.9-5.1l5.1,14.9L150,75L144.9,60.1z"/>
</g>
<path class="st3" d="M294.9,60.1l14.9-5.1l5.1,14.9L300,75L294.9,60.1z"/>
<path class="st4" d="M289.9,45.1l14.9-5.1l5.1,14.9L295,60L289.9,45.1z"/>
<path class="st0" d="M284.9,30.1l14.9-5.1l5.1,14.9L290,45L284.9,30.1z"/>
<path class="st4" d="M299.9,75.1l14.9-5.1l5.1,14.9L305,90L299.9,75.1z"/>
<path class="st3" d="M274.9,50.1l14.9-5.1l5.1,14.9L280,65L274.9,50.1z"/>
<path class="st0" d="M269.9,35.1l14.9-5.1l5.1,14.9L275,50L269.9,35.1z"/>
<path class="st3" d="M264.9,20.1l14.9-5.1l5.1,14.9L270,35L264.9,20.1z"/>
<path class="st0" d="M284.9,80.1l14.9-5.1l5.1,14.9L290,95L284.9,80.1z"/>
<path class="st0" d="M279.9,65.1l14.9-5.1l5.1,14.9L285,80L279.9,65.1z"/>
<path class="st1" d="M259.9,55.1l14.9-5.1l5.1,14.9L265,70L259.9,55.1z"/>
<path class="st4" d="M254.9,40.1l14.9-5.1l5.1,14.9L260,55L254.9,40.1z"/>
<path class="st1" d="M249.9,25.1l14.9-5.1l5.1,14.9L255,40L249.9,25.1z"/>
<path class="st4" d="M264.9,70.1l14.9-5.1l5.1,14.9L270,85L264.9,70.1z"/>
<path class="st0" d="M244.9,60.1l14.9-5.1l5.1,14.9L250,75L244.9,60.1z"/>
<path class="st3" d="M239.9,45.1l14.9-5.1l5.1,14.9L245,60L239.9,45.1z"/>
<path class="st0" d="M234.9,30.1l14.9-5.1l5.1,14.9L240,45L234.9,30.1z"/>
<path class="st1" d="M254.9,90.1l14.9-5.1l5.1,14.9L260,105L254.9,90.1z"/>
<path class="st3" d="M219.9,35.1l14.9-5.1l5.1,14.9L225,50L219.9,35.1z"/>
<path class="st3" d="M229.9,65.1l14.9-5.1l5.1,14.9L235,80L229.9,65.1z"/>
<path class="st1" d="M224.9,50.1l14.9-5.1l5.1,14.9L230,65L224.9,50.1z"/>
<path class="st3" d="M209.9,55.1l14.9-5.1l5.1,14.9L215,70L209.9,55.1z"/>
<path class="st0" d="M204.9,40.1l14.9-5.1l5.1,14.9L210,55L204.9,40.1z"/>
<path class="st1" d="M199.9,25.1l14.9-5.1l5.1,14.9L205,40L199.9,25.1z"/>
<path class="st0" d="M214.9,70.1l14.9-5.1l5.1,14.9L220,85L214.9,70.1z"/>
<path class="st4" d="M194.9,60.1l14.9-5.1l5.1,14.9L200,75L194.9,60.1z"/>
<path class="st1" d="M189.9,45.1l14.9-5.1l5.1,14.9L195,60L189.9,45.1z"/>
<path class="st4" d="M174.9,50.1l14.9-5.1l5.1,14.9L180,65L174.9,50.1z"/>
<path class="st1" d="M169.9,35.1l14.9-5.1l5.1,14.9L175,50L169.9,35.1z"/>
<path class="st3" d="M159.9,55.1l14.9-5.1l5.1,14.9L165,70L159.9,55.1z"/>
<g>
	<path class="st0" d="M154.9,40.1l14.9-5.1l5.1,14.9L160,55L154.9,40.1z"/>
</g>
<path class="st4" d="M164.9,70.1l14.9-5.1l5.1,14.9L170,85L164.9,70.1z"/>
<g>
	<path class="st2" d="M299.9,25.1l14.9-5.1l5.1,14.9L305,40L299.9,25.1z"/>
</g>
<g>
	<path class="st2" d="M299.9,25.1l14.9-5.1l5.1,14.9L305,40L299.9,25.1z"/>
</g>
<path class="st3" d="M129.9,65.1l14.9-5.1l5.1,14.9L135,80L129.9,65.1z"/>
<path class="st4" d="M124.9,50.1l14.9-5.1l5.1,14.9L130,65L124.9,50.1z"/>
<path class="st3" d="M119.9,85.1l14.9-5.1l5.1,14.9L125,100L119.9,85.1z"/>
<path class="st0" d="M279.9,15.2L264.7,20l-4.8-15.2L275.1,0L279.9,15.2z"/>
<path class="st0" d="M229.9,15.2L214.7,20l-4.8-15.2L225.1,0L229.9,15.2z"/>
<g>
	<path class="st5" d="M229.9,65.1l14.9-5.1l5.1,14.9L235,80L229.9,65.1z"/>
</g>
<g>
	<path class="st6" d="M254.9,40.1l14.9-5.1l5.1,14.9L260,55L254.9,40.1z"/>
</g>
<g>
	<path class="st0" d="M19.9,104.9L34,100l4.9,14.1L24.8,119L19.9,104.9z"/>
</g>
<path class="st3" d="M9.9,123.9l14.9-4.9l5.1,14.1L15,138L9.9,123.9z"/>
<path class="st0" d="M145.9,117.9L160,113l4.9,14.1l-14.1,4.9L145.9,117.9z"/>
<path class="st1" d="M5.9,41.9L20.8,37l5.1,14.1L11,56L5.9,41.9z"/>
</svg>
