<svg width="236" height="157" viewBox="0 0 236 157" fill="none" xmlns="http://www.w3.org/2000/svg">
<path fill-rule="evenodd" clip-rule="evenodd" d="M0 72.056H18V52.49H0V72.056Z" fill="#5859C3"/>
<path fill-rule="evenodd" clip-rule="evenodd" d="M22 41.62H40V22.054H22V41.62Z" fill="#FDBC6E"/>
<path fill-rule="evenodd" clip-rule="evenodd" d="M18 91.6221H36V72.056H18V91.6221Z" fill="#E03854"/>
<path fill-rule="evenodd" clip-rule="evenodd" d="M18 72.056H36V52.49H18V72.056Z" fill="#E03854"/>
<path fill-rule="evenodd" clip-rule="evenodd" d="M74 98.1441H92V78.5781H74V98.1441Z" fill="#E03854"/>
<path fill-rule="evenodd" clip-rule="evenodd" d="M56 78.5781H74V59.012H56V78.5781Z" fill="#5C4882"/>
<path fill-rule="evenodd" clip-rule="evenodd" d="M74 39.446H92V19.88H74V39.446Z" fill="#E03854"/>
<path fill-rule="evenodd" clip-rule="evenodd" d="M92 59.012H110V39.446H92V59.012Z" fill="#5859C3"/>
<path fill-rule="evenodd" clip-rule="evenodd" d="M92 78.5781H110V59.012H92V78.5781Z" fill="#E03854"/>
<path fill-rule="evenodd" clip-rule="evenodd" d="M92 19.88H110V0.313919H92V19.88Z" fill="#FDBC6E"/>
<path fill-rule="evenodd" clip-rule="evenodd" d="M92 39.446H110V19.88H92V39.446Z" fill="#5C4882"/>
<path fill-rule="evenodd" clip-rule="evenodd" d="M55 19.88H73V0.313919H55V19.88Z" fill="#FDBC6E"/>
<path fill-rule="evenodd" clip-rule="evenodd" d="M110 59.012H128V39.446H110V59.012Z" fill="#E03854"/>
<path fill-rule="evenodd" clip-rule="evenodd" d="M110 78.5781H128V59.012H110V78.5781Z" fill="#FDBC6E"/>
<path fill-rule="evenodd" clip-rule="evenodd" d="M110 98.1441H128V78.5781H110V98.1441Z" fill="#FDBC6E"/>
<path fill-rule="evenodd" clip-rule="evenodd" d="M128 39.446H146V19.88H128V39.446Z" fill="#5859C3"/>
<path fill-rule="evenodd" clip-rule="evenodd" d="M128 78.5781H146V59.012H128V78.5781Z" fill="#E03854"/>
<path fill-rule="evenodd" clip-rule="evenodd" d="M128 117.71H146V98.1441H128V117.71Z" fill="#E03854"/>
<path fill-rule="evenodd" clip-rule="evenodd" d="M146 39.446H164V19.88H146V39.446Z" fill="#E03854"/>
<path fill-rule="evenodd" clip-rule="evenodd" d="M146 59.012H164V39.446H146V59.012Z" fill="#5859C3"/>
<path fill-rule="evenodd" clip-rule="evenodd" d="M146 78.5781H164V59.012H146V78.5781Z" fill="#FDBC6E"/>
<path fill-rule="evenodd" clip-rule="evenodd" d="M146 98.1441H164V78.5781H146V98.1441Z" fill="#5859C3"/>
<path fill-rule="evenodd" clip-rule="evenodd" d="M146 117.71H164V98.1441H146V117.71Z" fill="#5C4882"/>
<path fill-rule="evenodd" clip-rule="evenodd" d="M146 137.276H164V117.71H146V137.276Z" fill="#5859C3"/>
<path fill-rule="evenodd" clip-rule="evenodd" d="M128 156.842H146V137.276H128V156.842Z" fill="#FDBC6E"/>
<path fill-rule="evenodd" clip-rule="evenodd" d="M164 59.012H182V39.446H164V59.012Z" fill="#E03854"/>
<path fill-rule="evenodd" clip-rule="evenodd" d="M164 78.5781H182V59.012H164V78.5781Z" fill="#5859C3"/>
<path fill-rule="evenodd" clip-rule="evenodd" d="M164 98.1441H182V78.5781H164V98.1441Z" fill="#E03854"/>
<path fill-rule="evenodd" clip-rule="evenodd" d="M164 117.71H182V98.1441H164V117.71Z" fill="#FDBC6E"/>
<path fill-rule="evenodd" clip-rule="evenodd" d="M163 19.88H181V0.313919H163V19.88Z" fill="#5859C3"/>
<path fill-rule="evenodd" clip-rule="evenodd" d="M200 19.88H218V0.313919H200V19.88Z" fill="#5C4882"/>
<path fill-rule="evenodd" clip-rule="evenodd" d="M182 39.446H200V19.88H182V39.446Z" fill="#E03854"/>
<path fill-rule="evenodd" clip-rule="evenodd" d="M182 59.012H200V39.446H182V59.012Z" fill="#FDBC6E"/>
<path fill-rule="evenodd" clip-rule="evenodd" d="M182 78.5781H200V59.012H182V78.5781Z" fill="#5C4882"/>
<path fill-rule="evenodd" clip-rule="evenodd" d="M182 98.1441H200V78.5781H182V98.1441Z" fill="#5C4882"/>
<path fill-rule="evenodd" clip-rule="evenodd" d="M182 137.276H200V117.71H182V137.276Z" fill="#5C4882"/>
<path fill-rule="evenodd" clip-rule="evenodd" d="M200 39.446H218V19.88H200V39.446Z" fill="#FDBC6E"/>
<path fill-rule="evenodd" clip-rule="evenodd" d="M200 59.012H218V39.446H200V59.012Z" fill="#5C4882"/>
<path fill-rule="evenodd" clip-rule="evenodd" d="M200 98.1441H218V78.5781H200V98.1441Z" fill="#FDBC6E"/>
<path fill-rule="evenodd" clip-rule="evenodd" d="M200 137.276H218V117.71H200V137.276Z" fill="#FDBC6E"/>
<path fill-rule="evenodd" clip-rule="evenodd" d="M218 59.012H236V39.446H218V59.012Z" fill="#FDBC6E"/>
<path fill-rule="evenodd" clip-rule="evenodd" d="M218 98.1441H236V78.5781H218V98.1441Z" fill="#E03854"/>
<path fill-rule="evenodd" clip-rule="evenodd" d="M218 155.755H236V136.189H218V155.755Z" fill="#FDBC6E"/>
<path fill-rule="evenodd" clip-rule="evenodd" d="M218 117.71H236V98.1441H218V117.71Z" fill="#5859C3"/>
<g filter="url(#filter0_d)">
<path fill-rule="evenodd" clip-rule="evenodd" d="M18 91.6221H36V72.056H18V91.6221Z" fill="#FF405F"/>
</g>
<g filter="url(#filter1_d)">
<path fill-rule="evenodd" clip-rule="evenodd" d="M110 59.012H128V39.446H110V59.012Z" fill="#FF405F"/>
</g>
<g filter="url(#filter2_d)">
<path fill-rule="evenodd" clip-rule="evenodd" d="M146 98.1441H164V78.5781H146V98.1441Z" fill="#6B6CDA"/>
</g>
<g filter="url(#filter3_d)">
<path fill-rule="evenodd" clip-rule="evenodd" d="M182 59.012H200V39.446H182V59.012Z" fill="#FFC681"/>
</g>
<g filter="url(#filter4_d)">
<path fill-rule="evenodd" clip-rule="evenodd" d="M182 137.276H200V117.71H182V137.276Z" fill="#745CA1"/>
</g>
<defs>
<filter id="filter0_d" x="15.5" y="71.056" width="23" height="24.5661" filterUnits="userSpaceOnUse" color-interpolation-filters="sRGB">
<feFlood flood-opacity="0" result="BackgroundImageFix"/>
<feColorMatrix in="SourceAlpha" type="matrix" values="0 0 0 0 0 0 0 0 0 0 0 0 0 0 0 0 0 0 127 0"/>
<feOffset dy="1.5"/>
<feGaussianBlur stdDeviation="1.25"/>
<feColorMatrix type="matrix" values="0 0 0 0 0 0 0 0 0 0 0 0 0 0 0 0 0 0 0.5 0"/>
<feBlend mode="normal" in2="BackgroundImageFix" result="effect1_dropShadow"/>
<feBlend mode="normal" in="SourceGraphic" in2="effect1_dropShadow" result="shape"/>
</filter>
<filter id="filter1_d" x="107" y="39.446" width="24" height="25.566" filterUnits="userSpaceOnUse" color-interpolation-filters="sRGB">
<feFlood flood-opacity="0" result="BackgroundImageFix"/>
<feColorMatrix in="SourceAlpha" type="matrix" values="0 0 0 0 0 0 0 0 0 0 0 0 0 0 0 0 0 0 127 0"/>
<feOffset dy="3"/>
<feGaussianBlur stdDeviation="1.5"/>
<feColorMatrix type="matrix" values="0 0 0 0 0 0 0 0 0 0 0 0 0 0 0 0 0 0 0.5 0"/>
<feBlend mode="normal" in2="BackgroundImageFix" result="effect1_dropShadow"/>
<feBlend mode="normal" in="SourceGraphic" in2="effect1_dropShadow" result="shape"/>
</filter>
<filter id="filter2_d" x="144" y="78.5781" width="24" height="25.566" filterUnits="userSpaceOnUse" color-interpolation-filters="sRGB">
<feFlood flood-opacity="0" result="BackgroundImageFix"/>
<feColorMatrix in="SourceAlpha" type="matrix" values="0 0 0 0 0 0 0 0 0 0 0 0 0 0 0 0 0 0 127 0"/>
<feOffset dx="1" dy="3"/>
<feGaussianBlur stdDeviation="1.5"/>
<feColorMatrix type="matrix" values="0 0 0 0 0 0 0 0 0 0 0 0 0 0 0 0 0 0 0.5 0"/>
<feBlend mode="normal" in2="BackgroundImageFix" result="effect1_dropShadow"/>
<feBlend mode="normal" in="SourceGraphic" in2="effect1_dropShadow" result="shape"/>
</filter>
<filter id="filter3_d" x="180" y="39.446" width="24" height="25.566" filterUnits="userSpaceOnUse" color-interpolation-filters="sRGB">
<feFlood flood-opacity="0" result="BackgroundImageFix"/>
<feColorMatrix in="SourceAlpha" type="matrix" values="0 0 0 0 0 0 0 0 0 0 0 0 0 0 0 0 0 0 127 0"/>
<feOffset dx="1" dy="3"/>
<feGaussianBlur stdDeviation="1.5"/>
<feColorMatrix type="matrix" values="0 0 0 0 0 0 0 0 0 0 0 0 0 0 0 0 0 0 0.5 0"/>
<feBlend mode="normal" in2="BackgroundImageFix" result="effect1_dropShadow"/>
<feBlend mode="normal" in="SourceGraphic" in2="effect1_dropShadow" result="shape"/>
</filter>
<filter id="filter4_d" x="179.5" y="116.71" width="23" height="24.5661" filterUnits="userSpaceOnUse" color-interpolation-filters="sRGB">
<feFlood flood-opacity="0" result="BackgroundImageFix"/>
<feColorMatrix in="SourceAlpha" type="matrix" values="0 0 0 0 0 0 0 0 0 0 0 0 0 0 0 0 0 0 127 0"/>
<feOffset dy="1.5"/>
<feGaussianBlur stdDeviation="1.25"/>
<feColorMatrix type="matrix" values="0 0 0 0 0 0 0 0 0 0 0 0 0 0 0 0 0 0 0.5 0"/>
<feBlend mode="normal" in2="BackgroundImageFix" result="effect1_dropShadow"/>
<feBlend mode="normal" in="SourceGraphic" in2="effect1_dropShadow" result="shape"/>
</filter>
</defs>
</svg>
