<svg width="594" height="160" viewBox="0 0 594 160" fill="none" xmlns="http://www.w3.org/2000/svg">
<path fill-rule="evenodd" clip-rule="evenodd" d="M522 58H540V40H522V58Z" fill="#5C4882"/>
<path fill-rule="evenodd" clip-rule="evenodd" d="M522 76H540V58H522V76Z" fill="#E03854"/>
<path fill-rule="evenodd" clip-rule="evenodd" d="M522 112H540V94H522V112Z" fill="#E03854"/>
<path fill-rule="evenodd" clip-rule="evenodd" d="M504 40H522V22H504V40Z" fill="#FDBC6E"/>
<path fill-rule="evenodd" clip-rule="evenodd" d="M504 76H522V58H504V76Z" fill="#5859C3"/>
<path fill-rule="evenodd" clip-rule="evenodd" d="M504 94H522V76H504V94Z" fill="#5C4882"/>
<path fill-rule="evenodd" clip-rule="evenodd" d="M504 130H522V112H504V130Z" fill="#FDBC6E"/>
<path fill-rule="evenodd" clip-rule="evenodd" d="M540 40H558V22H540V40Z" fill="#E03854"/>
<path fill-rule="evenodd" clip-rule="evenodd" d="M540 58H558V40H540V58Z" fill="#FDBC6E"/>
<path fill-rule="evenodd" clip-rule="evenodd" d="M540 76H558V58H540V76Z" fill="#5859C3"/>
<path fill-rule="evenodd" clip-rule="evenodd" d="M540 94H558V76H540V94Z" fill="#FDBC6E"/>
<path fill-rule="evenodd" clip-rule="evenodd" d="M540 112H558V94H540V112Z" fill="#FDBC6E"/>
<path fill-rule="evenodd" clip-rule="evenodd" d="M558 40H576V22H558V40Z" fill="#5859C3"/>
<path fill-rule="evenodd" clip-rule="evenodd" d="M558 76H576V58H558V76Z" fill="#E03854"/>
<path fill-rule="evenodd" clip-rule="evenodd" d="M558 94H576V76H558V94Z" fill="#E03854"/>
<path fill-rule="evenodd" clip-rule="evenodd" d="M558 130H576V112H558V130Z" fill="#E03854"/>
<path fill-rule="evenodd" clip-rule="evenodd" d="M576 58H594V40H576V58Z" fill="#5859C3"/>
<path fill-rule="evenodd" clip-rule="evenodd" d="M576 76H594V58H576V76Z" fill="#FDBC6E"/>
<path fill-rule="evenodd" clip-rule="evenodd" d="M576 112H594V94H576V112Z" fill="#E03854"/>
<path fill-rule="evenodd" clip-rule="evenodd" d="M576 130H594V112H576V130Z" fill="#FDBC6E"/>
<path fill-rule="evenodd" clip-rule="evenodd" d="M576 148H594V130H576V148Z" fill="#E03854"/>
<path fill-rule="evenodd" clip-rule="evenodd" d="M252 58H270V40H252V58Z" fill="#5C4882"/>
<path fill-rule="evenodd" clip-rule="evenodd" d="M252 76H270V58H252V76Z" fill="#E03854"/>
<path fill-rule="evenodd" clip-rule="evenodd" d="M252 112H270V94H252V112Z" fill="#E03854"/>
<path fill-rule="evenodd" clip-rule="evenodd" d="M234 40H252V22H234V40Z" fill="#FDBC6E"/>
<path fill-rule="evenodd" clip-rule="evenodd" d="M234 76H252V58H234V76Z" fill="#5859C3"/>
<path fill-rule="evenodd" clip-rule="evenodd" d="M234 94H252V76H234V94Z" fill="#5C4882"/>
<path fill-rule="evenodd" clip-rule="evenodd" d="M234 130H252V112H234V130Z" fill="#5C4882"/>
<path fill-rule="evenodd" clip-rule="evenodd" d="M270 58H288V40H270V58Z" fill="#FDBC6E"/>
<path fill-rule="evenodd" clip-rule="evenodd" d="M270 76H288V58H270V76Z" fill="#5859C3"/>
<path fill-rule="evenodd" clip-rule="evenodd" d="M270 112H288V94H270V112Z" fill="#FDBC6E"/>
<path fill-rule="evenodd" clip-rule="evenodd" d="M288 40H306V22H288V40Z" fill="#5859C3"/>
<path fill-rule="evenodd" clip-rule="evenodd" d="M288 76H306V58H288V76Z" fill="#E03854"/>
<path fill-rule="evenodd" clip-rule="evenodd" d="M288 94H306V76H288V94Z" fill="#E03854"/>
<path fill-rule="evenodd" clip-rule="evenodd" d="M306 58H324V40H306V58Z" fill="#5859C3"/>
<path fill-rule="evenodd" clip-rule="evenodd" d="M306 94H324V76H306V94Z" fill="#5C4882"/>
<path fill-rule="evenodd" clip-rule="evenodd" d="M306 112H324V94H306V112Z" fill="#E03854"/>
<path fill-rule="evenodd" clip-rule="evenodd" d="M324 94H342V76H324V94Z" fill="#FDBC6E"/>
<path fill-rule="evenodd" clip-rule="evenodd" d="M324 130H342V112H324V130Z" fill="#FDBC6E"/>
<path fill-rule="evenodd" clip-rule="evenodd" d="M342 40H360V22H342V40Z" fill="#E03854"/>
<path fill-rule="evenodd" clip-rule="evenodd" d="M342 58H360V40H342V58Z" fill="#5859C3"/>
<path fill-rule="evenodd" clip-rule="evenodd" d="M342 76H360V58H342V76Z" fill="#FDBC6E"/>
<path fill-rule="evenodd" clip-rule="evenodd" d="M342 94H360V76H342V94Z" fill="#E03854"/>
<g filter="url(#filter0_d)">
<path fill-rule="evenodd" clip-rule="evenodd" d="M270 94H288V76H270V94Z" fill="#FFC681"/>
</g>
<path fill-rule="evenodd" clip-rule="evenodd" d="M342 112H360V94H342V112Z" fill="#5859C3"/>
<path fill-rule="evenodd" clip-rule="evenodd" d="M360 76H378V58H360V76Z" fill="#E03854"/>
<path fill-rule="evenodd" clip-rule="evenodd" d="M378 58H396V40H378V58Z" fill="#E03854"/>
<path fill-rule="evenodd" clip-rule="evenodd" d="M378 76H396V58H378V76Z" fill="#FDBC6E"/>
<path fill-rule="evenodd" clip-rule="evenodd" d="M378 112H396V94H378V112Z" fill="#E03854"/>
<path fill-rule="evenodd" clip-rule="evenodd" d="M396 76H414V58H396V76Z" fill="#E03854"/>
<path fill-rule="evenodd" clip-rule="evenodd" d="M396 94H414V76H396V94Z" fill="#FDBC6E"/>
<path fill-rule="evenodd" clip-rule="evenodd" d="M396 112H414V94H396V112Z" fill="#E03854"/>
<path fill-rule="evenodd" clip-rule="evenodd" d="M414 40H432V22H414V40Z" fill="#E03854"/>
<path fill-rule="evenodd" clip-rule="evenodd" d="M414 58H432V40H414V58Z" fill="#5859C3"/>
<path fill-rule="evenodd" clip-rule="evenodd" d="M414 76H432V58H414V76Z" fill="#FDBC6E"/>
<path fill-rule="evenodd" clip-rule="evenodd" d="M414 94H432V76H414V94Z" fill="#5859C3"/>
<path fill-rule="evenodd" clip-rule="evenodd" d="M414 112H432V94H414V112Z" fill="#5C4882"/>
<path fill-rule="evenodd" clip-rule="evenodd" d="M414 130H432V112H414V130Z" fill="#5859C3"/>
<path fill-rule="evenodd" clip-rule="evenodd" d="M432 58H450V40H432V58Z" fill="#E03854"/>
<path fill-rule="evenodd" clip-rule="evenodd" d="M432 76H450V58H432V76Z" fill="#5859C3"/>
<path fill-rule="evenodd" clip-rule="evenodd" d="M432 94H450V76H432V94Z" fill="#E03854"/>
<path fill-rule="evenodd" clip-rule="evenodd" d="M432 112H450V94H432V112Z" fill="#FDBC6E"/>
<path fill-rule="evenodd" clip-rule="evenodd" d="M450 76H468V58H450V76Z" fill="#5C4882"/>
<path fill-rule="evenodd" clip-rule="evenodd" d="M450 94H468V76H450V94Z" fill="#5C4882"/>
<path fill-rule="evenodd" clip-rule="evenodd" d="M450 130H468V112H450V130Z" fill="#5C4882"/>
<path fill-rule="evenodd" clip-rule="evenodd" d="M468 40H486V22H468V40Z" fill="#FDBC6E"/>
<path fill-rule="evenodd" clip-rule="evenodd" d="M468 58H486V40H468V58Z" fill="#5C4882"/>
<path fill-rule="evenodd" clip-rule="evenodd" d="M468 94H486V76H468V94Z" fill="#FDBC6E"/>
<path fill-rule="evenodd" clip-rule="evenodd" d="M486 58H504V40H486V58Z" fill="#FDBC6E"/>
<path fill-rule="evenodd" clip-rule="evenodd" d="M486 94H504V76H486V94Z" fill="#E03854"/>
<path fill-rule="evenodd" clip-rule="evenodd" d="M0 76H18V58H0V76Z" fill="#5859C3"/>
<path fill-rule="evenodd" clip-rule="evenodd" d="M18 48H36V30H18V48Z" fill="#FDBC6E"/>
<path fill-rule="evenodd" clip-rule="evenodd" d="M18 76H36V58H18V76Z" fill="#E03854"/>
<path fill-rule="evenodd" clip-rule="evenodd" d="M72 94H90V76H72V94Z" fill="#E03854"/>
<path fill-rule="evenodd" clip-rule="evenodd" d="M54 76H72V58H54V76Z" fill="#5C4882"/>
<path fill-rule="evenodd" clip-rule="evenodd" d="M90 76H108V58H90V76Z" fill="#E03854"/>
<path fill-rule="evenodd" clip-rule="evenodd" d="M90 40H108V22H90V40Z" fill="#FDBC6E"/>
<path fill-rule="evenodd" clip-rule="evenodd" d="M108 76H126V58H108V76Z" fill="#FDBC6E"/>
<path fill-rule="evenodd" clip-rule="evenodd" d="M108 94H126V76H108V94Z" fill="#FDBC6E"/>
<path fill-rule="evenodd" clip-rule="evenodd" d="M126 40H144V22H126V40Z" fill="#5859C3"/>
<g filter="url(#filter1_d)">
<path fill-rule="evenodd" clip-rule="evenodd" d="M108 58H126V40H108V58Z" fill="#FF405F"/>
</g>
<g filter="url(#filter2_d)">
<path fill-rule="evenodd" clip-rule="evenodd" d="M18 76H36V58H18V76Z" fill="#F4395F"/>
</g>
<path fill-rule="evenodd" clip-rule="evenodd" d="M126 76H144V58H126V76Z" fill="#E03854"/>
<path fill-rule="evenodd" clip-rule="evenodd" d="M126 112H144V94H126V112Z" fill="#E03854"/>
<path fill-rule="evenodd" clip-rule="evenodd" d="M144 58H162V40H144V58Z" fill="#5859C3"/>
<path fill-rule="evenodd" clip-rule="evenodd" d="M144 76H162V58H144V76Z" fill="#FDBC6E"/>
<path fill-rule="evenodd" clip-rule="evenodd" d="M144 94H162V76H144V94Z" fill="#5859C3"/>
<path fill-rule="evenodd" clip-rule="evenodd" d="M162 58H180V40H162V58Z" fill="#E03854"/>
<path fill-rule="evenodd" clip-rule="evenodd" d="M162 94H180V76H162V94Z" fill="#E03854"/>
<path fill-rule="evenodd" clip-rule="evenodd" d="M180 112H198V94H180V112Z" fill="#5859C3"/>
<path fill-rule="evenodd" clip-rule="evenodd" d="M180 40H198V22H180V40Z" fill="#E03854"/>
<path fill-rule="evenodd" clip-rule="evenodd" d="M180 58H198V40H180V58Z" fill="#FDBC6E"/>
<path fill-rule="evenodd" clip-rule="evenodd" d="M180 76H198V58H180V76Z" fill="#5C4882"/>
<path fill-rule="evenodd" clip-rule="evenodd" d="M180 94H198V76H180V94Z" fill="#5C4882"/>
<path fill-rule="evenodd" clip-rule="evenodd" d="M198 58H216V40H198V58Z" fill="#5C4882"/>
<path fill-rule="evenodd" clip-rule="evenodd" d="M198 94H216V76H198V94Z" fill="#FDBC6E"/>
<g filter="url(#filter3_d)">
<path fill-rule="evenodd" clip-rule="evenodd" d="M162 76H180V58H162V76Z" fill="#6B6CDA"/>
</g>
<path fill-rule="evenodd" clip-rule="evenodd" d="M216 58H234V40H216V58Z" fill="#FDBC6E"/>
<path fill-rule="evenodd" clip-rule="evenodd" d="M216 94H234V76H216V94Z" fill="#E03854"/>
<path fill-rule="evenodd" clip-rule="evenodd" d="M216 112H234V94H216V112Z" fill="#5859C3"/>
<path fill-rule="evenodd" clip-rule="evenodd" d="M522 58H540V40H522V58Z" fill="#5C4882"/>
<path fill-rule="evenodd" clip-rule="evenodd" d="M522 76H540V58H522V76Z" fill="#E03854"/>
<path fill-rule="evenodd" clip-rule="evenodd" d="M522 112H540V94H522V112Z" fill="#E03854"/>
<path fill-rule="evenodd" clip-rule="evenodd" d="M504 40H522V22H504V40Z" fill="#FDBC6E"/>
<path fill-rule="evenodd" clip-rule="evenodd" d="M504 76H522V58H504V76Z" fill="#5859C3"/>
<path fill-rule="evenodd" clip-rule="evenodd" d="M504 94H522V76H504V94Z" fill="#5C4882"/>
<path fill-rule="evenodd" clip-rule="evenodd" d="M504 130H522V112H504V130Z" fill="#FDBC6E"/>
<path fill-rule="evenodd" clip-rule="evenodd" d="M540 58H558V40H540V58Z" fill="#FDBC6E"/>
<path fill-rule="evenodd" clip-rule="evenodd" d="M540 76H558V58H540V76Z" fill="#5859C3"/>
<path fill-rule="evenodd" clip-rule="evenodd" d="M540 94H558V76H540V94Z" fill="#FDBC6E"/>
<path fill-rule="evenodd" clip-rule="evenodd" d="M540 112H558V94H540V112Z" fill="#FDBC6E"/>
<path fill-rule="evenodd" clip-rule="evenodd" d="M558 40H576V22H558V40Z" fill="#5859C3"/>
<path fill-rule="evenodd" clip-rule="evenodd" d="M558 76H576V58H558V76Z" fill="#E03854"/>
<path fill-rule="evenodd" clip-rule="evenodd" d="M558 94H576V76H558V94Z" fill="#E03854"/>
<path fill-rule="evenodd" clip-rule="evenodd" d="M558 130H576V112H558V130Z" fill="#E03854"/>
<path fill-rule="evenodd" clip-rule="evenodd" d="M576 58H594V40H576V58Z" fill="#5859C3"/>
<path fill-rule="evenodd" clip-rule="evenodd" d="M576 76H594V58H576V76Z" fill="#FDBC6E"/>
<path fill-rule="evenodd" clip-rule="evenodd" d="M576 112H594V94H576V112Z" fill="#E03854"/>
<path fill-rule="evenodd" clip-rule="evenodd" d="M576 130H594V112H576V130Z" fill="#FDBC6E"/>
<path fill-rule="evenodd" clip-rule="evenodd" d="M576 148H594V130H576V148Z" fill="#E03854"/>
<g filter="url(#filter4_d)">
<path fill-rule="evenodd" clip-rule="evenodd" d="M198 40H216V22H198V40Z" fill="#FF405F"/>
</g>
<g filter="url(#filter5_d)">
<path fill-rule="evenodd" clip-rule="evenodd" d="M576 130H594V112H576V130Z" fill="#FFC681"/>
</g>
<g filter="url(#filter6_d)">
<path fill-rule="evenodd" clip-rule="evenodd" d="M198 130H216V112H198V130Z" fill="#FFC681"/>
</g>
<g filter="url(#filter7_d)">
<path fill-rule="evenodd" clip-rule="evenodd" d="M288 58H306V40H288V58Z" fill="#FFC681"/>
</g>
<g filter="url(#filter8_d)">
<path fill-rule="evenodd" clip-rule="evenodd" d="M360 94H378V76H360V94Z" fill="#745CA1"/>
</g>
<g filter="url(#filter9_d)">
<path fill-rule="evenodd" clip-rule="evenodd" d="M396 112H414V94H396V112Z" fill="#FF405F"/>
</g>
<g filter="url(#filter10_d)">
<path fill-rule="evenodd" clip-rule="evenodd" d="M594 94H612V76H594V94Z" fill="#FFC681"/>
</g>
<g filter="url(#filter11_d)">
<path fill-rule="evenodd" clip-rule="evenodd" d="M522 58H540V40H522V58Z" fill="#745CA1"/>
</g>
<g filter="url(#filter12_d)">
<path fill-rule="evenodd" clip-rule="evenodd" d="M450 76H468V58H450V76Z" fill="#745CA1"/>
</g>
<g filter="url(#filter13_d)">
<path fill-rule="evenodd" clip-rule="evenodd" d="M414 40H432V22H414V40Z" fill="#FF405F"/>
</g>
<defs>
<filter id="filter0_d" x="267" y="76" width="24" height="24" filterUnits="userSpaceOnUse" color-interpolation-filters="sRGB">
<feFlood flood-opacity="0" result="BackgroundImageFix"/>
<feColorMatrix in="SourceAlpha" type="matrix" values="0 0 0 0 0 0 0 0 0 0 0 0 0 0 0 0 0 0 127 0"/>
<feOffset dy="3"/>
<feGaussianBlur stdDeviation="1.5"/>
<feColorMatrix type="matrix" values="0 0 0 0 0 0 0 0 0 0 0 0 0 0 0 0 0 0 0.5 0"/>
<feBlend mode="normal" in2="BackgroundImageFix" result="effect1_dropShadow"/>
<feBlend mode="normal" in="SourceGraphic" in2="effect1_dropShadow" result="shape"/>
</filter>
<filter id="filter1_d" x="105" y="40" width="24" height="24" filterUnits="userSpaceOnUse" color-interpolation-filters="sRGB">
<feFlood flood-opacity="0" result="BackgroundImageFix"/>
<feColorMatrix in="SourceAlpha" type="matrix" values="0 0 0 0 0 0 0 0 0 0 0 0 0 0 0 0 0 0 127 0"/>
<feOffset dy="3"/>
<feGaussianBlur stdDeviation="1.5"/>
<feColorMatrix type="matrix" values="0 0 0 0 0 0 0 0 0 0 0 0 0 0 0 0 0 0 0.5 0"/>
<feBlend mode="normal" in2="BackgroundImageFix" result="effect1_dropShadow"/>
<feBlend mode="normal" in="SourceGraphic" in2="effect1_dropShadow" result="shape"/>
</filter>
<filter id="filter2_d" x="15" y="58" width="24" height="24" filterUnits="userSpaceOnUse" color-interpolation-filters="sRGB">
<feFlood flood-opacity="0" result="BackgroundImageFix"/>
<feColorMatrix in="SourceAlpha" type="matrix" values="0 0 0 0 0 0 0 0 0 0 0 0 0 0 0 0 0 0 127 0"/>
<feOffset dy="3"/>
<feGaussianBlur stdDeviation="1.5"/>
<feColorMatrix type="matrix" values="0 0 0 0 0 0 0 0 0 0 0 0 0 0 0 0 0 0 0.5 0"/>
<feBlend mode="normal" in2="BackgroundImageFix" result="effect1_dropShadow"/>
<feBlend mode="normal" in="SourceGraphic" in2="effect1_dropShadow" result="shape"/>
</filter>
<filter id="filter3_d" x="159" y="58" width="24" height="24" filterUnits="userSpaceOnUse" color-interpolation-filters="sRGB">
<feFlood flood-opacity="0" result="BackgroundImageFix"/>
<feColorMatrix in="SourceAlpha" type="matrix" values="0 0 0 0 0 0 0 0 0 0 0 0 0 0 0 0 0 0 127 0"/>
<feOffset dy="3"/>
<feGaussianBlur stdDeviation="1.5"/>
<feColorMatrix type="matrix" values="0 0 0 0 0 0 0 0 0 0 0 0 0 0 0 0 0 0 0.5 0"/>
<feBlend mode="normal" in2="BackgroundImageFix" result="effect1_dropShadow"/>
<feBlend mode="normal" in="SourceGraphic" in2="effect1_dropShadow" result="shape"/>
</filter>
<filter id="filter4_d" x="195" y="22" width="24" height="24" filterUnits="userSpaceOnUse" color-interpolation-filters="sRGB">
<feFlood flood-opacity="0" result="BackgroundImageFix"/>
<feColorMatrix in="SourceAlpha" type="matrix" values="0 0 0 0 0 0 0 0 0 0 0 0 0 0 0 0 0 0 127 0"/>
<feOffset dy="3"/>
<feGaussianBlur stdDeviation="1.5"/>
<feColorMatrix type="matrix" values="0 0 0 0 0 0 0 0 0 0 0 0 0 0 0 0 0 0 0.5 0"/>
<feBlend mode="normal" in2="BackgroundImageFix" result="effect1_dropShadow"/>
<feBlend mode="normal" in="SourceGraphic" in2="effect1_dropShadow" result="shape"/>
</filter>
<filter id="filter5_d" x="573" y="112" width="24" height="24" filterUnits="userSpaceOnUse" color-interpolation-filters="sRGB">
<feFlood flood-opacity="0" result="BackgroundImageFix"/>
<feColorMatrix in="SourceAlpha" type="matrix" values="0 0 0 0 0 0 0 0 0 0 0 0 0 0 0 0 0 0 127 0"/>
<feOffset dy="3"/>
<feGaussianBlur stdDeviation="1.5"/>
<feColorMatrix type="matrix" values="0 0 0 0 0 0 0 0 0 0 0 0 0 0 0 0 0 0 0.5 0"/>
<feBlend mode="normal" in2="BackgroundImageFix" result="effect1_dropShadow"/>
<feBlend mode="normal" in="SourceGraphic" in2="effect1_dropShadow" result="shape"/>
</filter>
<filter id="filter6_d" x="195.5" y="111" width="23" height="23" filterUnits="userSpaceOnUse" color-interpolation-filters="sRGB">
<feFlood flood-opacity="0" result="BackgroundImageFix"/>
<feColorMatrix in="SourceAlpha" type="matrix" values="0 0 0 0 0 0 0 0 0 0 0 0 0 0 0 0 0 0 127 0"/>
<feOffset dy="1.5"/>
<feGaussianBlur stdDeviation="1.25"/>
<feColorMatrix type="matrix" values="0 0 0 0 0 0 0 0 0 0 0 0 0 0 0 0 0 0 0.5 0"/>
<feBlend mode="normal" in2="BackgroundImageFix" result="effect1_dropShadow"/>
<feBlend mode="normal" in="SourceGraphic" in2="effect1_dropShadow" result="shape"/>
</filter>
<filter id="filter7_d" x="285" y="40" width="24" height="24" filterUnits="userSpaceOnUse" color-interpolation-filters="sRGB">
<feFlood flood-opacity="0" result="BackgroundImageFix"/>
<feColorMatrix in="SourceAlpha" type="matrix" values="0 0 0 0 0 0 0 0 0 0 0 0 0 0 0 0 0 0 127 0"/>
<feOffset dy="3"/>
<feGaussianBlur stdDeviation="1.5"/>
<feColorMatrix type="matrix" values="0 0 0 0 0 0 0 0 0 0 0 0 0 0 0 0 0 0 0.5 0"/>
<feBlend mode="normal" in2="BackgroundImageFix" result="effect1_dropShadow"/>
<feBlend mode="normal" in="SourceGraphic" in2="effect1_dropShadow" result="shape"/>
</filter>
<filter id="filter8_d" x="357.5" y="75" width="23" height="23" filterUnits="userSpaceOnUse" color-interpolation-filters="sRGB">
<feFlood flood-opacity="0" result="BackgroundImageFix"/>
<feColorMatrix in="SourceAlpha" type="matrix" values="0 0 0 0 0 0 0 0 0 0 0 0 0 0 0 0 0 0 127 0"/>
<feOffset dy="1.5"/>
<feGaussianBlur stdDeviation="1.25"/>
<feColorMatrix type="matrix" values="0 0 0 0 0 0 0 0 0 0 0 0 0 0 0 0 0 0 0.5 0"/>
<feBlend mode="normal" in2="BackgroundImageFix" result="effect1_dropShadow"/>
<feBlend mode="normal" in="SourceGraphic" in2="effect1_dropShadow" result="shape"/>
</filter>
<filter id="filter9_d" x="393" y="94" width="24" height="24" filterUnits="userSpaceOnUse" color-interpolation-filters="sRGB">
<feFlood flood-opacity="0" result="BackgroundImageFix"/>
<feColorMatrix in="SourceAlpha" type="matrix" values="0 0 0 0 0 0 0 0 0 0 0 0 0 0 0 0 0 0 127 0"/>
<feOffset dy="3"/>
<feGaussianBlur stdDeviation="1.5"/>
<feColorMatrix type="matrix" values="0 0 0 0 0 0 0 0 0 0 0 0 0 0 0 0 0 0 0.5 0"/>
<feBlend mode="normal" in2="BackgroundImageFix" result="effect1_dropShadow"/>
<feBlend mode="normal" in="SourceGraphic" in2="effect1_dropShadow" result="shape"/>
</filter>
<filter id="filter10_d" x="591.5" y="75" width="23" height="23" filterUnits="userSpaceOnUse" color-interpolation-filters="sRGB">
<feFlood flood-opacity="0" result="BackgroundImageFix"/>
<feColorMatrix in="SourceAlpha" type="matrix" values="0 0 0 0 0 0 0 0 0 0 0 0 0 0 0 0 0 0 127 0"/>
<feOffset dy="1.5"/>
<feGaussianBlur stdDeviation="1.25"/>
<feColorMatrix type="matrix" values="0 0 0 0 0 0 0 0 0 0 0 0 0 0 0 0 0 0 0.5 0"/>
<feBlend mode="normal" in2="BackgroundImageFix" result="effect1_dropShadow"/>
<feBlend mode="normal" in="SourceGraphic" in2="effect1_dropShadow" result="shape"/>
</filter>
<filter id="filter11_d" x="519" y="40" width="24" height="24" filterUnits="userSpaceOnUse" color-interpolation-filters="sRGB">
<feFlood flood-opacity="0" result="BackgroundImageFix"/>
<feColorMatrix in="SourceAlpha" type="matrix" values="0 0 0 0 0 0 0 0 0 0 0 0 0 0 0 0 0 0 127 0"/>
<feOffset dy="3"/>
<feGaussianBlur stdDeviation="1.5"/>
<feColorMatrix type="matrix" values="0 0 0 0 0 0 0 0 0 0 0 0 0 0 0 0 0 0 0.5 0"/>
<feBlend mode="normal" in2="BackgroundImageFix" result="effect1_dropShadow"/>
<feBlend mode="normal" in="SourceGraphic" in2="effect1_dropShadow" result="shape"/>
</filter>
<filter id="filter12_d" x="447" y="58" width="24" height="24" filterUnits="userSpaceOnUse" color-interpolation-filters="sRGB">
<feFlood flood-opacity="0" result="BackgroundImageFix"/>
<feColorMatrix in="SourceAlpha" type="matrix" values="0 0 0 0 0 0 0 0 0 0 0 0 0 0 0 0 0 0 127 0"/>
<feOffset dy="3"/>
<feGaussianBlur stdDeviation="1.5"/>
<feColorMatrix type="matrix" values="0 0 0 0 0 0 0 0 0 0 0 0 0 0 0 0 0 0 0.5 0"/>
<feBlend mode="normal" in2="BackgroundImageFix" result="effect1_dropShadow"/>
<feBlend mode="normal" in="SourceGraphic" in2="effect1_dropShadow" result="shape"/>
</filter>
<filter id="filter13_d" x="411" y="22" width="24" height="24" filterUnits="userSpaceOnUse" color-interpolation-filters="sRGB">
<feFlood flood-opacity="0" result="BackgroundImageFix"/>
<feColorMatrix in="SourceAlpha" type="matrix" values="0 0 0 0 0 0 0 0 0 0 0 0 0 0 0 0 0 0 127 0"/>
<feOffset dy="3"/>
<feGaussianBlur stdDeviation="1.5"/>
<feColorMatrix type="matrix" values="0 0 0 0 0 0 0 0 0 0 0 0 0 0 0 0 0 0 0.5 0"/>
<feBlend mode="normal" in2="BackgroundImageFix" result="effect1_dropShadow"/>
<feBlend mode="normal" in="SourceGraphic" in2="effect1_dropShadow" result="shape"/>
</filter>
</defs>
</svg>
