<svg width="486" height="176" viewBox="0 0 486 176" fill="none" xmlns="http://www.w3.org/2000/svg">
<path fill-rule="evenodd" clip-rule="evenodd" d="M252 72H270V54H252V72Z" fill="#5C4882"/>
<path fill-rule="evenodd" clip-rule="evenodd" d="M252 90H270V72H252V90Z" fill="#E03854"/>
<path fill-rule="evenodd" clip-rule="evenodd" d="M252 126H270V108H252V126Z" fill="#E03854"/>
<path fill-rule="evenodd" clip-rule="evenodd" d="M234 54H252V36H234V54Z" fill="#FDBC6E"/>
<path fill-rule="evenodd" clip-rule="evenodd" d="M234 90H252V72H234V90Z" fill="#5859C3"/>
<path fill-rule="evenodd" clip-rule="evenodd" d="M234 108H252V90H234V108Z" fill="#5C4882"/>
<path fill-rule="evenodd" clip-rule="evenodd" d="M270 72H288V54H270V72Z" fill="#FDBC6E"/>
<path fill-rule="evenodd" clip-rule="evenodd" d="M270 90H288V72H270V90Z" fill="#5859C3"/>
<path fill-rule="evenodd" clip-rule="evenodd" d="M270 126H288V108H270V126Z" fill="#FDBC6E"/>
<path fill-rule="evenodd" clip-rule="evenodd" d="M288 54H306V36H288V54Z" fill="#5859C3"/>
<path fill-rule="evenodd" clip-rule="evenodd" d="M288 90H306V72H288V90Z" fill="#E03854"/>
<path fill-rule="evenodd" clip-rule="evenodd" d="M288 108H306V90H288V108Z" fill="#E03854"/>
<path fill-rule="evenodd" clip-rule="evenodd" d="M288 144H306V126H288V144Z" fill="#E03854"/>
<path fill-rule="evenodd" clip-rule="evenodd" d="M306 72H324V54H306V72Z" fill="#5859C3"/>
<path fill-rule="evenodd" clip-rule="evenodd" d="M306 108H324V90H306V108Z" fill="#E03854"/>
<path fill-rule="evenodd" clip-rule="evenodd" d="M306 126H324V108H306V126Z" fill="#E03854"/>
<path fill-rule="evenodd" clip-rule="evenodd" d="M306 144H324V126H306V144Z" fill="#FDBC6E"/>
<path fill-rule="evenodd" clip-rule="evenodd" d="M306 162H324V144H306V162Z" fill="#E03854"/>
<path fill-rule="evenodd" clip-rule="evenodd" d="M324 108H342V90H324V108Z" fill="#FDBC6E"/>
<path fill-rule="evenodd" clip-rule="evenodd" d="M324 144H342V126H324V144Z" fill="#FDBC6E"/>
<path fill-rule="evenodd" clip-rule="evenodd" d="M342 54H360V36H342V54Z" fill="#E03854"/>
<path fill-rule="evenodd" clip-rule="evenodd" d="M342 72H360V54H342V72Z" fill="#5859C3"/>
<path fill-rule="evenodd" clip-rule="evenodd" d="M342 90H360V72H342V90Z" fill="#FDBC6E"/>
<path fill-rule="evenodd" clip-rule="evenodd" d="M342 108H360V90H342V108Z" fill="#E03854"/>
<g filter="url(#filter0_d)">
<path fill-rule="evenodd" clip-rule="evenodd" d="M270 108H288V90H270V108Z" fill="#FFC681"/>
</g>
<path fill-rule="evenodd" clip-rule="evenodd" d="M342 126H360V108H342V126Z" fill="#5859C3"/>
<path fill-rule="evenodd" clip-rule="evenodd" d="M360 72H378V54H360V72Z" fill="#5859C3"/>
<path fill-rule="evenodd" clip-rule="evenodd" d="M360 90H378V72H360V90Z" fill="#E03854"/>
<path fill-rule="evenodd" clip-rule="evenodd" d="M360 126H378V108H360V126Z" fill="#E03854"/>
<path fill-rule="evenodd" clip-rule="evenodd" d="M360 144H378V126H360V144Z" fill="#5C4882"/>
<path fill-rule="evenodd" clip-rule="evenodd" d="M360 36H378V18H360V36Z" fill="#FDBC6E"/>
<path fill-rule="evenodd" clip-rule="evenodd" d="M360 54H378V36H360V54Z" fill="#5C4882"/>
<path fill-rule="evenodd" clip-rule="evenodd" d="M378 72H396V54H378V72Z" fill="#E03854"/>
<path fill-rule="evenodd" clip-rule="evenodd" d="M378 90H396V72H378V90Z" fill="#FDBC6E"/>
<path fill-rule="evenodd" clip-rule="evenodd" d="M378 126H396V108H378V126Z" fill="#E03854"/>
<path fill-rule="evenodd" clip-rule="evenodd" d="M396 54H414V36H396V54Z" fill="#5859C3"/>
<path fill-rule="evenodd" clip-rule="evenodd" d="M396 90H414V72H396V90Z" fill="#E03854"/>
<path fill-rule="evenodd" clip-rule="evenodd" d="M396 108H414V90H396V108Z" fill="#FDBC6E"/>
<path fill-rule="evenodd" clip-rule="evenodd" d="M396 126H414V108H396V126Z" fill="#E03854"/>
<path fill-rule="evenodd" clip-rule="evenodd" d="M414 54H432V36H414V54Z" fill="#E03854"/>
<path fill-rule="evenodd" clip-rule="evenodd" d="M414 72H432V54H414V72Z" fill="#5859C3"/>
<path fill-rule="evenodd" clip-rule="evenodd" d="M414 90H432V72H414V90Z" fill="#FDBC6E"/>
<path fill-rule="evenodd" clip-rule="evenodd" d="M414 108H432V90H414V108Z" fill="#5859C3"/>
<path fill-rule="evenodd" clip-rule="evenodd" d="M414 126H432V108H414V126Z" fill="#5C4882"/>
<path fill-rule="evenodd" clip-rule="evenodd" d="M414 144H432V126H414V144Z" fill="#5859C3"/>
<path fill-rule="evenodd" clip-rule="evenodd" d="M396 162H414V144H396V162Z" fill="#FDBC6E"/>
<path fill-rule="evenodd" clip-rule="evenodd" d="M432 72H450V54H432V72Z" fill="#E03854"/>
<path fill-rule="evenodd" clip-rule="evenodd" d="M432 90H450V72H432V90Z" fill="#5859C3"/>
<path fill-rule="evenodd" clip-rule="evenodd" d="M432 108H450V90H432V108Z" fill="#E03854"/>
<path fill-rule="evenodd" clip-rule="evenodd" d="M432 126H450V108H432V126Z" fill="#FDBC6E"/>
<path fill-rule="evenodd" clip-rule="evenodd" d="M431 36H449V18H431V36Z" fill="#5859C3"/>
<path fill-rule="evenodd" clip-rule="evenodd" d="M468 36H486V18H468V36Z" fill="#5C4882"/>
<path fill-rule="evenodd" clip-rule="evenodd" d="M450 54H468V36H450V54Z" fill="#E03854"/>
<path fill-rule="evenodd" clip-rule="evenodd" d="M450 72H468V54H450V72Z" fill="#FDBC6E"/>
<path fill-rule="evenodd" clip-rule="evenodd" d="M450 90H468V72H450V90Z" fill="#5C4882"/>
<path fill-rule="evenodd" clip-rule="evenodd" d="M450 108H468V90H450V108Z" fill="#5C4882"/>
<path fill-rule="evenodd" clip-rule="evenodd" d="M450 144H468V126H450V144Z" fill="#5C4882"/>
<path fill-rule="evenodd" clip-rule="evenodd" d="M468 54H486V36H468V54Z" fill="#FDBC6E"/>
<path fill-rule="evenodd" clip-rule="evenodd" d="M468 72H486V54H468V72Z" fill="#5C4882"/>
<path fill-rule="evenodd" clip-rule="evenodd" d="M468 108H486V90H468V108Z" fill="#FDBC6E"/>
<path fill-rule="evenodd" clip-rule="evenodd" d="M0 90H18V72H0V90Z" fill="#5859C3"/>
<path fill-rule="evenodd" clip-rule="evenodd" d="M18 62H36V44H18V62Z" fill="#FDBC6E"/>
<path fill-rule="evenodd" clip-rule="evenodd" d="M18 108H36V90H18V108Z" fill="#E03854"/>
<path fill-rule="evenodd" clip-rule="evenodd" d="M18 90H36V72H18V90Z" fill="#E03854"/>
<path fill-rule="evenodd" clip-rule="evenodd" d="M54 90H72V72H54V90Z" fill="#5C4882"/>
<path fill-rule="evenodd" clip-rule="evenodd" d="M90 90H108V72H90V90Z" fill="#E03854"/>
<path fill-rule="evenodd" clip-rule="evenodd" d="M90 54H108V36H90V54Z" fill="#5C4882"/>
<path fill-rule="evenodd" clip-rule="evenodd" d="M108 90H126V72H108V90Z" fill="#FDBC6E"/>
<path fill-rule="evenodd" clip-rule="evenodd" d="M108 108H126V90H108V108Z" fill="#FDBC6E"/>
<path fill-rule="evenodd" clip-rule="evenodd" d="M126 54H144V36H126V54Z" fill="#5859C3"/>
<g filter="url(#filter1_d)">
<path fill-rule="evenodd" clip-rule="evenodd" d="M108 72H126V54H108V72Z" fill="#FF405F"/>
</g>
<g filter="url(#filter2_d)">
<path fill-rule="evenodd" clip-rule="evenodd" d="M18 90H36V72H18V90Z" fill="#F4395F"/>
</g>
<path fill-rule="evenodd" clip-rule="evenodd" d="M126 90H144V72H126V90Z" fill="#E03854"/>
<path fill-rule="evenodd" clip-rule="evenodd" d="M144 54H162V36H144V54Z" fill="#E03854"/>
<path fill-rule="evenodd" clip-rule="evenodd" d="M144 72H162V54H144V72Z" fill="#5859C3"/>
<path fill-rule="evenodd" clip-rule="evenodd" d="M144 90H162V72H144V90Z" fill="#FDBC6E"/>
<path fill-rule="evenodd" clip-rule="evenodd" d="M144 108H162V90H144V108Z" fill="#5859C3"/>
<path fill-rule="evenodd" clip-rule="evenodd" d="M162 72H180V54H162V72Z" fill="#E03854"/>
<path fill-rule="evenodd" clip-rule="evenodd" d="M162 108H180V90H162V108Z" fill="#E03854"/>
<path fill-rule="evenodd" clip-rule="evenodd" d="M180 72H198V54H180V72Z" fill="#FDBC6E"/>
<path fill-rule="evenodd" clip-rule="evenodd" d="M180 90H198V72H180V90Z" fill="#5C4882"/>
<path fill-rule="evenodd" clip-rule="evenodd" d="M180 144H198V126H180V144Z" fill="#5C4882"/>
<path fill-rule="evenodd" clip-rule="evenodd" d="M198 72H216V54H198V72Z" fill="#5C4882"/>
<path fill-rule="evenodd" clip-rule="evenodd" d="M198 108H216V90H198V108Z" fill="#FDBC6E"/>
<g filter="url(#filter3_d)">
<path fill-rule="evenodd" clip-rule="evenodd" d="M162 90H180V72H162V90Z" fill="#6B6CDA"/>
</g>
<path fill-rule="evenodd" clip-rule="evenodd" d="M216 72H234V54H216V72Z" fill="#FDBC6E"/>
<path fill-rule="evenodd" clip-rule="evenodd" d="M216 108H234V90H216V108Z" fill="#E03854"/>
<path fill-rule="evenodd" clip-rule="evenodd" d="M216 161H234V143H216V161Z" fill="#FDBC6E"/>
<path fill-rule="evenodd" clip-rule="evenodd" d="M216 126H234V108H216V126Z" fill="#5859C3"/>
<g filter="url(#filter4_d)">
<path fill-rule="evenodd" clip-rule="evenodd" d="M198 54H216V36H198V54Z" fill="#FF405F"/>
</g>
<g filter="url(#filter5_d)">
<path fill-rule="evenodd" clip-rule="evenodd" d="M288 72H306V54H288V72Z" fill="#FFC681"/>
</g>
<g filter="url(#filter6_d)">
<path fill-rule="evenodd" clip-rule="evenodd" d="M360 108H378V90H360V108Z" fill="#745CA1"/>
</g>
<g filter="url(#filter7_d)">
<path fill-rule="evenodd" clip-rule="evenodd" d="M396 126H414V108H396V126Z" fill="#FF405F"/>
</g>
<g filter="url(#filter8_d)">
<path fill-rule="evenodd" clip-rule="evenodd" d="M450 90H468V72H450V90Z" fill="#745CA1"/>
</g>
<g filter="url(#filter9_d)">
<path fill-rule="evenodd" clip-rule="evenodd" d="M414 54H432V36H414V54Z" fill="#FF405F"/>
</g>
<defs>
<filter id="filter0_d" x="267" y="90" width="24" height="24" filterUnits="userSpaceOnUse" color-interpolation-filters="sRGB">
<feFlood flood-opacity="0" result="BackgroundImageFix"/>
<feColorMatrix in="SourceAlpha" type="matrix" values="0 0 0 0 0 0 0 0 0 0 0 0 0 0 0 0 0 0 127 0"/>
<feOffset dy="3"/>
<feGaussianBlur stdDeviation="1.5"/>
<feColorMatrix type="matrix" values="0 0 0 0 0 0 0 0 0 0 0 0 0 0 0 0 0 0 0.5 0"/>
<feBlend mode="normal" in2="BackgroundImageFix" result="effect1_dropShadow"/>
<feBlend mode="normal" in="SourceGraphic" in2="effect1_dropShadow" result="shape"/>
</filter>
<filter id="filter1_d" x="105" y="54" width="24" height="24" filterUnits="userSpaceOnUse" color-interpolation-filters="sRGB">
<feFlood flood-opacity="0" result="BackgroundImageFix"/>
<feColorMatrix in="SourceAlpha" type="matrix" values="0 0 0 0 0 0 0 0 0 0 0 0 0 0 0 0 0 0 127 0"/>
<feOffset dy="3"/>
<feGaussianBlur stdDeviation="1.5"/>
<feColorMatrix type="matrix" values="0 0 0 0 0 0 0 0 0 0 0 0 0 0 0 0 0 0 0.5 0"/>
<feBlend mode="normal" in2="BackgroundImageFix" result="effect1_dropShadow"/>
<feBlend mode="normal" in="SourceGraphic" in2="effect1_dropShadow" result="shape"/>
</filter>
<filter id="filter2_d" x="15" y="72" width="24" height="24" filterUnits="userSpaceOnUse" color-interpolation-filters="sRGB">
<feFlood flood-opacity="0" result="BackgroundImageFix"/>
<feColorMatrix in="SourceAlpha" type="matrix" values="0 0 0 0 0 0 0 0 0 0 0 0 0 0 0 0 0 0 127 0"/>
<feOffset dy="3"/>
<feGaussianBlur stdDeviation="1.5"/>
<feColorMatrix type="matrix" values="0 0 0 0 0 0 0 0 0 0 0 0 0 0 0 0 0 0 0.5 0"/>
<feBlend mode="normal" in2="BackgroundImageFix" result="effect1_dropShadow"/>
<feBlend mode="normal" in="SourceGraphic" in2="effect1_dropShadow" result="shape"/>
</filter>
<filter id="filter3_d" x="159" y="72" width="24" height="24" filterUnits="userSpaceOnUse" color-interpolation-filters="sRGB">
<feFlood flood-opacity="0" result="BackgroundImageFix"/>
<feColorMatrix in="SourceAlpha" type="matrix" values="0 0 0 0 0 0 0 0 0 0 0 0 0 0 0 0 0 0 127 0"/>
<feOffset dy="3"/>
<feGaussianBlur stdDeviation="1.5"/>
<feColorMatrix type="matrix" values="0 0 0 0 0 0 0 0 0 0 0 0 0 0 0 0 0 0 0.5 0"/>
<feBlend mode="normal" in2="BackgroundImageFix" result="effect1_dropShadow"/>
<feBlend mode="normal" in="SourceGraphic" in2="effect1_dropShadow" result="shape"/>
</filter>
<filter id="filter4_d" x="195" y="36" width="24" height="24" filterUnits="userSpaceOnUse" color-interpolation-filters="sRGB">
<feFlood flood-opacity="0" result="BackgroundImageFix"/>
<feColorMatrix in="SourceAlpha" type="matrix" values="0 0 0 0 0 0 0 0 0 0 0 0 0 0 0 0 0 0 127 0"/>
<feOffset dy="3"/>
<feGaussianBlur stdDeviation="1.5"/>
<feColorMatrix type="matrix" values="0 0 0 0 0 0 0 0 0 0 0 0 0 0 0 0 0 0 0.5 0"/>
<feBlend mode="normal" in2="BackgroundImageFix" result="effect1_dropShadow"/>
<feBlend mode="normal" in="SourceGraphic" in2="effect1_dropShadow" result="shape"/>
</filter>
<filter id="filter5_d" x="285" y="54" width="24" height="24" filterUnits="userSpaceOnUse" color-interpolation-filters="sRGB">
<feFlood flood-opacity="0" result="BackgroundImageFix"/>
<feColorMatrix in="SourceAlpha" type="matrix" values="0 0 0 0 0 0 0 0 0 0 0 0 0 0 0 0 0 0 127 0"/>
<feOffset dy="3"/>
<feGaussianBlur stdDeviation="1.5"/>
<feColorMatrix type="matrix" values="0 0 0 0 0 0 0 0 0 0 0 0 0 0 0 0 0 0 0.5 0"/>
<feBlend mode="normal" in2="BackgroundImageFix" result="effect1_dropShadow"/>
<feBlend mode="normal" in="SourceGraphic" in2="effect1_dropShadow" result="shape"/>
</filter>
<filter id="filter6_d" x="357" y="90" width="24" height="24" filterUnits="userSpaceOnUse" color-interpolation-filters="sRGB">
<feFlood flood-opacity="0" result="BackgroundImageFix"/>
<feColorMatrix in="SourceAlpha" type="matrix" values="0 0 0 0 0 0 0 0 0 0 0 0 0 0 0 0 0 0 127 0"/>
<feOffset dy="3"/>
<feGaussianBlur stdDeviation="1.5"/>
<feColorMatrix type="matrix" values="0 0 0 0 0 0 0 0 0 0 0 0 0 0 0 0 0 0 0.5 0"/>
<feBlend mode="normal" in2="BackgroundImageFix" result="effect1_dropShadow"/>
<feBlend mode="normal" in="SourceGraphic" in2="effect1_dropShadow" result="shape"/>
</filter>
<filter id="filter7_d" x="393" y="108" width="24" height="24" filterUnits="userSpaceOnUse" color-interpolation-filters="sRGB">
<feFlood flood-opacity="0" result="BackgroundImageFix"/>
<feColorMatrix in="SourceAlpha" type="matrix" values="0 0 0 0 0 0 0 0 0 0 0 0 0 0 0 0 0 0 127 0"/>
<feOffset dy="3"/>
<feGaussianBlur stdDeviation="1.5"/>
<feColorMatrix type="matrix" values="0 0 0 0 0 0 0 0 0 0 0 0 0 0 0 0 0 0 0.5 0"/>
<feBlend mode="normal" in2="BackgroundImageFix" result="effect1_dropShadow"/>
<feBlend mode="normal" in="SourceGraphic" in2="effect1_dropShadow" result="shape"/>
</filter>
<filter id="filter8_d" x="447" y="72" width="24" height="24" filterUnits="userSpaceOnUse" color-interpolation-filters="sRGB">
<feFlood flood-opacity="0" result="BackgroundImageFix"/>
<feColorMatrix in="SourceAlpha" type="matrix" values="0 0 0 0 0 0 0 0 0 0 0 0 0 0 0 0 0 0 127 0"/>
<feOffset dy="3"/>
<feGaussianBlur stdDeviation="1.5"/>
<feColorMatrix type="matrix" values="0 0 0 0 0 0 0 0 0 0 0 0 0 0 0 0 0 0 0.5 0"/>
<feBlend mode="normal" in2="BackgroundImageFix" result="effect1_dropShadow"/>
<feBlend mode="normal" in="SourceGraphic" in2="effect1_dropShadow" result="shape"/>
</filter>
<filter id="filter9_d" x="411" y="36" width="24" height="24" filterUnits="userSpaceOnUse" color-interpolation-filters="sRGB">
<feFlood flood-opacity="0" result="BackgroundImageFix"/>
<feColorMatrix in="SourceAlpha" type="matrix" values="0 0 0 0 0 0 0 0 0 0 0 0 0 0 0 0 0 0 127 0"/>
<feOffset dy="3"/>
<feGaussianBlur stdDeviation="1.5"/>
<feColorMatrix type="matrix" values="0 0 0 0 0 0 0 0 0 0 0 0 0 0 0 0 0 0 0.5 0"/>
<feBlend mode="normal" in2="BackgroundImageFix" result="effect1_dropShadow"/>
<feBlend mode="normal" in="SourceGraphic" in2="effect1_dropShadow" result="shape"/>
</filter>
</defs>
</svg>
