<svg width="22" height="43" viewBox="0 0 22 43" fill="none" xmlns="http://www.w3.org/2000/svg">
<path fill-rule="evenodd" clip-rule="evenodd" d="M2.00693 42C1.78398 42 1.56103 41.9153 1.39057 41.7456C1.05019 41.4061 1.05019 40.8557 1.39057 40.5163L18.4536 23.5013C18.9718 22.9846 19.257 22.2982 19.257 21.5676C19.257 20.8366 18.9718 20.15 18.4536 19.6336L1.25528 2.48362C0.914905 2.1442 0.914905 1.59378 1.25528 1.25436C1.59566 0.915212 2.14763 0.915212 2.48801 1.25436L19.6861 18.4043C20.5335 19.2493 21 20.3726 21 21.5676C21 22.7623 20.5335 23.8855 19.6861 24.7305L2.6233 41.7456C2.45284 41.9153 2.22988 42 2.00693 42Z" fill="#1D1D1B"/>
<path d="M2.00693 42C1.78398 42 1.56103 41.9153 1.39057 41.7456C1.05019 41.4061 1.05019 40.8557 1.39057 40.5163L18.4536 23.5013C18.9718 22.9846 19.257 22.2982 19.257 21.5676C19.257 20.8366 18.9718 20.15 18.4536 19.6336L1.25528 2.48362C0.914905 2.1442 0.914905 1.59378 1.25528 1.25436C1.59566 0.915212 2.14763 0.915212 2.48801 1.25436L19.6861 18.4043C20.5335 19.2493 21 20.3726 21 21.5676C21 22.7623 20.5335 23.8855 19.6861 24.7305L2.6233 41.7456C2.45284 41.9153 2.22988 42 2.00693 42" stroke="black"/>
</svg>
