<svg width="683" height="99" viewBox="0 0 683 99" fill="none" xmlns="http://www.w3.org/2000/svg">
    <rect x="498" y="79" width="20" height="20" fill="black"/>
    <rect x="458" y="79" width="20" height="20" fill="black"/>
    <rect x="439" y="79" width="20" height="20" fill="black"/>
    <rect x="478" y="59" width="20" height="20" fill="black"/>
    <rect x="439" y="60" width="20" height="20" fill="black"/>
    <rect x="420" y="40" width="20" height="20" fill="black"/>
    <rect x="420" y="79" width="20" height="20" fill="black"/>
    <rect x="340" y="79" width="20" height="20" fill="black"/>
    <rect x="360" y="79" width="20" height="20" fill="black"/>
    <rect x="380" y="79" width="20" height="20" fill="black"/>
    <rect x="400" y="60" width="20" height="20" fill="black"/>
    <rect x="380" y="40" width="20" height="20" fill="black"/>
    <rect x="360" y="59" width="20" height="20" fill="black"/>
    <rect x="320" y="59" width="20" height="20" fill="black"/>
    <rect x="300" y="79" width="20" height="20" fill="black"/>
    <rect x="260" y="79" width="20" height="20" fill="black"/>
    <rect x="280" y="79" width="20" height="20" fill="black"/>
    <rect x="280" y="59" width="20" height="20" fill="black"/>
    <rect x="240" y="59" width="20" height="20" fill="black"/>
    <rect x="220" y="59" width="20" height="20" fill="black"/>
    <rect x="220" y="79" width="20" height="20" fill="black"/>
    <rect x="240" y="79" width="20" height="20" fill="black"/>
    <rect x="180" y="79" width="20" height="20" fill="black"/>
    <rect x="200" y="59" width="20" height="20" fill="black"/>
    <rect x="180" y="59" width="20" height="20" fill="black"/>
    <rect x="160" y="59" width="20" height="20" fill="black"/>
    <rect x="340" y="40" width="20" height="20" fill="black"/>
    <rect x="360" y="39" width="20" height="20" fill="black"/>
    <rect x="360" y="19" width="20" height="20" fill="black"/>
    <rect x="320" y="20" width="20" height="20" fill="black"/>
    <rect x="300" y="39" width="20" height="20" fill="black"/>
    <rect x="320" y="39" width="20" height="20" fill="black"/>
    <rect x="260" y="39" width="20" height="20" fill="black"/>
    <rect x="280" y="39" width="20" height="20" fill="black"/>
    <rect x="280" y="20" width="20" height="20" fill="black"/>
    <rect x="260" y="20" width="20" height="20" fill="black"/>
    <rect x="220" y="39" width="20" height="20" fill="black"/>
    <rect x="240" y="39" width="20" height="20" fill="black"/>
    <rect x="180" y="39" width="20" height="20" fill="black"/>
    <rect x="200" y="20" width="20" height="20" fill="black"/>
    <rect x="180" y="20" width="20" height="20" fill="black"/>
    <rect x="140" y="59" width="20" height="20" fill="black"/>
    <rect x="140" y="79" width="20" height="20" fill="black"/>
    <rect x="160" y="39" width="20" height="20" fill="black"/>
    <rect x="140" y="20" width="20" height="20" fill="black"/>
    <rect x="120" y="59" width="20" height="20" fill="black"/>
    <rect x="120" y="79" width="20" height="20" fill="black"/>
    <rect x="120" y="20" width="20" height="20" fill="black"/>
    <rect x="120" width="20" height="20" fill="black"/>
    <rect x="100" y="59" width="20" height="20" fill="black"/>
    <rect x="120" y="39" width="20" height="20" fill="black"/>
    <rect x="80" y="59" width="20" height="20" fill="black"/>
    <rect x="80" y="79" width="20" height="20" fill="black"/>
    <rect x="100" y="39" width="20" height="20" fill="black"/>
    <rect x="80" y="20" width="20" height="20" fill="black"/>
    <rect x="100" width="20" height="20" fill="black"/>
    <rect x="80" y="40" width="20" height="20" fill="black"/>
    <rect x="60" y="79" width="20" height="20" fill="black"/>
    <rect x="60" y="20" width="20" height="20" fill="black"/>
    <rect x="60" y="40" width="20" height="20" fill="black"/>
    <rect x="40" y="59" width="20" height="20" fill="black"/>
    <rect x="40" y="79" width="20" height="20" fill="black"/>
    <rect x="40" y="20" width="20" height="20" fill="black"/>
    <rect x="40" width="20" height="20" fill="black"/>
    <rect x="40" y="40" width="20" height="20" fill="black"/>
    <rect x="20" y="59" width="20" height="20" fill="black"/>
    <rect x="20" y="79" width="20" height="20" fill="black"/>
    <rect x="20" y="20" width="20" height="20" fill="black"/>
    <rect y="79" width="20" height="20" fill="black"/>
    <rect y="20" width="20" height="20" fill="black"/>
    <rect width="20" height="20" fill="black"/>
    <rect y="40" width="20" height="20" fill="black"/>
    <rect x="683" y="99" width="20" height="20" transform="rotate(180 683 99)" fill="black"/>
    <rect x="641" y="99" width="20" height="20" transform="rotate(180 641 99)" fill="black"/>
    <rect x="622" y="99" width="20" height="20" transform="rotate(180 622 99)" fill="black"/>
    <rect x="581" y="99" width="20" height="20" transform="rotate(180 581 99)" fill="black"/>
    <rect x="562" y="99" width="20" height="20" transform="rotate(180 562 99)" fill="black"/>
    <rect x="542" y="79" width="20" height="20" transform="rotate(180 542 79)" fill="black"/>
</svg>
