<svg width="76" height="124" viewBox="0 0 76 124" fill="none" xmlns="http://www.w3.org/2000/svg">
<path fill-rule="evenodd" clip-rule="evenodd" d="M69.5493 47.392C68.9606 49.3213 68.1873 51.2113 67.2513 53.0093C64.3873 58.508 62.5853 63.912 60.6766 69.6333L60.0319 71.5633C59.6833 72.6013 58.1946 75.7866 57.2339 77.7673C56.0379 79.53 55.5106 80.032 54.8666 80.4113C53.7673 81.0586 52.1606 81.6606 50.2439 82.2246C36.4839 82.8833 21.1466 83.1346 18.8506 82.428C17.5906 81.6466 17.4833 81.2093 16.9506 79.0326C16.8526 78.6353 16.7473 78.204 16.6233 77.7333C16.4626 77.0813 16.2839 76.36 16.0786 75.546C16.0733 75.526 16.0673 75.5053 16.0619 75.4853C15.8739 74.8233 15.6839 74.1326 15.4886 73.4213C15.1573 72.214 14.8139 70.9653 14.4346 69.69C12.4939 63.1713 11.1519 58.8886 8.15394 53.2293C5.60461 48.4173 4.26994 42.9746 4.29528 37.4893C4.37794 19.4506 19.1159 4.56063 37.1479 4.29863C46.1613 4.16863 54.6459 7.57397 61.0553 13.8913C67.4653 20.2093 70.9966 28.646 70.9966 37.646C70.9966 40.9673 70.5093 44.2466 69.5493 47.392ZM54.8452 104.112C52.9605 105.251 49.8932 106.446 45.8719 107.883C45.6412 107.84 45.4032 107.815 45.1599 107.815H31.5352C30.9759 107.815 30.4459 107.937 29.9659 108.153C29.9359 108.153 29.9072 108.145 29.8765 108.145C27.6912 108.177 25.4472 108.081 23.6299 107.905C26.5392 107.223 30.6592 106.512 34.0052 105.934C41.3452 104.667 49.5092 103.256 54.5692 101.233C55.5645 101.583 56.5319 102.104 56.8292 102.473C56.7006 102.69 56.2579 103.258 54.8452 104.112ZM44.7034 113.086C44.7034 116.591 41.8527 119.443 38.3474 119.443C34.8421 119.443 31.9907 116.591 31.9907 113.086V112.109H44.7034V113.086ZM20.032 88.5173C19.9686 88.3559 19.9053 88.1959 19.842 88.0333L19.6753 87.6086C19.5726 87.3453 19.4753 87.0939 19.382 86.8519C20.6633 86.9939 22.6173 87.1026 25.6673 87.1359C23.23 87.6226 21.3986 88.0593 20.032 88.5173ZM56.8293 94.7113C56.7006 94.9286 56.258 95.4959 54.8453 96.3506C51.0773 98.6273 41.206 100.332 33.2746 101.701C27.0713 102.773 23.082 103.511 20.5266 104.292C19.9886 103.367 19.4866 102.089 20.1646 101.254C20.282 101.17 20.4486 101.083 20.6566 100.993C20.7553 100.963 20.85 100.923 20.944 100.879C23.2906 100.002 29.3853 98.9486 34.0053 98.1512C41.332 96.8859 49.4793 95.4779 54.5413 93.4619C55.5466 93.8106 56.5293 94.3386 56.8293 94.7113ZM56.8293 86.9286C56.7006 87.1453 56.258 87.7133 54.8453 88.5673C51.0773 90.8439 41.206 92.5486 33.2746 93.9186C27.302 94.9499 23.38 95.6726 20.816 96.4219C20.1726 95.4219 19.476 93.9673 20.166 93.1093C21.4666 92.1619 28.7966 90.8839 34.1613 89.9486C41.4953 88.6706 49.0313 87.3566 54.0013 85.5093C55.1733 85.8306 56.4753 86.4893 56.8293 86.9286ZM64.0693 10.8319C56.8346 3.70125 47.258 -0.141418 37.086 0.00391546C16.73 0.299915 0.0932939 17.1073 0.000627244 37.4699C-0.0273728 43.6599 1.47996 49.8046 4.35863 55.2399C7.17263 60.5512 8.39663 64.4612 10.318 70.9152C10.6846 72.1472 11.022 73.3733 11.3473 74.5592C11.5426 75.2712 11.7333 75.9639 11.922 76.6279C12.188 77.6839 12.4093 78.5826 12.6046 79.3766C13.5206 83.0959 13.8993 84.6352 15.676 89.1739L15.842 89.5973C16.028 90.0726 16.2126 90.5439 16.3966 91.0106C14.87 93.4479 15.688 96.2759 16.9553 98.3999C14.71 100.979 15.512 104.167 16.7786 106.413C16.0906 107.343 15.936 108.441 16.3813 109.411C16.7573 110.23 17.7153 112.317 27.696 112.443V113.086C27.696 118.959 32.4746 123.737 38.3473 123.737C44.2206 123.737 48.9986 118.959 48.9986 113.086V111.654C48.9986 111.543 48.9913 111.434 48.982 111.326C52.516 110.032 55.158 108.941 57.0666 107.788C60.0693 105.974 61.4346 103.984 61.1246 101.875C60.922 100.493 60.0206 99.4466 58.9606 98.6746C60.6313 97.2393 61.3593 95.7106 61.1246 94.1133C60.9213 92.7253 60.012 91.6759 58.9473 90.9033C60.6266 89.4639 61.36 87.9319 61.1246 86.3306C60.9006 84.8046 59.8253 83.6886 58.626 82.8999C59.388 82.1579 60.0753 81.2386 60.88 80.0446C60.9086 80.0019 60.926 79.9546 60.952 79.9099C60.9773 79.8666 61.008 79.8292 61.0306 79.7832C61.286 79.2566 63.5453 74.5919 64.1033 72.9306L64.7513 70.9919C66.6033 65.4366 68.3533 60.1899 71.0606 54.9926C72.1186 52.9612 72.992 50.8259 73.6573 48.6459C74.7413 45.0939 75.2913 41.3926 75.2913 37.6459C75.2913 27.4866 71.306 17.9639 64.0693 10.8319Z" fill="#F4395F"/>
</svg>
