<svg width="18" height="24" viewBox="0 0 18 24" fill="none" xmlns="http://www.w3.org/2000/svg">
<path fill-rule="evenodd" clip-rule="evenodd" d="M9.77078 21.2093C9.38494 21.6942 9.04055 22.1271 8.74352 22.5146C8.4468 22.1276 8.10241 21.6948 7.71657 21.2098C5.1748 18.0148 0.920812 12.6677 1.02907 8.31351L1.02923 8.3025C1.02923 6.38479 1.83264 4.57913 3.29135 3.21842C4.75037 1.85711 6.6866 1.10756 8.74352 1.10756C12.9959 1.10756 16.4564 4.33628 16.4576 8.30503L16.4578 8.31574C16.5646 12.669 12.3118 18.0151 9.77078 21.2093ZM17.4849 8.29937C17.4804 3.80443 13.5603 0.148926 8.74352 0.148926C6.41236 0.148926 4.21817 0.998182 2.56526 2.54029C0.913797 4.08077 0.00356118 6.12527 0.00212624 8.29699C-0.110438 12.979 4.27269 18.489 6.89179 21.7814C7.37824 22.3925 7.79804 22.9204 8.13287 23.369C8.27174 23.5555 8.50005 23.6669 8.74352 23.6669C8.98682 23.6669 9.21498 23.5556 9.35401 23.3693C9.68979 22.9192 10.1094 22.3916 10.5954 21.7809C13.2142 18.4891 17.5964 12.9808 17.4849 8.29937Z" fill="white"/>
<path fill-rule="evenodd" clip-rule="evenodd" d="M8.74343 12.0357C6.43492 12.0357 4.55705 10.2829 4.55705 8.12831C4.55705 5.9737 6.43492 4.22087 8.74343 4.22087C11.0519 4.22087 12.93 5.9737 12.93 8.12831C12.93 10.2829 11.0519 12.0357 8.74343 12.0357ZM8.74343 3.26224C5.86859 3.26224 3.52979 5.44512 3.52979 8.12831C3.52979 10.8113 5.86859 12.9944 8.74343 12.9944C11.6183 12.9944 13.9571 10.8113 13.9571 8.12831C13.9571 5.44512 11.6183 3.26224 8.74343 3.26224Z" fill="white"/>
</svg>
