<svg width="128" height="125" viewBox="0 0 128 125" fill="none" xmlns="http://www.w3.org/2000/svg">
<path fill-rule="evenodd" clip-rule="evenodd" d="M119.718 20.9512L114.306 26.3624L108.015 20.072L101.724 13.7809L107.135 8.3696C110.604 4.90057 116.249 4.90057 119.718 8.3696C123.186 11.8379 123.186 17.4821 119.718 20.9512ZM108.182 119.372H9.89602C7.16203 119.372 4.93774 117.148 4.93774 114.414V16.1277C4.93774 13.3937 7.16203 11.1694 9.89602 11.1694H97.3522L96.4869 12.0348L42.7491 65.7726C42.7338 65.7886 42.723 65.807 42.7077 65.8231C42.6456 65.8883 42.592 65.9603 42.5376 66.0324C42.4908 66.0937 42.4433 66.1535 42.4027 66.2171C42.3628 66.2807 42.3314 66.3497 42.2969 66.4171C42.257 66.4992 42.2156 66.5796 42.185 66.6647C42.1773 66.6854 42.1643 66.703 42.1581 66.7237L33.8811 91.0736C33.8726 91.0974 33.8719 91.1211 33.8642 91.1449C33.8382 91.2308 33.8213 91.3189 33.8037 91.407C33.7899 91.4799 33.7738 91.5519 33.7661 91.6255C33.7584 91.706 33.7607 91.7864 33.7607 91.8685C33.7607 91.9505 33.7584 92.0309 33.7661 92.1122C33.7738 92.185 33.7899 92.257 33.8037 92.3299C33.8213 92.4188 33.8382 92.5061 33.8642 92.592C33.8719 92.6158 33.8726 92.6395 33.8811 92.6633C33.9041 92.7323 33.937 92.7951 33.9662 92.8603C33.9853 92.9032 33.9999 92.9469 34.0206 92.9875C34.1562 93.2542 34.3364 93.4865 34.5471 93.6811C34.5809 93.7118 34.6176 93.7394 34.6529 93.7685C34.7326 93.8344 34.8162 93.895 34.9028 93.9502C34.9442 93.977 34.9863 94.0023 35.0308 94.0268C35.1373 94.0851 35.2485 94.1357 35.3627 94.1786C35.3849 94.1862 35.4025 94.1985 35.4232 94.2062C35.4301 94.2085 35.437 94.2092 35.4439 94.2108C35.542 94.2437 35.6432 94.2667 35.7444 94.2867C35.7727 94.292 35.8003 94.302 35.8279 94.3066C35.9567 94.3265 36.087 94.338 36.2188 94.338C36.3499 94.338 36.4802 94.3265 36.6082 94.3066C36.6365 94.302 36.6649 94.292 36.6932 94.2859C36.7952 94.266 36.8948 94.2437 36.9929 94.2108C36.9998 94.2092 37.0067 94.2085 37.0129 94.2062L61.3628 85.9291C61.388 85.9207 61.4095 85.9061 61.434 85.8969C61.5145 85.8662 61.5919 85.8287 61.6693 85.7896C61.7399 85.7543 61.8111 85.7199 61.8778 85.6785C61.943 85.6378 62.0028 85.5896 62.0641 85.5428C62.1323 85.4907 62.2005 85.4393 62.2618 85.3811C62.2787 85.365 62.2978 85.3535 62.3139 85.3374L113.141 34.5107V114.414C113.141 117.148 110.917 119.372 108.182 119.372ZM45.5552 72.0707L56.0167 82.5314L40.1692 87.9182L45.5552 72.0707ZM110.814 29.8544L60.5686 80.1001L47.9863 67.5185L98.2328 17.272L104.524 23.5632L110.814 29.8544ZM123.21 4.8775C117.815 -0.516132 109.038 -0.516132 103.644 4.8775L102.29 6.23184H9.89586C4.43938 6.23184 0 10.6712 0 16.1277V114.414C0 119.871 4.43938 124.311 9.89586 124.311H108.182C113.639 124.311 118.078 119.871 118.078 114.414V29.5738L123.21 24.4431C128.603 19.0487 128.603 10.2719 123.21 4.8775Z" fill="#5C4882"/>
</svg>
