<svg width="93" height="124" viewBox="0 0 93 124" fill="none" xmlns="http://www.w3.org/2000/svg">
<path fill-rule="evenodd" clip-rule="evenodd" d="M85.4463 99.4745C85.4172 99.5939 85.3429 99.6602 85.2852 99.6954C85.2275 99.7299 85.134 99.765 85.0166 99.7358C80.483 98.6185 71.366 96.7439 61.2418 96.7439C59.1603 96.7439 57.3958 97.4249 56.1372 98.7126C55.2454 99.6264 54.1964 101.307 54.2627 104.126C54.3164 106.404 55.1532 107.722 55.8256 108.782C56.4224 109.722 56.8163 110.343 56.8163 111.796C56.8163 115.48 52.5837 119.424 46.2829 119.424C40.6717 119.424 35.7489 115.86 35.7489 111.796C35.7489 110.343 36.1427 109.722 36.7395 108.782C37.4126 107.722 38.2488 106.404 38.3031 104.125C38.3694 101.307 37.3198 99.6264 36.4279 98.7126C35.1879 97.4435 33.3756 96.7439 31.3247 96.7439C21.1991 96.7439 12.0828 98.6185 7.54914 99.7358C7.43244 99.765 7.33828 99.7299 7.28059 99.6954C7.2229 99.6602 7.14797 99.5939 7.11879 99.4745C6.05584 95.1412 4.27209 86.434 4.27209 76.8064C4.27209 76.1765 4.39013 75.3098 4.95376 74.7594C5.42788 74.2959 6.21233 74.0751 7.28059 74.0983C8.37271 74.1248 8.8906 74.4537 9.74931 74.9981C10.8494 75.6971 12.3573 76.6539 15.0521 76.6539C21.5028 76.6539 26.9528 69.8737 26.9528 61.8482C26.9528 53.6847 21.6142 47.0424 15.0521 47.0424C12.3573 47.0424 10.8494 47.9993 9.74931 48.6982C8.8906 49.2433 8.37271 49.5715 7.28059 49.5974C6.20835 49.6232 5.42788 49.4004 4.95376 48.9376C4.39013 48.3872 4.27209 47.5199 4.27209 46.8899C4.27209 37.2617 6.05584 28.5545 7.11879 24.2218C7.14797 24.1024 7.2229 24.0361 7.28059 24.001C7.33828 23.9665 7.43111 23.9314 7.54914 23.9605C12.0828 25.0779 21.1991 26.9525 31.324 26.9525C33.3756 26.9525 35.1879 26.2535 36.4279 24.9837C37.3198 24.07 38.3694 22.3897 38.3031 19.5708C38.2488 17.2924 37.4126 15.9741 36.7395 14.9145C36.1427 13.9749 35.7489 13.3536 35.7489 11.9C35.7489 7.83656 40.6711 4.27173 46.2822 4.27173C52.583 4.27173 56.8163 8.21586 56.8163 11.9C56.8163 13.3536 56.4224 13.9749 55.8256 14.9145C55.1532 15.9741 54.3164 17.2924 54.2627 19.5708C54.1964 22.3897 55.2454 24.07 56.1372 24.9837C57.3952 26.2708 59.1583 26.9518 61.2385 26.9525H61.2411C71.366 26.9525 80.483 25.0779 85.016 23.9605C85.1347 23.9307 85.2269 23.9665 85.2852 24.001C85.3429 24.0361 85.4172 24.1024 85.4463 24.2218C86.51 28.5552 88.2937 37.2637 88.2937 46.8893C88.2937 47.5199 88.175 48.3872 87.6114 48.9376C87.1372 49.4004 86.3568 49.6219 85.2852 49.5974C84.1924 49.5715 83.6745 49.2433 82.8165 48.6982C81.7157 47.9993 80.2078 47.0424 77.513 47.0424C70.9516 47.0424 65.613 53.6841 65.613 61.8475C65.613 69.8737 71.063 76.6539 77.513 76.6539C80.2078 76.6539 81.7157 75.6971 82.8165 74.9981C83.6745 74.4537 84.1924 74.1248 85.2852 74.0983C86.3568 74.0751 87.1373 74.2959 87.612 74.7594C88.175 75.3098 88.2937 76.1758 88.2937 76.8064C88.2937 86.4333 86.51 95.1405 85.4463 99.4745ZM85.1844 69.8286C82.9053 69.8823 81.5864 70.7191 80.5274 71.3915C79.5872 71.9876 78.9665 72.3822 77.513 72.3822C73.4495 72.3822 69.8853 67.46 69.8853 61.8481C69.8853 55.5474 73.8288 51.3148 77.513 51.3148C78.9665 51.3148 79.5872 51.7087 80.5274 52.3048C81.5864 52.9772 82.9053 53.8147 85.1844 53.8684C88.0019 53.9373 89.6835 52.8857 90.5966 51.9938C91.8665 50.7531 92.5654 48.9409 92.5654 46.8899C92.5654 36.8141 90.7047 27.7249 89.5953 23.2033C89.3003 22.0017 88.5556 20.9878 87.4979 20.3473C86.4396 19.7061 85.1957 19.5164 83.9941 19.8121C79.6488 20.8837 70.9144 22.6801 61.2418 22.6801C60.6105 22.6801 59.7438 22.562 59.1935 21.9991C58.7299 21.5243 58.5085 20.7412 58.533 19.6722C58.5589 18.5794 58.8878 18.0622 59.4328 17.2035C60.1311 16.1028 61.0886 14.5949 61.0886 11.9C61.0886 5.33863 54.447 0 46.2829 0C38.2573 0 31.4771 5.44937 31.4771 11.9C31.4771 14.5949 32.434 16.1028 33.1329 17.2035C33.6773 18.0616 34.0062 18.5794 34.0321 19.6722C34.0573 20.7418 33.8351 21.5243 33.3716 21.9991C32.8212 22.562 31.9546 22.6801 31.3246 22.6801C21.6506 22.6801 12.9169 20.8837 8.57162 19.8121C7.37008 19.5164 6.12544 19.7061 5.06779 20.3473C4.00948 20.9878 3.26482 22.0024 2.9704 23.2039C1.86103 27.7243 0.000366211 36.8121 0.000366211 46.8892C0.000366211 48.9409 0.699275 50.7531 1.96845 51.9938C2.88221 52.8857 4.56449 53.938 7.38069 53.8684C9.65977 53.8147 10.9787 52.9772 12.0383 52.3048C12.9779 51.7087 13.5986 51.3148 15.0521 51.3148C18.7363 51.3148 22.6804 55.5467 22.6804 61.8475C22.6804 67.4593 19.1156 72.3822 15.0521 72.3822C13.5986 72.3822 12.9779 71.9876 12.0383 71.3915C10.9787 70.7191 9.65977 69.8823 7.38069 69.8286C4.56582 69.7596 2.88221 70.8106 1.96845 71.7032C0.699275 72.9425 0.000366211 74.7554 0.000366211 76.8064C0.000366211 86.8836 1.86103 95.972 2.9704 100.493C3.26482 101.695 4.00948 102.708 5.06779 103.349C6.12544 103.99 7.37008 104.18 8.57162 103.883C12.9169 102.813 21.6506 101.016 31.324 101.016C31.9546 101.016 32.8212 101.134 33.3716 101.698C33.8351 102.172 34.0573 102.955 34.0321 104.024C34.0062 105.116 33.6773 105.635 33.1329 106.493C32.434 107.594 31.4771 109.101 31.4771 111.796C31.4771 118.247 38.2567 123.696 46.2822 123.696C54.4463 123.696 61.0886 118.358 61.0886 111.796C61.0886 109.101 60.1311 107.594 59.4328 106.493C58.8878 105.635 58.5589 105.116 58.533 104.024C58.5085 102.955 58.7299 102.172 59.1935 101.698C59.7438 101.134 60.6105 101.016 61.2411 101.016C70.9144 101.016 79.6488 102.813 83.9941 103.883C85.195 104.18 86.4396 103.99 87.4979 103.349C88.5556 102.708 89.3003 101.695 89.5953 100.493C90.7047 95.9714 92.5654 86.8822 92.5654 76.8064C92.5654 74.7554 91.8665 72.9432 90.5966 71.7032C89.6835 70.8106 88.0019 69.7596 85.1844 69.8286Z" fill="#F4395F"/>
</svg>
