<?xml version="1.0" encoding="UTF-8"?>
<svg width="41px" height="42px" viewBox="0 0 41 42" version="1.1" xmlns="http://www.w3.org/2000/svg" xmlns:xlink="http://www.w3.org/1999/xlink">
    <!-- Generator: Sketch 52.2 (67145) - http://www.bohemiancoding.com/sketch -->
    <title>icone-suivant</title>
    <desc>Created with Sketch.</desc>
    <g id="Page-1" stroke="none" stroke-width="1" fill="none" fill-rule="evenodd">
        <g id="icone-suivant" transform="translate(1.000000, 1.000000)">
            <path d="M19.5092,40 C30.2839,40 39.0184,31.0457 39.0184,20 C39.0184,8.9543 30.2839,0 19.5092,0 C8.73458,0 0,8.9543 0,20 C0,31.0457 8.73458,40 19.5092,40 Z" id="Path" stroke="#000000" stroke-width="2" fill="#000000"></path>
            <path d="M15.8358,32.4891 C15.6368,32.2851 15.6368,31.9543 15.8358,31.7503 L25.8112,21.5239 C26.1142,21.2133 26.2809,20.8008 26.2809,20.3616 C26.2809,19.9223 26.1142,19.5096 25.8112,19.1993 L15.7567,8.89175 C15.5577,8.68775 15.5577,8.35694 15.7567,8.15294 C15.9557,7.9491 16.2784,7.9491 16.4773,8.15294 L26.5318,18.4605 C27.0272,18.9683 27.2999,19.6434 27.2999,20.3616 C27.2999,21.0797 27.0272,21.7548 26.5318,22.2627 L16.5564,32.4891 C16.4568,32.5911 16.3264,32.642 16.1961,32.642 C16.0658,32.642 15.9354,32.5911 15.8358,32.4891 Z" id="Path" stroke="#F2F2F2" fill="#F2F2F2"></path>
        </g>
    </g>
</svg>