<svg width="70" height="124" viewBox="0 0 70 124" fill="none" xmlns="http://www.w3.org/2000/svg">
<path fill-rule="evenodd" clip-rule="evenodd" d="M65.2636 111.723C65.2636 115.586 62.1201 118.73 58.2558 118.73H11.679C7.81465 118.73 4.67114 115.586 4.67114 111.723V12.4038C4.67114 8.54024 7.81465 5.39673 11.679 5.39673H58.2558C62.1201 5.39673 65.2636 8.54024 65.2636 12.4038V111.723ZM58.2558 0.725342H11.679C5.23966 0.725342 -0.000244141 5.9638 -0.000244141 12.4038V111.723C-0.000244141 118.163 5.23966 123.401 11.679 123.401H58.2558C64.6958 123.401 69.935 118.163 69.935 111.723V12.4038C69.935 5.9638 64.6958 0.725342 58.2558 0.725342Z" fill="#5859C3"/>
<path fill-rule="evenodd" clip-rule="evenodd" d="M57.8683 89.5009C57.8683 93.3645 54.7255 96.508 50.8612 96.508H19.073C15.2094 96.508 12.0659 93.3645 12.0659 89.5009V30.6669C12.0659 26.8026 15.2094 23.6591 19.073 23.6591H50.8612C54.7255 23.6591 57.8683 26.8026 57.8683 30.6669V89.5009ZM50.8612 18.9877H19.073C12.633 18.9877 7.39453 24.2269 7.39453 30.6669V89.5009C7.39453 95.941 12.633 101.18 19.073 101.18H50.8612C57.3013 101.18 62.5397 95.941 62.5397 89.5009V30.6669C62.5397 24.2269 57.3013 18.9877 50.8612 18.9877Z" fill="#5859C3"/>
<path fill-rule="evenodd" clip-rule="evenodd" d="M34.9676 103.901C31.5166 103.901 28.719 106.699 28.719 110.15C28.719 113.601 31.5166 116.398 34.9676 116.398C38.4185 116.398 41.2162 113.601 41.2162 110.15C41.2162 106.699 38.4185 103.901 34.9676 103.901Z" fill="#5859C3"/>
<path fill-rule="evenodd" clip-rule="evenodd" d="M26.0405 14.7529H43.8943C45.1844 14.7529 46.2308 13.7073 46.2308 12.4172C46.2308 11.1272 45.1844 10.0815 43.8943 10.0815H26.0405C24.7505 10.0815 23.7041 11.1272 23.7041 12.4172C23.7041 13.7073 24.7505 14.7529 26.0405 14.7529Z" fill="#5859C3"/>
</svg>
