<svg width="121" height="198" viewBox="0 0 121 198" fill="none" xmlns="http://www.w3.org/2000/svg">
<path fill-rule="evenodd" clip-rule="evenodd" d="M111.19 76.263C110.249 79.3274 109.013 82.3294 107.517 85.1852C102.938 93.9191 100.057 102.502 97.0054 111.59L95.9748 114.655C95.4173 116.304 93.0374 121.364 91.5015 124.51C89.5894 127.309 88.7463 128.107 87.7168 128.709C85.9592 129.737 83.3906 130.694 80.3263 131.589C58.3278 132.636 33.8075 133.035 30.1368 131.912C28.1224 130.671 27.9508 129.977 27.0992 126.519C26.9425 125.888 26.7741 125.203 26.5758 124.456C26.319 123.42 26.0333 122.274 25.7051 120.981C25.6965 120.95 25.687 120.917 25.6784 120.885C25.3779 119.833 25.0741 118.736 24.7618 117.607C24.2321 115.689 23.6832 113.706 23.0768 111.68C19.9741 101.326 17.8286 94.5237 13.0356 85.5347C8.95993 77.8916 6.82615 69.2467 6.86665 60.5341C6.99882 31.8824 30.561 8.23189 59.3893 7.81574C73.7992 7.60926 87.364 13.0181 97.6108 23.0522C107.859 33.0874 113.504 46.4878 113.504 60.7829C113.504 66.0584 112.725 71.2671 111.19 76.263ZM87.6827 166.354C84.6696 168.164 79.7657 170.061 73.3367 172.344C72.9679 172.275 72.5874 172.235 72.1984 172.235H50.4162C49.5219 172.235 48.6746 172.43 47.9072 172.773C47.8593 172.772 47.8134 172.759 47.7644 172.76C44.2706 172.811 40.6831 172.659 37.7776 172.378C42.4289 171.296 49.0157 170.166 54.365 169.248C66.0998 167.235 79.1518 164.994 87.2414 161.782C88.8327 162.337 90.3792 163.165 90.8546 163.751C90.6488 164.095 89.9411 164.998 87.6827 166.354ZM71.4683 180.608C71.4683 186.175 66.9108 190.705 61.3067 190.705C55.7026 190.705 51.1441 186.175 51.1441 180.608V179.057H71.4683V180.608ZM32.0254 141.584C31.9241 141.328 31.8229 141.074 31.7216 140.816L31.4552 140.141C31.291 139.723 31.1354 139.324 30.9862 138.939C33.0347 139.165 36.1586 139.337 41.0348 139.39C37.1381 140.163 34.2103 140.857 32.0254 141.584ZM90.8546 151.423C90.6488 151.768 89.9411 152.669 87.6827 154.026C81.6586 157.643 65.877 160.35 53.1969 162.525C43.2794 164.227 36.9015 165.399 32.8162 166.64C31.9561 165.17 31.1536 163.14 32.2375 161.815C32.4251 161.681 32.6915 161.542 33.0241 161.401C33.1818 161.352 33.3332 161.289 33.4834 161.218C37.2351 159.826 46.9789 158.153 54.365 156.886C66.0784 154.877 79.1039 152.64 87.1966 149.438C88.8039 149.992 90.3749 150.831 90.8546 151.423ZM90.8546 139.061C90.6488 139.405 89.9411 140.307 87.6827 141.664C81.6586 145.28 65.877 147.987 53.1969 150.164C43.6482 151.802 37.378 152.949 33.2788 154.14C32.2503 152.551 31.1365 150.241 32.2396 148.878C34.319 147.373 46.0378 145.343 54.6144 143.858C66.3396 141.828 78.3876 139.741 86.3333 136.807C88.2071 137.317 90.2886 138.363 90.8546 139.061ZM102.429 18.193C90.8631 6.86698 75.5525 0.763483 59.2902 0.994323C26.7464 1.46447 0.148762 28.1604 0.00061248 60.5034C-0.0441521 70.3353 2.36567 80.0951 6.9679 88.7283C11.4667 97.1646 13.4236 103.375 16.4953 113.626C17.0815 115.583 17.6208 117.53 18.1409 119.414C18.4532 120.545 18.758 121.645 19.0597 122.7C19.4849 124.377 19.8388 125.805 20.1511 127.066C21.6155 132.973 22.2209 135.418 25.0613 142.627L25.3267 143.3C25.6241 144.055 25.9193 144.803 26.2135 145.545C23.7727 149.416 25.0805 153.908 27.1066 157.281C23.5169 161.377 24.7991 166.442 26.8242 170.008C25.7242 171.487 25.477 173.231 26.1889 174.77C26.7901 176.072 28.3217 179.386 44.2781 179.587V180.608C44.2781 189.937 51.9179 197.526 61.3067 197.526C70.6966 197.526 78.3354 189.937 78.3354 180.608V178.333C78.3354 178.158 78.3237 177.984 78.3087 177.812C83.9587 175.757 88.1825 174.025 91.234 172.193C96.0344 169.312 98.2172 166.151 97.7216 162.801C97.3976 160.605 95.9566 158.944 94.262 157.718C96.9329 155.438 98.0968 153.01 97.7216 150.473C97.3966 148.268 95.9428 146.601 94.2407 145.374C96.9255 143.088 98.0979 140.655 97.7216 138.111C97.3635 135.687 95.6443 133.915 93.7269 132.662C94.9452 131.483 96.044 130.023 97.3305 128.127C97.3763 128.059 97.404 127.984 97.4456 127.913C97.4861 127.844 97.5351 127.785 97.5714 127.712C97.9796 126.875 101.592 119.466 102.484 116.827L103.52 113.748C106.481 104.924 109.278 96.5907 113.607 88.3355C115.298 85.109 116.694 81.7174 117.758 78.2548C119.491 72.6129 120.37 66.7339 120.37 60.7829C120.37 44.6464 113.999 29.5211 102.429 18.193Z" fill="white"/>
</svg>
