<svg width="125" height="124" viewBox="0 0 125 124" fill="none" xmlns="http://www.w3.org/2000/svg">
<path fill-rule="evenodd" clip-rule="evenodd" d="M115.045 25.3338C116.701 25.3338 118.229 26.0877 119.234 27.403C120.24 28.719 120.569 30.3896 120.136 31.9886L110.792 66.4422C110.174 68.7215 108.093 70.3131 105.732 70.3131H40.7466L28.5482 25.3338H115.045ZM40.4912 74.665H105.732C110.053 74.665 113.862 71.752 114.993 67.5812L124.336 33.1269C125.127 30.2099 124.527 27.1598 122.691 24.7589C120.855 22.3587 118.068 20.9819 115.045 20.9819H27.368L22.2966 2.28205C22.2845 2.23814 22.2635 2.19963 22.2494 2.15707C22.2237 2.08209 22.198 2.00778 22.1649 1.93617C22.1359 1.87334 22.1014 1.81525 22.067 1.75647C22.0312 1.69432 21.9947 1.63353 21.9521 1.5761C21.9102 1.51801 21.8636 1.46464 21.8163 1.41127C21.7711 1.3606 21.7251 1.30994 21.6758 1.26332C21.6238 1.21604 21.5698 1.17213 21.5137 1.13024C21.4583 1.08701 21.4022 1.0458 21.3428 1.00864C21.284 0.972164 21.2239 0.941764 21.1624 0.911364C21.0996 0.879614 21.0354 0.848538 20.9685 0.823543C20.9016 0.797872 20.8334 0.778281 20.7645 0.760042C20.699 0.741802 20.6334 0.724238 20.5659 0.712753C20.4875 0.699242 20.4092 0.693838 20.3295 0.689109C20.2849 0.686407 20.2423 0.675598 20.197 0.675598H2.17613C0.974328 0.675598 -0.000488281 1.64974 -0.000488281 2.85221C-0.000488281 4.05334 0.974328 5.02748 2.17613 5.02748H18.5325L23.6038 23.7273C23.6038 23.7293 23.6045 23.732 23.6052 23.7348L36.7784 72.3087L32.3745 82.1393C31.0301 85.1394 31.2949 88.5779 33.0824 91.3368C34.8693 94.0965 37.8991 95.7434 41.1863 95.7434H118.096C119.298 95.7434 120.272 94.7693 120.272 93.5675C120.272 92.3657 119.298 91.3909 118.096 91.3909H41.1863C39.3542 91.3909 37.7316 90.5093 36.7351 88.9711C35.7387 87.4328 35.5968 85.5913 36.346 83.9186L40.4912 74.665Z" fill="#FDBC6E"/>
<path fill-rule="evenodd" clip-rule="evenodd" d="M101.772 119.42C97.6592 119.42 94.3132 116.074 94.3132 111.961C94.3132 107.848 97.6592 104.502 101.772 104.502C105.885 104.502 109.231 107.848 109.231 111.961C109.231 116.074 105.885 119.42 101.772 119.42ZM101.772 100.15C95.2596 100.15 89.9613 105.448 89.9613 111.961C89.9613 118.474 95.2596 123.772 101.772 123.772C108.285 123.772 113.583 118.474 113.583 111.961C113.583 105.448 108.285 100.15 101.772 100.15Z" fill="#FDBC6E"/>
<path fill-rule="evenodd" clip-rule="evenodd" d="M46.4747 119.42C42.362 119.42 39.016 116.074 39.016 111.961C39.016 107.848 42.362 104.502 46.4747 104.502C50.5881 104.502 53.9334 107.848 53.9334 111.961C53.9334 116.074 50.5881 119.42 46.4747 119.42ZM46.4747 100.15C39.9624 100.15 34.6641 105.448 34.6641 111.961C34.6641 118.474 39.9624 123.772 46.4747 123.772C52.9876 123.772 58.2853 118.474 58.2853 111.961C58.2853 105.448 52.9876 100.15 46.4747 100.15Z" fill="#FDBC6E"/>
<path fill-rule="evenodd" clip-rule="evenodd" d="M75.2442 63.433C76.446 63.433 77.4208 62.4589 77.4208 61.2564V34.3905C77.4208 33.1881 76.446 32.2139 75.2442 32.2139C74.0431 32.2139 73.0682 33.1881 73.0682 34.3905V61.2564C73.0682 62.4589 74.0431 63.433 75.2442 63.433Z" fill="#FDBC6E"/>
<path fill-rule="evenodd" clip-rule="evenodd" d="M91.5483 63.3519C91.7455 63.4072 91.9435 63.4336 92.138 63.4336C93.0885 63.4336 93.962 62.8053 94.2322 61.8461L101.786 34.9795C102.112 33.8223 101.438 32.6205 100.281 32.2949C99.1225 31.9699 97.9228 32.6441 97.5965 33.8014L90.0425 60.6672C89.7169 61.8244 90.3911 63.0262 91.5483 63.3519Z" fill="#FDBC6E"/>
<path fill-rule="evenodd" clip-rule="evenodd" d="M56.2564 61.8458C56.5266 62.8057 57.3994 63.434 58.3506 63.434C58.5452 63.434 58.7438 63.407 58.941 63.3516C60.0976 63.026 60.7718 61.8249 60.4461 60.6676L52.8922 33.8011C52.5666 32.6439 51.3668 31.9697 50.2082 32.2953C49.051 32.6202 48.3768 33.8227 48.7017 34.9792L56.2564 61.8458Z" fill="#FDBC6E"/>
</svg>
