<svg width="42" height="42" viewBox="0 0 42 42" fill="none" xmlns="http://www.w3.org/2000/svg">
<path fill-rule="evenodd" clip-rule="evenodd" d="M16.8358 33.4891C16.6368 33.2851 16.6368 32.9543 16.8358 32.7503L26.8112 22.5239C27.1142 22.2133 27.2809 21.8008 27.2809 21.3616C27.2809 20.9223 27.1142 20.5096 26.8112 20.1993L16.7567 9.89175C16.5577 9.68775 16.5577 9.35694 16.7567 9.15294C16.9557 8.9491 17.2784 8.9491 17.4773 9.15294L27.5318 19.4605C28.0272 19.9683 28.2999 20.6434 28.2999 21.3616C28.2999 22.0797 28.0272 22.7548 27.5318 23.2627L17.5564 33.4891C17.4568 33.5911 17.3264 33.642 17.1961 33.642C17.0658 33.642 16.9354 33.5911 16.8358 33.4891Z" fill="#1D1D1B" stroke="black"/>
<path d="M20.5092 41C31.2839 41 40.0184 32.0457 40.0184 21C40.0184 9.9543 31.2839 1 20.5092 1C9.73458 1 1 9.9543 1 21C1 32.0457 9.73458 41 20.5092 41Z" stroke="black" stroke-width="2"/>
</svg>
