<svg width="69" height="48" viewBox="0 0 69 48" fill="none" xmlns="http://www.w3.org/2000/svg">
<path fill-rule="evenodd" clip-rule="evenodd" d="M66.3702 41.4396C66.3702 43.6102 64.6005 45.376 62.4251 45.376H6.57479C4.39978 45.376 2.63013 43.6102 2.63013 41.4396V6.56013C2.63013 5.71737 2.89955 4.93732 3.3535 4.29578L31.0739 23.2481C32.0986 23.9487 33.2996 24.299 34.5001 24.299C35.7007 24.299 36.9013 23.9487 37.9264 23.2481L65.6468 4.29578C66.1007 4.93732 66.3702 5.71737 66.3702 6.56013V41.4396ZM62.4252 2.62402C62.724 2.62402 63.0142 2.66028 63.2943 2.72301L36.4397 21.0831C35.2795 21.8766 33.7209 21.8766 32.5608 21.0831L5.70618 2.72301C5.98622 2.66028 6.27647 2.62402 6.57488 2.62402H62.4252ZM67.3055 2.16904C67.2704 2.00815 67.2059 1.85132 67.1071 1.70713C66.8752 1.36986 66.5135 1.18045 66.1351 1.14745C65.0782 0.424033 63.8009 0 62.4252 0H6.57485C5.19954 0 3.9218 0.424033 2.86491 1.14745C2.48649 1.18045 2.1248 1.37026 1.89334 1.70713C1.79455 1.85132 1.73005 2.00815 1.69494 2.16904C0.642136 3.33279 0 4.87291 0 6.56008V41.4395C0 45.057 2.94982 48 6.57485 48H62.4252C66.0506 48 69 45.057 69 41.4395V6.56008C69 4.87291 68.3583 3.33279 67.3055 2.16904Z" fill="white"/>
</svg>
