<?xml version="1.0" encoding="utf-8"?>
<!-- Generator: Adobe Illustrator 23.0.1, SVG Export Plug-In . SVG Version: 6.00 Build 0)  -->
<svg version="1.1" id="Calque_1" xmlns="http://www.w3.org/2000/svg" xmlns:xlink="http://www.w3.org/1999/xlink" x="0px" y="0px"
	 viewBox="0 0 36 36" style="enable-background:new 0 0 36 36;" xml:space="preserve">
<style type="text/css">
	.st0{fill:#E03854;}
	.st1{fill:none;stroke:#E03854;stroke-width:2;}
</style>
<path class="st0" d="M11.2,13.5c1.2,0,2.2-1,2.2-2.2S12.5,9,11.2,9S9,10,9,11.2S10,13.5,11.2,13.5z"/>
<rect x="9" y="15" class="st0" width="4.5" height="13"/>
<rect x="15.5" y="15" class="st0" width="4" height="13"/>
<path class="st0" d="M19.5,16.5c0,0,0.5-1.5,4-1.5s4,3.5,4,3.5V28h-4c0,0,0-7,0-8c0-0.5-0.5-1.5-2-1.5s-2,1-2,1V16.5z"/>
<rect x="1" y="1" class="st1" width="34.1" height="34"/>
</svg>
