<?xml version="1.0" encoding="utf-8"?>
<!-- Generator: Adobe Illustrator 23.0.1, SVG Export Plug-In . SVG Version: 6.00 Build 0)  -->
<svg version="1.1" id="Calque_1" xmlns="http://www.w3.org/2000/svg" xmlns:xlink="http://www.w3.org/1999/xlink" x="0px" y="0px"
	 viewBox="0 0 36 36" style="enable-background:new 0 0 36 36;" xml:space="preserve">
<style type="text/css">
	.st0{fill-rule:evenodd;clip-rule:evenodd;fill:#5859C3;}
	.st1{fill:none;stroke:#5859C3;stroke-width:2;}
</style>
<path class="st0" d="M20.6,9.2c-2,0.7-3.2,2.6-3.1,4.6l0,0.8l-0.8-0.1c-2.9-0.4-5.4-1.6-7.5-3.7l-1-1L8,10.5c-0.6,1.7-0.2,3.5,1,4.7
	c0.6,0.7,0.5,0.8-0.6,0.4c-0.4-0.1-0.7-0.2-0.7-0.2c-0.1,0.1,0.3,1.6,0.6,2.1c0.4,0.8,1.2,1.6,2.2,2l0.8,0.4l-0.9,0
	c-0.9,0-0.9,0-0.8,0.4c0.3,1,1.6,2.1,2.9,2.6l1,0.3l-0.8,0.5c-1.3,0.7-2.7,1.1-4.2,1.2C7.6,24.9,7,25,7,25.1c0,0.2,1.9,1,3,1.4
	c3.3,1,7.3,0.6,10.3-1.2c2.1-1.3,4.2-3.7,5.2-6.2c0.5-1.3,1.1-3.6,1.1-4.8c0-0.7,0-0.8,0.9-1.7c0.5-0.5,1-1.1,1.1-1.2
	c0.2-0.3,0.1-0.3-0.7,0c-1.3,0.5-1.5,0.4-0.9-0.3c0.5-0.5,1.1-1.4,1.1-1.7c0,0-0.2,0-0.5,0.2c-0.3,0.2-0.9,0.4-1.4,0.5l-0.8,0.3
	l-0.8-0.5c-0.4-0.3-1-0.6-1.3-0.7C22.6,8.9,21.3,9,20.6,9.2z"/>
<rect x="1" y="1" class="st1" width="34.1" height="34"/>
</svg>
