<?xml version="1.0" encoding="utf-8"?>
<!-- Generator: Adobe Illustrator 23.0.1, SVG Export Plug-In . SVG Version: 6.00 Build 0)  -->
<svg version="1.1" id="Calque_1" xmlns="http://www.w3.org/2000/svg" xmlns:xlink="http://www.w3.org/1999/xlink" x="0px" y="0px"
	 viewBox="0 0 36 36" style="enable-background:new 0 0 36 36;" xml:space="preserve">
<style type="text/css">
	.st0{fill-rule:evenodd;clip-rule:evenodd;fill:#5C4882;}
	.st1{fill:none;stroke:#5C4882;stroke-width:2;}
</style>
<path class="st0" d="M28,25.6V11.4c0-0.7-0.2-1.2-0.7-1.7C26.8,9.2,26.2,9,25.6,9H11.4c-0.7,0-1.2,0.2-1.7,0.7
	C9.2,10.2,9,10.8,9,11.4v14.1c0,0.7,0.2,1.2,0.7,1.7c0.5,0.5,1.1,0.7,1.7,0.7h14.1c0.7,0,1.2-0.2,1.7-0.7S28,26.2,28,25.6z M25.8,14
	v-2c0-0.2-0.1-0.4-0.2-0.6c-0.2-0.2-0.4-0.3-0.6-0.3h-2.2c-0.2,0-0.4,0.1-0.6,0.3C22.1,11.5,22,11.7,22,12v2c0,0.2,0.1,0.4,0.2,0.6
	c0.2,0.2,0.4,0.2,0.6,0.2H25c0.2,0,0.4-0.1,0.6-0.2C25.8,14.5,25.8,14.2,25.8,14z M21.2,15.8c0.7,0.7,1.1,1.6,1.1,2.6
	s-0.4,1.9-1.1,2.6s-1.6,1.1-2.7,1.1c-1,0-1.9-0.4-2.7-1.1c-0.7-0.7-1.1-1.6-1.1-2.6s0.4-1.9,1.1-2.6c0.7-0.7,1.6-1.1,2.7-1.1
	C19.6,14.8,20.5,15.1,21.2,15.8z M25.8,17v8c0,0.2-0.1,0.4-0.2,0.5c-0.1,0.1-0.3,0.2-0.5,0.2H11.9c-0.2,0-0.4-0.1-0.5-0.2
	c-0.1-0.1-0.2-0.3-0.2-0.5v-8h1.7c-0.2,0.5-0.2,1.1-0.2,1.6c0,1.6,0.6,2.9,1.7,4.1c1.2,1.1,2.5,1.7,4.2,1.7c1.1,0,2.1-0.3,3-0.8
	c0.9-0.5,1.6-1.2,2.2-2.1c0.5-0.9,0.8-1.8,0.8-2.9c0-0.6-0.1-1.1-0.2-1.6H25.8z"/>
<rect x="1" y="1" class="st1" width="34.1" height="34"/>
</svg>
