<?xml version="1.0" encoding="utf-8"?>
<!-- Generator: Adobe Illustrator 23.0.1, SVG Export Plug-In . SVG Version: 6.00 Build 0)  -->
<svg version="1.1" id="Calque_1" xmlns="http://www.w3.org/2000/svg" xmlns:xlink="http://www.w3.org/1999/xlink" x="0px" y="0px"
	 viewBox="0 0 1440 580.6" style="enable-background:new 0 0 1440 580.6;" xml:space="preserve">
<style type="text/css">
	.st0{fill-rule:evenodd;clip-rule:evenodd;fill:#FDBC6E;}
	.st1{fill-rule:evenodd;clip-rule:evenodd;fill:#5C4882;}
	.st2{fill-rule:evenodd;clip-rule:evenodd;fill:#5859C3;}
	.st3{fill-rule:evenodd;clip-rule:evenodd;fill:#E03854;}
	.st4{fill-rule:evenodd;clip-rule:evenodd;fill:#6B6CDA;}
	.st5{fill-rule:evenodd;clip-rule:evenodd;fill:#FFC681;}
	.st6{fill-rule:evenodd;clip-rule:evenodd;fill:#FF405F;}
	.st7{fill-rule:evenodd;clip-rule:evenodd;fill:#745CA1;}
</style>
<path class="st0" d="M71.3,77l-30.6,1.4l-1.4-30.6l30.6-1.4L71.3,77z"/>
<path class="st0" d="M-38.3,266.5l30.5-2.5l2.5,30.5l-30.5,2.5L-38.3,266.5z"/>
<path class="st1" d="M-1.5,354.9l30.6-1.5l1.5,30.6L0,385.5L-1.5,354.9z"/>
<path class="st0" d="M-34,327.3l30.1-2.4l2.4,30.1l-30.1,2.4L-34,327.3z"/>
<path class="st2" d="M-3.5,324.8l-30.2,2.2l-2.2-30.2l30.2-2.2L-3.5,324.8z"/>
<path class="st0" d="M16.8,171.3l-30.2,2.2l-2.3-30.2l30.2-2.2L16.8,171.3z"/>
<path class="st1" d="M18.8,201.6l-30.2,2.2l-2.2-30.2l30.2-2.2L18.8,201.6z"/>
<path class="st0" d="M-5.6,295l30.1-2.4l2.4,30.1l-30.1,2.4L-5.6,295z"/>
<path class="st0" d="M20.8,231.9l-30.2,2.2l-2.2-30.2l30.2-2.2L20.8,231.9z"/>
<path class="st0" d="M22.8,262.2l-30.2,2.2l-2.2-30.2l30.2-2.2L22.8,262.2z"/>
<path class="st2" d="M24.8,292.5l-30.2,2.2l-2.2-30.2l30.2-2.2L24.8,292.5z"/>
<path class="st0" d="M12.8,110.7l-30.2,2.2l-2.3-30.2l30.2-2.2L12.8,110.7z"/>
<path class="st0" d="M47.1,169.3L17,171.5l-2.3-30.2l30.2-2.2L47.1,169.3z"/>
<path class="st1" d="M49.1,199.6L19,201.8l-2.2-30.2l30.2-2.2L49.1,199.6z"/>
<path class="st2" d="M51.1,229.9L21,232.1L18.7,202l30.2-2.2L51.1,229.9z"/>
<path class="st3" d="M43.1,108.7L13,110.9l-2.3-30.2l30.2-2.2L43.1,108.7z"/>
<path class="st1" d="M45.1,139L15,141.2l-2.2-30.2l30.2-2.2L45.1,139z"/>
<path class="st3" d="M77.4,167.3l-30.2,2.2L45,139.4l30.2-2.2L77.4,167.3z"/>
<path class="st0" d="M79.4,197.6l-30.2,2.2L47,169.7l30.2-2.2L79.4,197.6z"/>
<path class="st2" d="M81.4,227.9l-30.2,2.2L49,200l30.2-2.2L81.4,227.9z"/>
<path class="st0" d="M73.5,106.7l-30.2,2.2L41,78.8l30.2-2.2L73.5,106.7z"/>
<path class="st2" d="M75.4,137l-30.2,2.2L43,109.1l30.2-2.2L75.4,137z"/>
<path class="st0" d="M107.8,165.3l-30.2,2.2l-2.3-30.2l30.2-2.2L107.8,165.3z"/>
<path class="st1" d="M109.8,195.6l-30.2,2.2l-2.2-30.2l30.2-2.2L109.8,195.6z"/>
<path class="st3" d="M111.7,225.9l-30.2,2.2L79.3,198l30.2-2.2L111.7,225.9z"/>
<path class="st0" d="M113.7,256.2l-30.2,2.2l-2.2-30.2l30.2-2.2L113.7,256.2z"/>
<path class="st3" d="M103.8,104.7l-30.2,2.2l-2.2-30.2l30.2-2.2L103.8,104.7z"/>
<path class="st0" d="M22.9,262l30.6-1.5l1.5,30.6l-30.6,1.5L22.9,262z"/>
<path class="st3" d="M140.1,193.6l-30.2,2.2l-2.2-30.2l30.2-2.2L140.1,193.6z"/>
<path class="st2" d="M144.1,254.2l-30.2,2.2l-2.2-30.2l30.2-2.2L144.1,254.2z"/>
<path class="st3" d="M146.1,284.5l-30.2,2.2l-2.2-30.2l30.2-2.2L146.1,284.5z"/>
<path class="st3" d="M136.1,133l-30.2,2.2l-2.2-30.2l30.2-2.2L136.1,133z"/>
<path class="st1" d="M138.1,163.3l-30.2,2.2l-2.2-30.2l30.2-2.2L138.1,163.3z"/>
<path class="st3" d="M168.4,161.3l-30.2,2.2l-2.2-30.2l30.2-2.2L168.4,161.3z"/>
<path class="st1" d="M170.4,191.6l-30.2,2.2l-2.2-30.2l30.2-2.2L170.4,191.6z"/>
<path class="st0" d="M145.9,285.1l30.1-2.4l2.4,30.1l-30.1,2.4L145.9,285.1z"/>
<path class="st3" d="M172.4,221.9l-30.2,2.2L140,194l30.2-2.2L172.4,221.9z"/>
<path class="st2" d="M176.4,282.6l-30.2,2.2l-2.2-30.2l30.2-2.2L176.4,282.6z"/>
<path class="st3" d="M164.4,100.7l-30.2,2.2L132,72.8l30.2-2.2L164.4,100.7z"/>
<path class="st0" d="M166.4,131l-30.2,2.2l-2.2-30.2l30.2-2.2L166.4,131z"/>
<path class="st3" d="M196.7,129l-30.2,2.2l-2.2-30.2l30.2-2.2L196.7,129z"/>
<path class="st1" d="M198.7,159.3l-30.2,2.2l-2.2-30.2l30.2-2.2L198.7,159.3z"/>
<path class="st0" d="M204.7,250l30.6-1.5l1.5,30.6l-30.6,1.5L204.7,250z"/>
<path class="st2" d="M200.7,189.7l-30.2,2.2l-2.2-30.2l30.2-2.2L200.7,189.7z"/>
<path class="st0" d="M202.7,220l-30.2,2.2l-2.2-30.2l30.2-2.2L202.7,220z"/>
<path class="st2" d="M204.7,250.3l-30.2,2.2l-2.2-30.2l30.2-2.2L204.7,250.3z"/>
<path class="st3" d="M192.7,68.4l-30.2,2.2l-2.2-30.2l30.2-2.2L192.7,68.4z"/>
<path class="st3" d="M229,157.3l-30.2,2.2l-2.2-30.2l30.2-2.2L229,157.3z"/>
<path class="st1" d="M231,187.7l-30.2,2.2l-2.2-30.2l30.2-2.2L231,187.7z"/>
<path class="st0" d="M233,218l-30.2,2.2l-2.2-30.2l30.2-2.2L233,218z"/>
<path class="st0" d="M225,96.7L194.9,99l-2.2-30.2l30.2-2.2L225,96.7z"/>
<path class="st1" d="M227,127.1l-30.2,2.2l-2.2-30.2l30.2-2.2L227,127.1z"/>
<path class="st0" d="M259.3,155.3l-30.2,2.2l-2.3-30.2l30.2-2.2L259.3,155.3z"/>
<path class="st1" d="M261.3,185.7l-30.2,2.2l-2.2-30.2l30.2-2.2L261.3,185.7z"/>
<path class="st2" d="M263.3,216l-30.2,2.2l-2.2-30.2l30.2-2.2L263.3,216z"/>
<path class="st3" d="M255.3,94.7L225.2,97l-2.2-30.2l30.2-2.2L255.3,94.7z"/>
<path class="st2" d="M257.3,125.1l-30.2,2.2l-2.2-30.2l30.2-2.2L257.3,125.1z"/>
<path class="st1" d="M293.6,214l-30.2,2.2l-2.2-30.2l30.2-2.2L293.6,214z"/>
<path class="st3" d="M295.6,244.3l-30.2,2.2l-2.2-30.2l30.2-2.2L295.6,244.3z"/>
<path class="st3" d="M287.6,123.1l-30.2,2.2l-2.2-30.2l30.2-2.2L287.6,123.1z"/>
<path class="st2" d="M289.6,153.4l-30.2,2.2l-2.2-30.2l30.2-2.2L289.6,153.4z"/>
<path class="st3" d="M319.9,151.4l-30.2,2.2l-2.2-30.2l30.2-2.2L319.9,151.4z"/>
<path class="st1" d="M321.9,181.7l-30.2,2.2l-2.2-30.2l30.2-2.2L321.9,181.7z"/>
<path class="st3" d="M315.9,90.8L285.8,93l-2.3-30.2l30.2-2.2L315.9,90.8z"/>
<path class="st0" d="M317.9,121.1l-30.2,2.2l-2.2-30.2l30.2-2.2L317.9,121.1z"/>
<path class="st2" d="M348.3,119.1l-30.2,2.2l-2.3-30.2l30.2-2.2L348.3,119.1z"/>
<path class="st1" d="M350.2,149.4l-30.2,2.2l-2.2-30.2l30.2-2.2L350.2,149.4z"/>
<path class="st0" d="M352.2,179.7l-30.2,2.2l-2.2-30.2l30.2-2.2L352.2,179.7z"/>
<path class="st2" d="M344.3,58.5l-30.2,2.2l-2.3-30.2l30.2-2.2L344.3,58.5z"/>
<path class="st0" d="M312,30.2l-30.2,2.2l-2.3-30.2L309.7,0L312,30.2z"/>
<path class="st0" d="M380.6,147.4l-30.2,2.2l-2.3-30.2l30.2-2.2L380.6,147.4z"/>
<path class="st1" d="M382.5,177.7l-30.2,2.2l-2.2-30.2l30.2-2.2L382.5,177.7z"/>
<path class="st0" d="M384.5,208l-30.2,2.2l-2.2-30.2l30.2-2.2L384.5,208z"/>
<path class="st3" d="M376.6,86.8L346.4,89l-2.3-30.2l30.2-2.2L376.6,86.8z"/>
<path class="st1" d="M378.6,117.1l-30.2,2.2l-2.2-30.2l30.2-2.2L378.6,117.1z"/>
<path class="st3" d="M386.5,238.3l-30.2,2.2l-2.3-30.2l30.2-2.2L386.5,238.3z"/>
<path class="st1" d="M414.9,206l-30.2,2.2l-2.3-30.2l30.2-2.2L414.9,206z"/>
<path class="st0" d="M408.9,115.1l-30.2,2.2l-2.3-30.2l30.2-2.2L408.9,115.1z"/>
<path class="st1" d="M410.9,145.4l-30.2,2.2l-2.2-30.2l30.2-2.2L410.9,145.4z"/>
<path class="st2" d="M412.9,175.7l-30.2,2.2l-2.2-30.2l30.2-2.2L412.9,175.7z"/>
<path class="st3" d="M404.9,54.5l-30.2,2.2l-2.2-30.2l30.2-2.2L404.9,54.5z"/>
<path class="st2" d="M406.9,84.8L376.7,87l-2.2-30.2l30.2-2.2L406.9,84.8z"/>
<path class="st0" d="M443.2,173.7L413,176l-2.2-30.2l30.2-2.2L443.2,173.7z"/>
<path class="st3" d="M439.2,113.1l-30.2,2.2l-2.2-30.2l30.2-2.2L439.2,113.1z"/>
<path class="st1" d="M441.2,143.4l-30.2,2.2l-2.2-30.2l30.2-2.2L441.2,143.4z"/>
<path class="st3" d="M471.5,141.4l-30.2,2.2l-2.2-30.2l30.2-2.2L471.5,141.4z"/>
<path class="st1" d="M473.5,171.7l-30.2,2.2l-2.2-30.2l30.2-2.2L473.5,171.7z"/>
<path class="st2" d="M469.5,111.1l-30.2,2.2l-2.2-30.2l30.2-2.2L469.5,111.1z"/>
<path class="st3" d="M501.8,139.4l-30.2,2.2l-2.2-30.2l30.2-2.2L501.8,139.4z"/>
<path class="st0" d="M503.8,169.7l-30.2,2.2l-2.2-30.2l30.2-2.2L503.8,169.7z"/>
<path class="st2" d="M505.8,200l-30.2,2.2l-2.2-30.2l30.2-2.2L505.8,200z"/>
<path class="st3" d="M497.8,78.8l-30.2,2.2l-2.2-30.2l30.2-2.2L497.8,78.8z"/>
<path class="st0" d="M499.8,109.1l-30.2,2.2l-2.2-30.2l30.2-2.2L499.8,109.1z"/>
<path class="st3" d="M534.1,167.7l-30.2,2.2l-2.2-30.2l30.2-2.2L534.1,167.7z"/>
<path class="st1" d="M536.1,198.1l-30.2,2.2l-2.2-30.2l30.2-2.2L536.1,198.1z"/>
<path class="st3" d="M538.1,228.4l-30.2,2.2l-2.2-30.2l30.2-2.2L538.1,228.4z"/>
<path class="st3" d="M530.1,107.1l-30.2,2.2l-2.2-30.2l30.2-2.2L530.1,107.1z"/>
<path class="st1" d="M532.1,137.4l-30.2,2.2l-2.2-30.2l30.2-2.2L532.1,137.4z"/>
<path class="st2" d="M564.4,165.7l-30.2,2.2l-2.2-30.2l30.2-2.2L564.4,165.7z"/>
<path class="st0" d="M566.4,196.1l-30.2,2.2l-2.2-30.2l30.2-2.2L566.4,196.1z"/>
<path class="st2" d="M568.4,226.4l-30.2,2.2l-2.2-30.2l30.2-2.2L568.4,226.4z"/>
<path class="st0" d="M560.4,105.1l-30.2,2.2L528,77.2l30.2-2.2L560.4,105.1z"/>
<path class="st1" d="M562.4,135.5l-30.2,2.2l-2.2-30.2l30.2-2.2L562.4,135.5z"/>
<path class="st3" d="M596.7,194.1l-30.2,2.2l-2.2-30.2l30.2-2.2L596.7,194.1z"/>
<path class="st0" d="M598.7,224.4l-30.2,2.2l-2.2-30.2l30.2-2.2L598.7,224.4z"/>
<path class="st2" d="M600.7,254.7l-30.2,2.2l-2.2-30.2l30.2-2.2L600.7,254.7z"/>
<path class="st3" d="M592.7,133.4l-30.2,2.2l-2.3-30.2l30.2-2.2L592.7,133.4z"/>
<path class="st1" d="M594.7,163.8l-30.2,2.2l-2.2-30.2l30.2-2.2L594.7,163.8z"/>
<path class="st3" d="M627,192.1l-30.2,2.2l-2.2-30.2l30.2-2.2L627,192.1z"/>
<path class="st1" d="M629,222.4l-30.2,2.2l-2.2-30.2l30.2-2.2L629,222.4z"/>
<path class="st2" d="M631,252.7l-30.2,2.2l-2.2-30.2l30.2-2.2L631,252.7z"/>
<path class="st0" d="M625,161.8l-30.2,2.2l-2.2-30.2l30.2-2.2L625,161.8z"/>
<path class="st3" d="M655.4,159.8l-30.2,2.2l-2.2-30.2l30.2-2.2L655.4,159.8z"/>
<path class="st1" d="M657.3,190.1l-30.2,2.2l-2.2-30.2l30.2-2.2L657.3,190.1z"/>
<path class="st3" d="M659.3,220.4l-30.2,2.2l-2.2-30.2l30.2-2.2L659.3,220.4z"/>
<path class="st1" d="M653.4,129.5l-30.2,2.2l-2.2-30.2l30.2-2.2L653.4,129.5z"/>
<path class="st0" d="M416.9,236.1l30.6-1.5l1.5,30.6l-30.6,1.5L416.9,236.1z"/>
<path class="st0" d="M507.8,230.1l30.6-1.5l1.5,30.6l-30.6,1.5L507.8,230.1z"/>
<path class="st1" d="M556.5,44.3l30.6-1.5l1.5,30.6L558,74.9L556.5,44.3z"/>
<path class="st2" d="M685.7,157.8l-30.2,2.2l-2.2-30.2l30.2-2.2L685.7,157.8z"/>
<path class="st0" d="M687.7,188.1l-30.2,2.2l-2.2-30.2l30.2-2.2L687.7,188.1z"/>
<path class="st2" d="M689.7,218.4l-30.2,2.2l-2.2-30.2l30.2-2.2L689.7,218.4z"/>
<path class="st0" d="M691.6,248.7l-30.2,2.2l-2.2-30.2l30.2-2.2L691.6,248.7z"/>
<path class="st2" d="M693.6,279l-30.2,2.2l-2.2-30.2l30.2-2.2L693.6,279z"/>
<path class="st2" d="M640.7,94.1l-30.2,2.2l-2.2-30.2l30.2-2.2L640.7,94.1z"/>
<path class="st1" d="M720,216.4l-30.2,2.2l-2.2-30.2l30.2-2.2L720,216.4z"/>
<path class="st2" d="M722,246.7l-30.2,2.2l-2.2-30.2l30.2-2.2L722,246.7z"/>
<path class="st0" d="M724,277l-30.2,2.2l-2.2-30.2l30.2-2.2L724,277z"/>
<path class="st3" d="M726,307.3l-30.2,2.2l-2.2-30.2l30.2-2.2L726,307.3z"/>
<path class="st0" d="M716,155.8l-30.2,2.2l-2.2-30.2l30.2-2.2L716,155.8z"/>
<path class="st3" d="M746.3,153.8l-30.2,2.2l-2.2-30.2l30.2-2.2L746.3,153.8z"/>
<path class="st1" d="M748.3,184.1l-30.2,2.2l-2.2-30.2L746,154L748.3,184.1z"/>
<path class="st2" d="M750.3,214.4l-30.2,2.2l-2.2-30.2l30.2-2.2L750.3,214.4z"/>
<path class="st0" d="M752.3,244.7l-30.2,2.2l-2.2-30.2l30.2-2.2L752.3,244.7z"/>
<path class="st3" d="M754.3,275l-30.2,2.2l-2.2-30.2l30.2-2.2L754.3,275z"/>
<path class="st3" d="M780.6,212.4l-30.2,2.2l-2.2-30.2l30.2-2.2L780.6,212.4z"/>
<path class="st1" d="M782.6,242.7l-30.2,2.2l-2.2-30.2l30.2-2.2L782.6,242.7z"/>
<path class="st2" d="M784.6,273l-30.2,2.2l-2.2-30.2l30.2-2.2L784.6,273z"/>
<path class="st0" d="M786.6,303.3l-30.2,2.2l-2.2-30.2l30.2-2.2L786.6,303.3z"/>
<path class="st2" d="M788.6,333.6l-30.2,2.2l-2.2-30.2l30.2-2.2L788.6,333.6z"/>
<path class="st1" d="M778.6,182.1l-30.2,2.2l-2.2-30.2l30.2-2.2L778.6,182.1z"/>
<path class="st3" d="M810.9,210.4l-30.2,2.2l-2.2-30.2l30.2-2.2L810.9,210.4z"/>
<path class="st0" d="M812.9,240.7l-30.2,2.2l-2.2-30.2l30.2-2.2L812.9,240.7z"/>
<path class="st2" d="M814.9,271l-30.2,2.2l-2.2-30.2l30.2-2.2L814.9,271z"/>
<path class="st3" d="M816.9,301.3l-30.2,2.2l-2.2-30.2l30.2-2.2L816.9,301.3z"/>
<path class="st0" d="M818.9,331.7l-30.2,2.2l-2.2-30.2l30.2-2.2L818.9,331.7z"/>
<path class="st2" d="M808.9,180.1l-30.2,2.2l-2.2-30.2l30.2-2.2L808.9,180.1z"/>
<path class="st3" d="M845.2,269l-30.2,2.2l-2.2-30.2l30.2-2.2L845.2,269z"/>
<path class="st1" d="M847.2,299.4l-30.2,2.2l-2.2-30.2l30.2-2.2L847.2,299.4z"/>
<path class="st0" d="M851.2,360l-30.2,2.2l-2.2-30.2l30.2-2.2L851.2,360z"/>
<path class="st3" d="M853.2,390.3l-30.2,2.2l-2.2-30.2l30.2-2.2L853.2,390.3z"/>
<path class="st0" d="M841.2,208.4l-30.2,2.2l-2.2-30.2l30.2-2.2L841.2,208.4z"/>
<path class="st2" d="M873.5,236.7l-30.2,2.2l-2.2-30.2l30.2-2.2L873.5,236.7z"/>
<path class="st1" d="M875.5,267.1l-30.2,2.2l-2.2-30.2l30.2-2.2L875.5,267.1z"/>
<path class="st2" d="M877.5,297.4l-30.2,2.2l-2.2-30.2l30.2-2.2L877.5,297.4z"/>
<path class="st0" d="M879.5,327.7l-30.2,2.2l-2.2-30.2l30.2-2.2L879.5,327.7z"/>
<path class="st2" d="M881.5,358l-30.2,2.2l-2.2-30.2l30.2-2.2L881.5,358z"/>
<path class="st3" d="M909.8,325.7l-30.2,2.2l-2.2-30.2l30.2-2.2L909.8,325.7z"/>
<path class="st1" d="M911.8,356l-30.2,2.2l-2.2-30.2l30.2-2.2L911.8,356z"/>
<path class="st2" d="M913.8,386.3l-30.2,2.2l-2.2-30.2l30.2-2.2L913.8,386.3z"/>
<path class="st0" d="M915.8,416.6l-30.2,2.2l-2.2-30.2l30.2-2.2L915.8,416.6z"/>
<path class="st2" d="M917.8,446.9l-30.2,2.2l-2.2-30.2l30.2-2.2L917.8,446.9z"/>
<path class="st0" d="M905.8,265.1l-30.2,2.2l-2.2-30.2l30.2-2.2L905.8,265.1z"/>
<path class="st0" d="M940.1,323.7l-30.2,2.2l-2.3-30.2l30.2-2.2L940.1,323.7z"/>
<path class="st1" d="M942.1,354l-30.2,2.2l-2.2-30.2l30.2-2.2L942.1,354z"/>
<path class="st3" d="M944.1,384.3l-30.2,2.2l-2.2-30.2l30.2-2.2L944.1,384.3z"/>
<path class="st0" d="M946.1,414.6l-30.2,2.2l-2.2-30.2l30.2-2.2L946.1,414.6z"/>
<path class="st3" d="M948.1,444.9l-30.2,2.2l-2.2-30.2l30.2-2.2L948.1,444.9z"/>
<path class="st3" d="M936.1,263.1l-30.2,2.2l-2.2-30.2l30.2-2.2L936.1,263.1z"/>
<path class="st1" d="M938.1,293.4l-30.2,2.2l-2.2-30.2l30.2-2.2L938.1,293.4z"/>
<path class="st1" d="M970.4,321.7l-30.2,2.2l-2.2-30.2l30.2-2.2L970.4,321.7z"/>
<path class="st2" d="M972.4,352l-30.2,2.2l-2.2-30.2l30.2-2.2L972.4,352z"/>
<path class="st0" d="M974.4,382.3l-30.2,2.2l-2.2-30.2l30.2-2.2L974.4,382.3z"/>
<path class="st2" d="M976.4,412.6l-30.2,2.2l-2.2-30.2l30.2-2.2L976.4,412.6z"/>
<path class="st3" d="M1002.8,350l-30.2,2.2l-2.2-30.2l30.2-2.2L1002.8,350z"/>
<path class="st1" d="M1004.7,380.3l-30.2,2.2l-2.2-30.2l30.2-2.2L1004.7,380.3z"/>
<path class="st2" d="M1006.7,410.6l-30.2,2.2l-2.2-30.2l30.2-2.2L1006.7,410.6z"/>
<path class="st0" d="M1008.7,440.9l-30.2,2.2l-2.2-30.2l30.2-2.2L1008.7,440.9z"/>
<path class="st2" d="M1010.7,471.2l-30.2,2.2l-2.2-30.2l30.2-2.2L1010.7,471.2z"/>
<path class="st0" d="M998.8,289.4l-30.2,2.2l-2.2-30.2l30.2-2.2L998.8,289.4z"/>
<path class="st1" d="M1000.8,319.7l-30.2,2.2l-2.2-30.2l30.2-2.2L1000.8,319.7z"/>
<path class="st0" d="M1033.1,348l-30.2,2.2l-2.2-30.2l30.2-2.2L1033.1,348z"/>
<path class="st2" d="M1035.1,378.3l-30.2,2.2l-2.2-30.2l30.2-2.2L1035.1,378.3z"/>
<path class="st0" d="M1037,408.6l-30.2,2.2l-2.2-30.2l30.2-2.2L1037,408.6z"/>
<path class="st3" d="M1039,438.9l-30.2,2.2l-2.2-30.2l30.2-2.2L1039,438.9z"/>
<path class="st0" d="M1065.4,376.3l-30.2,2.2l-2.2-30.2l30.2-2.2L1065.4,376.3z"/>
<path class="st2" d="M1069.3,436.9l-30.2,2.2l-2.2-30.2l30.2-2.2L1069.3,436.9z"/>
<path class="st0" d="M1071.3,467.2l-30.2,2.2l-2.2-30.2l30.2-2.2L1071.3,467.2z"/>
<path class="st2" d="M1073.3,497.5l-30.2,2.2l-2.2-30.2l30.2-2.2L1073.3,497.5z"/>
<g>
	<path class="st4" d="M1378.4,507.9l-30.2,2.2l-2.2-30.2l30.2-2.2L1378.4,507.9z"/>
</g>
<path class="st1" d="M1063.4,346l-30.2,2.2l-2.2-30.2l30.2-2.2L1063.4,346z"/>
<path class="st0" d="M728,337.4l30.6-1.5l1.5,30.6l-30.6,1.5L728,337.4z"/>
<path class="st0" d="M946.2,414.4l30.6-1.5l1.5,30.6l-30.6,1.5L946.2,414.4z"/>
<path class="st0" d="M871.6,206.2l30.6-1.5l1.5,30.6l-30.6,1.5L871.6,206.2z"/>
<path class="st0" d="M853.2,390l30.6-1.5l1.5,30.6l-30.6,1.5L853.2,390z"/>
<path class="st3" d="M1099.7,434.9l-30.2,2.2l-2.2-30.2l30.2-2.2L1099.7,434.9z"/>
<path class="st1" d="M1101.7,465.2l-30.2,2.2l-2.2-30.2l30.2-2.2L1101.7,465.2z"/>
<path class="st0" d="M1103.7,495.6l-30.2,2.2l-2.2-30.2l30.2-2.2L1103.7,495.6z"/>
<path class="st1" d="M1097.7,404.6l-30.2,2.2l-2.2-30.2l30.2-2.2L1097.7,404.6z"/>
<path class="st3" d="M1132,463.2l-30.2,2.2l-2.2-30.2l30.2-2.2L1132,463.2z"/>
<path class="st0" d="M1134,493.6l-30.2,2.2l-2.2-30.2l30.2-2.2L1134,493.6z"/>
<path class="st3" d="M1136,523.9l-30.2,2.2l-2.2-30.2l30.2-2.2L1136,523.9z"/>
<path class="st0" d="M1128,402.6l-30.2,2.2l-2.2-30.2l30.2-2.2L1128,402.6z"/>
<path class="st0" d="M1130,433l-30.2,2.2l-2.2-30.2l30.2-2.2L1130,433z"/>
<path class="st2" d="M1162.3,461.3l-30.2,2.2l-2.2-30.2l30.2-2.2L1162.3,461.3z"/>
<path class="st1" d="M1164.3,491.6l-30.2,2.2l-2.2-30.2l30.2-2.2L1164.3,491.6z"/>
<path class="st2" d="M1166.3,521.9l-30.2,2.2l-2.2-30.2l30.2-2.2L1166.3,521.9z"/>
<path class="st1" d="M1160.3,431l-30.2,2.2l-2.2-30.2l30.2-2.2L1160.3,431z"/>
<path class="st0" d="M1192.6,459.3l-30.2,2.2l-2.2-30.2l30.2-2.2L1192.6,459.3z"/>
<path class="st3" d="M1194.6,489.6l-30.2,2.2l-2.2-30.2l30.2-2.2L1194.6,489.6z"/>
<path class="st0" d="M1196.6,519.9l-30.2,2.2l-2.2-30.2l30.2-2.2L1196.6,519.9z"/>
<path class="st2" d="M1188.6,398.7l-30.2,2.2l-2.2-30.2l30.2-2.2L1188.6,398.7z"/>
<path class="st3" d="M1226.9,517.9l-30.2,2.2l-2.2-30.2l30.2-2.2L1226.9,517.9z"/>
<path class="st3" d="M1222.9,457.3l-30.2,2.2l-2.2-30.2l30.2-2.2L1222.9,457.3z"/>
<path class="st2" d="M1224.9,487.6l-30.2,2.2l-2.2-30.2l30.2-2.2L1224.9,487.6z"/>
<path class="st3" d="M1255.2,485.6l-30.2,2.2l-2.2-30.2l30.2-2.2L1255.2,485.6z"/>
<path class="st0" d="M1257.2,515.9l-30.2,2.2l-2.2-30.2l30.2-2.2L1257.2,515.9z"/>
<path class="st2" d="M1259.2,546.2l-30.2,2.2l-2.2-30.2l30.2-2.2L1259.2,546.2z"/>
<path class="st0" d="M1253.2,455.3l-30.2,2.2l-2.2-30.2l30.2-2.2L1253.2,455.3z"/>
<path class="st1" d="M1285.5,483.6l-30.2,2.2l-2.2-30.2l30.2-2.2L1285.5,483.6z"/>
<path class="st2" d="M1287.5,513.9l-30.2,2.2l-2.2-30.2l30.2-2.2L1287.5,513.9z"/>
<path class="st1" d="M1317.8,511.9l-30.2,2.2l-2.2-30.2l30.2-2.2L1317.8,511.9z"/>
<path class="st2" d="M1319.8,542.2l-30.2,2.2l-2.2-30.2l30.2-2.2L1319.8,542.2z"/>
<path class="st3" d="M1348.1,509.9l-30.2,2.2l-2.2-30.2l30.2-2.2L1348.1,509.9z"/>
<path class="st0" d="M1350.1,540.2l-30.2,2.2l-2.2-30.2l30.2-2.2L1350.1,540.2z"/>
<path class="st1" d="M1346.1,479.6l-30.2,2.2l-2.2-30.2l30.2-2.2L1346.1,479.6z"/>
<g>
	<path class="st4" d="M1073.3,497.5l-30.2,2.2l-2.2-30.2l30.2-2.2L1073.3,497.5z"/>
</g>
<g>
	<path class="st4" d="M1073.3,497.5l-30.2,2.2l-2.2-30.2l30.2-2.2L1073.3,497.5z"/>
</g>
<g>
	<path class="st4" d="M972.4,352l-30.2,2.2l-2.2-30.2l30.2-2.2L972.4,352z"/>
</g>
<g>
	<path class="st4" d="M814.9,271l-30.2,2.2l-2.2-30.2l30.2-2.2L814.9,271z"/>
</g>
<g>
	<path class="st4" d="M505.8,200l-30.2,2.2l-2.2-30.2l30.2-2.2L505.8,200z"/>
</g>
<g>
	<path class="st5" d="M73.5,106.7l-30.2,2.2L41,78.8l30.2-2.2L73.5,106.7z"/>
</g>
<g>
	<path class="st5" d="M201.6,219.7l-30.2,2.2l-2.2-30.2l30.2-2.2L201.6,219.7z"/>
</g>
<g>
	<path class="st5" d="M499.8,109.1l-30.2,2.2l-2.2-30.2l30.2-2.2L499.8,109.1z"/>
</g>
<g>
	<path class="st5" d="M879.5,327.7l-30.2,2.2l-2.2-30.2l30.2-2.2L879.5,327.7z"/>
</g>
<g>
	<path class="st4" d="M257.3,125.1l-30.2,2.2l-2.2-30.2l30.2-2.2L257.3,125.1z"/>
</g>
<g>
	<path class="st4" d="M166.4,131l-30.2,2.2l-2.2-30.2l30.2-2.2L166.4,131z"/>
</g>
<path class="st3" d="M1408.8,505.9l-30.2,2.2l-2.2-30.2l30.2-2.2L1408.8,505.9z"/>
<path class="st1" d="M1410.8,536.2l-30.2,2.2l-2.2-30.2l30.2-2.2L1410.8,536.2z"/>
<path class="st3" d="M1437.1,473.6l-30.2,2.2l-2.2-30.2l30.2-2.2L1437.1,473.6z"/>
<path class="st0" d="M1105.7,525.6l30.6-1.5l1.5,30.6l-30.6,1.5L1105.7,525.6z"/>
<path class="st0" d="M1198.6,550l30.6-1.5l1.5,30.6l-30.6,1.5L1198.6,550z"/>
<path class="st3" d="M445.2,204l-30.2,2.2l-2.2-30.2l30.2-2.2L445.2,204z"/>
<path class="st1" d="M447.2,234.3l-30.2,2.2l-2.2-30.2l30.2-2.2L447.2,234.3z"/>
<path class="st3" d="M354.2,210l-30.2,2.2l-2.2-30.2l30.2-2.2L354.2,210z"/>
<path class="st3" d="M507.8,230.3l-30.2,2.2l-2.2-30.2l30.2-2.2L507.8,230.3z"/>
<path class="st1" d="M477.5,232.3l-30.2,2.2l-2.2-30.2l30.2-2.2L477.5,232.3z"/>
<path class="st3" d="M481.5,292.9l-30.2,2.2l-2.3-30.2l30.2-2.2L481.5,292.9z"/>
<path class="st0" d="M465.5,50.5l-30.2,2.2l-2.2-30.2l30.2-2.2L465.5,50.5z"/>
<g>
	<path class="st6" d="M1222.9,457.3l-30.2,2.2l-2.2-30.2l30.2-2.2L1222.9,457.3z"/>
</g>
<g>
	<path class="st6" d="M853.2,390.3l-30.2,2.2l-2.2-30.2l30.2-2.2L853.2,390.3z"/>
</g>
<g>
	<path class="st6" d="M627,192.1l-30.2,2.2l-2.2-30.2l30.2-2.2L627,192.1z"/>
</g>
<g>
	<path class="st6" d="M481.5,292.9l-30.2,2.2l-2.2-30.2l30.2-2.2L481.5,292.9z"/>
</g>
<g>
	<path class="st6" d="M111.7,225.9l-30.2,2.2L79.3,198l30.2-2.2L111.7,225.9z"/>
</g>
<g>
	<path class="st7" d="M382.5,177.7l-30.2,2.2l-2.2-30.2l30.2-2.2L382.5,177.7z"/>
</g>
<g>
	<path class="st7" d="M748.3,184.1l-30.2,2.2l-2.2-30.2L746,154L748.3,184.1z"/>
</g>
<g>
	<path class="st7" d="M1164.3,491.6l-30.2,2.2l-2.2-30.2l30.2-2.2L1164.3,491.6z"/>
</g>
<path class="st2" d="M356.2,240.3l-30.2,2.2l-2.2-30.2l30.2-2.2L356.2,240.3z"/>
<path class="st3" d="M53.1,260.2l-30.2,2.2l-2.2-30.2l30.2-2.2L53.1,260.2z"/>
<path class="st1" d="M83.4,258.2l-30.2,2.2L51,230.3l30.2-2.2L83.4,258.2z"/>
<path class="st3" d="M53.2,260l30.6-1.5l1.5,30.6l-30.6,1.5L53.2,260z"/>
<path class="st1" d="M101.8,74.2l-30,2.5l-2.5-30l30-2.5L101.8,74.2z"/>
<path class="st1" d="M55.2,290.3l30.6-1.5l1.5,30.6l-30.6,1.5L55.2,290.3z"/>
<path class="st0" d="M223,66.4l-30.2,2.2l-2.2-30.2l30.2-2.2L223,66.4z"/>
<path class="st3" d="M663.3,281l-30.2,2.2l-2.2-30.2l30.2-2.2L663.3,281z"/>
<path class="st0" d="M633,283l-30.2,2.2l-2.2-30.2l30.2-2.2L633,283z"/>
<path class="st3" d="M601.7,285.8l31.7-3.3l3.3,31.7l-31.7,3.3L601.7,285.8z"/>
<g>
	<path class="st4" d="M1026.7,523.1l-30.2,2.2l-2.2-30.2l30.2-2.2L1026.7,523.1z"/>
</g>
</svg>
