<svg width="167" height="81" viewBox="0 0 167 81" fill="none" xmlns="http://www.w3.org/2000/svg">
<path fill-rule="evenodd" clip-rule="evenodd" d="M99.0909 70.8916L84.133 76L79 61.1084L93.9598 56L99.0909 70.8916Z" fill="#F4395F"/>
<path fill-rule="evenodd" clip-rule="evenodd" d="M89 40.8916L74.1079 46L69 31.1084L83.8921 26L89 40.8916Z" fill="#F4395F"/>
<path fill-rule="evenodd" clip-rule="evenodd" d="M94 55.9009L79.0991 61L74 46.0991L88.9009 41L94 55.9009Z" fill="#FDBC6E"/>
<path fill-rule="evenodd" clip-rule="evenodd" d="M74.3318 45.8916L59.3725 51L54.2409 36.1084L69.2002 31L74.3318 45.8916Z" fill="#FDBC6E"/>
<path fill-rule="evenodd" clip-rule="evenodd" d="M109 50.9009L94.0991 56L89 41.0991L103.901 36L109 50.9009Z" fill="#5C4882"/>
<path fill-rule="evenodd" clip-rule="evenodd" d="M99.0909 20.9009L84.1223 26L79 11.0991L93.9686 6L99.0909 20.9009Z" fill="#5C4882"/>
<path fill-rule="evenodd" clip-rule="evenodd" d="M114 65.9009L99.0991 71L94 56.0991L108.901 51L114 65.9009Z" fill="#5C4882"/>
<path fill-rule="evenodd" clip-rule="evenodd" d="M124.091 45.9009L109.122 51L104 36.0991L118.969 31L124.091 45.9009Z" fill="#5C4882"/>
<path fill-rule="evenodd" clip-rule="evenodd" d="M38.0909 34.9009L23.1223 40L18 25.0991L32.9686 20L38.0909 34.9009Z" fill="#5859C3"/>
<path fill-rule="evenodd" clip-rule="evenodd" d="M23 39.8916L8.10835 45L3 30.1084L17.8916 25L23 39.8916Z" fill="#F4395F"/>
<path fill-rule="evenodd" clip-rule="evenodd" d="M136 60.7804L151.289 56L156.091 71.2196L140.802 76L136 60.7804Z" fill="#FDBC6E"/>
<path fill-rule="evenodd" clip-rule="evenodd" d="M146 4.78041L161.289 0L166.091 15.2196L150.802 20L146 4.78041Z" fill="#5859C3"/>
<g filter="url(#filter0_d)">
<path fill-rule="evenodd" clip-rule="evenodd" d="M141.331 76.2415L156.46 71.0324L151.251 55.9041L136.122 61.1132L141.331 76.2415Z" fill="#FFC681"/>
</g>
<g filter="url(#filter1_d)">
<path fill-rule="evenodd" clip-rule="evenodd" d="M94.2091 56.3374L109.337 51.1283L104.128 36L89 41.2091L94.2091 56.3374Z" fill="#5859C3"/>
</g>
<g filter="url(#filter2_d)">
<path fill-rule="evenodd" clip-rule="evenodd" d="M8.20909 45.3374L23.3374 40.1283L18.1283 25L3 30.2091L8.20909 45.3374Z" fill="#E03854"/>
</g>
<defs>
<filter id="filter0_d" x="133.622" y="54.9041" width="25.3374" height="25.3374" filterUnits="userSpaceOnUse" color-interpolation-filters="sRGB">
<feFlood flood-opacity="0" result="BackgroundImageFix"/>
<feColorMatrix in="SourceAlpha" type="matrix" values="0 0 0 0 0 0 0 0 0 0 0 0 0 0 0 0 0 0 127 0"/>
<feOffset dy="1.5"/>
<feGaussianBlur stdDeviation="1.25"/>
<feColorMatrix type="matrix" values="0 0 0 0 0 0 0 0 0 0 0 0 0 0 0 0 0 0 0.5 0"/>
<feBlend mode="normal" in2="BackgroundImageFix" result="effect1_dropShadow"/>
<feBlend mode="normal" in="SourceGraphic" in2="effect1_dropShadow" result="shape"/>
</filter>
<filter id="filter1_d" x="86.5" y="35" width="25.3374" height="25.3374" filterUnits="userSpaceOnUse" color-interpolation-filters="sRGB">
<feFlood flood-opacity="0" result="BackgroundImageFix"/>
<feColorMatrix in="SourceAlpha" type="matrix" values="0 0 0 0 0 0 0 0 0 0 0 0 0 0 0 0 0 0 127 0"/>
<feOffset dy="1.5"/>
<feGaussianBlur stdDeviation="1.25"/>
<feColorMatrix type="matrix" values="0 0 0 0 0 0 0 0 0 0 0 0 0 0 0 0 0 0 0.5 0"/>
<feBlend mode="normal" in2="BackgroundImageFix" result="effect1_dropShadow"/>
<feBlend mode="normal" in="SourceGraphic" in2="effect1_dropShadow" result="shape"/>
</filter>
<filter id="filter2_d" x="0.5" y="24" width="25.3374" height="25.3374" filterUnits="userSpaceOnUse" color-interpolation-filters="sRGB">
<feFlood flood-opacity="0" result="BackgroundImageFix"/>
<feColorMatrix in="SourceAlpha" type="matrix" values="0 0 0 0 0 0 0 0 0 0 0 0 0 0 0 0 0 0 127 0"/>
<feOffset dy="1.5"/>
<feGaussianBlur stdDeviation="1.25"/>
<feColorMatrix type="matrix" values="0 0 0 0 0 0 0 0 0 0 0 0 0 0 0 0 0 0 0.5 0"/>
<feBlend mode="normal" in2="BackgroundImageFix" result="effect1_dropShadow"/>
<feBlend mode="normal" in="SourceGraphic" in2="effect1_dropShadow" result="shape"/>
</filter>
</defs>
</svg>
