<svg width="320" height="451" viewBox="0 0 320 451" fill="none" xmlns="http://www.w3.org/2000/svg">
<path fill-rule="evenodd" clip-rule="evenodd" d="M-5.18855 66.7981L-26.246 64.4485L-23.9009 43.3957L-2.84349 45.7454L-5.18855 66.7981Z" fill="#5859C3"/>
<path fill-rule="evenodd" clip-rule="evenodd" d="M-7.7331 87.9314L-28.7964 85.5653L-26.4348 64.5066L-5.37149 66.8728L-7.7331 87.9314Z" fill="#5C4882"/>
<path fill-rule="evenodd" clip-rule="evenodd" d="M13.3991 90.4639L-7.65826 88.1143L-5.31317 67.0616L15.7442 69.4112L13.3991 90.4639Z" fill="#FDBC6E"/>
<path fill-rule="evenodd" clip-rule="evenodd" d="M10.8547 111.597L-10.207 109.232L-7.84703 88.1726L13.2169 90.539L10.8547 111.597Z" fill="#5C4882"/>
<path fill-rule="evenodd" clip-rule="evenodd" d="M8.31542 132.72L-12.7462 130.354L-10.3862 109.295L10.6776 111.661L8.31542 132.72Z" fill="#FDBC6E"/>
<path fill-rule="evenodd" clip-rule="evenodd" d="M18.4776 48.2195L-2.57985 45.8699L-0.234805 24.8172L20.8226 27.1668L18.4776 48.2195Z" fill="#E03854"/>
<path fill-rule="evenodd" clip-rule="evenodd" d="M15.9339 69.3513L-5.13018 66.9869L-2.76828 45.9277L18.2947 48.2944L15.9339 69.3513Z" fill="#5C4882"/>
<path fill-rule="evenodd" clip-rule="evenodd" d="M5.78148 153.831L-15.2759 151.481L-12.9308 130.428L8.12659 132.778L5.78148 153.831Z" fill="#E03854"/>
<path fill-rule="evenodd" clip-rule="evenodd" d="M29.4476 135.252L8.39018 132.903L10.7352 111.85L31.7927 114.2L29.4476 135.252Z" fill="#5C4882"/>
<path fill-rule="evenodd" clip-rule="evenodd" d="M37.0653 71.8855L16.0079 69.5359L18.353 48.4832L39.4104 50.8328L37.0653 71.8855Z" fill="#FDBC6E"/>
<path fill-rule="evenodd" clip-rule="evenodd" d="M34.5208 93.0188L13.4576 90.6527L15.8192 69.5941L36.8824 71.9602L34.5208 93.0188Z" fill="#5C4882"/>
<path fill-rule="evenodd" clip-rule="evenodd" d="M31.9815 114.141L10.9182 111.775L13.2798 90.7164L34.3431 93.0825L31.9815 114.141Z" fill="#5859C3"/>
<path fill-rule="evenodd" clip-rule="evenodd" d="M42.1437 29.6411L21.0864 27.2915L23.4315 6.23879L44.4888 8.58838L42.1437 29.6411Z" fill="#E03854"/>
<path fill-rule="evenodd" clip-rule="evenodd" d="M39.5999 50.7727L18.5358 48.4083L20.8977 27.3491L41.9607 29.7158L39.5999 50.7727Z" fill="#5859C3"/>
<path fill-rule="evenodd" clip-rule="evenodd" d="M53.1134 116.674L32.0564 114.324L34.4018 93.2707L55.4588 95.6209L53.1134 116.674Z" fill="#FDBC6E"/>
<path fill-rule="evenodd" clip-rule="evenodd" d="M58.1922 74.4292L37.1343 72.0794L39.48 51.0269L60.5379 53.3768L58.1922 74.4292Z" fill="#E03854"/>
<path fill-rule="evenodd" clip-rule="evenodd" d="M55.6477 95.5625L34.5838 93.1961L36.946 72.1378L58.0076 74.5031L55.6477 95.5625Z" fill="#5C4882"/>
<path fill-rule="evenodd" clip-rule="evenodd" d="M76.7797 98.0958L55.7226 95.7456L58.0679 74.6923L79.125 77.0425L76.7797 98.0958Z" fill="#E03854"/>
<path fill-rule="evenodd" clip-rule="evenodd" d="M74.2354 119.229L53.1721 116.862L55.5337 95.8038L76.597 98.1699L74.2354 119.229Z" fill="#5C4882"/>
<path fill-rule="evenodd" clip-rule="evenodd" d="M79.3138 76.9841L58.2505 74.618L60.6121 53.5594L81.6754 55.9255L79.3138 76.9841Z" fill="#5859C3"/>
<path fill-rule="evenodd" clip-rule="evenodd" d="M97.9068 100.639L76.8495 98.2893L79.1946 77.2367L100.252 79.5863L97.9068 100.639Z" fill="#E03854"/>
<path fill-rule="evenodd" clip-rule="evenodd" d="M95.3622 121.772L74.299 119.406L76.6606 98.3475L97.7239 100.714L95.3622 121.772Z" fill="#FDBC6E"/>
<path fill-rule="evenodd" clip-rule="evenodd" d="M92.823 142.895L71.7598 140.528L74.1214 119.47L95.1847 121.836L92.823 142.895Z" fill="#5859C3"/>
<path fill-rule="evenodd" clip-rule="evenodd" d="M102.985 58.3945L81.9279 56.0449L84.273 34.9922L105.33 37.3418L102.985 58.3945Z" fill="#E03854"/>
<path fill-rule="evenodd" clip-rule="evenodd" d="M100.44 79.5284L79.3775 77.1617L81.7383 56.1048L102.802 58.4692L100.44 79.5284Z" fill="#FDBC6E"/>
<path fill-rule="evenodd" clip-rule="evenodd" d="M116.495 124.305L95.4372 121.955L97.7822 100.902L118.84 103.252L116.495 124.305Z" fill="#E03854"/>
<path fill-rule="evenodd" clip-rule="evenodd" d="M113.95 145.438L92.8867 143.072L95.2484 122.013L116.312 124.38L113.95 145.438Z" fill="#5C4882"/>
<path fill-rule="evenodd" clip-rule="evenodd" d="M111.411 166.56L90.3474 164.194L92.709 143.136L113.772 145.502L111.411 166.56Z" fill="#E03854"/>
<path fill-rule="evenodd" clip-rule="evenodd" d="M121.573 82.0603L100.516 79.7107L102.861 58.658L123.918 61.0076L121.573 82.0603Z" fill="#E03854"/>
<path fill-rule="evenodd" clip-rule="evenodd" d="M119.028 103.194L97.9651 100.828L100.327 79.7691L121.39 82.1352L119.028 103.194Z" fill="#5C4882"/>
<path fill-rule="evenodd" clip-rule="evenodd" d="M137.621 126.848L116.564 124.499L118.909 103.446L139.967 105.796L137.621 126.848Z" fill="#5859C3"/>
<path fill-rule="evenodd" clip-rule="evenodd" d="M135.077 147.982L114.014 145.616L116.375 124.557L137.439 126.923L135.077 147.982Z" fill="#FDBC6E"/>
<path fill-rule="evenodd" clip-rule="evenodd" d="M132.538 169.105L111.474 166.738L113.836 145.679L134.899 148.046L132.538 169.105Z" fill="#5859C3"/>
<path fill-rule="evenodd" clip-rule="evenodd" d="M142.7 84.604L121.643 82.2544L123.988 61.2017L145.045 63.5513L142.7 84.604Z" fill="#FDBC6E"/>
<path fill-rule="evenodd" clip-rule="evenodd" d="M140.155 105.738L119.092 103.371L121.454 82.3128L142.517 84.6789L140.155 105.738Z" fill="#5C4882"/>
<path fill-rule="evenodd" clip-rule="evenodd" d="M156.209 150.514L135.152 148.165L137.497 127.112L158.554 129.462L156.209 150.514Z" fill="#E03854"/>
<path fill-rule="evenodd" clip-rule="evenodd" d="M153.664 171.649L132.601 169.282L134.963 148.223L156.026 150.589L153.664 171.649Z" fill="#FDBC6E"/>
<path fill-rule="evenodd" clip-rule="evenodd" d="M151.125 192.77L130.062 190.404L132.424 169.345L153.487 171.711L151.125 192.77Z" fill="#5859C3"/>
<path fill-rule="evenodd" clip-rule="evenodd" d="M161.288 108.268L140.232 105.921L142.576 84.8671L163.633 87.2176L161.288 108.268Z" fill="#E03854"/>
<path fill-rule="evenodd" clip-rule="evenodd" d="M158.743 129.404L137.681 127.038L140.041 105.979L161.105 108.345L158.743 129.404Z" fill="#5C4882"/>
<path fill-rule="evenodd" clip-rule="evenodd" d="M177.336 153.058L156.279 150.709L158.624 129.656L179.681 132.005L177.336 153.058Z" fill="#E03854"/>
<path fill-rule="evenodd" clip-rule="evenodd" d="M174.792 174.192L153.728 171.826L156.09 150.767L177.153 153.133L174.792 174.192Z" fill="#5C4882"/>
<path fill-rule="evenodd" clip-rule="evenodd" d="M172.252 195.314L151.189 192.948L153.551 171.889L174.614 174.255L172.252 195.314Z" fill="#5859C3"/>
<path fill-rule="evenodd" clip-rule="evenodd" d="M179.87 131.947L158.808 129.582L161.168 108.522L182.232 110.889L179.87 131.947Z" fill="#FDBC6E"/>
<path fill-rule="evenodd" clip-rule="evenodd" d="M201.002 134.48L179.945 132.13L182.29 111.077L203.347 113.427L201.002 134.48Z" fill="#E03854"/>
<path fill-rule="evenodd" clip-rule="evenodd" d="M198.458 155.613L177.394 153.247L179.756 132.188L200.819 134.554L198.458 155.613Z" fill="#5C4882"/>
<path fill-rule="evenodd" clip-rule="evenodd" d="M195.918 176.736L174.855 174.369L177.217 153.31L198.28 155.677L195.918 176.736Z" fill="#E03854"/>
<path fill-rule="evenodd" clip-rule="evenodd" d="M203.536 113.369L182.473 111.003L184.834 89.944L205.898 92.3101L203.536 113.369Z" fill="#5C4882"/>
<path fill-rule="evenodd" clip-rule="evenodd" d="M26.9724 156.239L48.2403 159.176L45.3076 180.439L24.0397 177.502L26.9724 156.239Z" fill="#FDBC6E"/>
<path fill-rule="evenodd" clip-rule="evenodd" d="M90.3531 163.87L111.621 166.807L108.688 188.07L87.4205 185.133L90.3531 163.87Z" fill="#FDBC6E"/>
<path fill-rule="evenodd" clip-rule="evenodd" d="M147.842 42.2244L169.11 45.1615L166.178 66.4246L144.91 63.4875L147.842 42.2244Z" fill="#5C4882"/>
<path fill-rule="evenodd" clip-rule="evenodd" d="M222.129 137.023L201.071 134.674L203.417 113.621L224.475 115.971L222.129 137.023Z" fill="#5859C3"/>
<path fill-rule="evenodd" clip-rule="evenodd" d="M219.585 158.157L198.521 155.791L200.883 134.732L221.947 137.099L219.585 158.157Z" fill="#FDBC6E"/>
<path fill-rule="evenodd" clip-rule="evenodd" d="M217.045 179.279L195.982 176.913L198.344 155.854L219.405 158.22L217.045 179.279Z" fill="#5859C3"/>
<path fill-rule="evenodd" clip-rule="evenodd" d="M214.506 200.401L193.443 198.035L195.805 176.976L216.868 179.343L214.506 200.401Z" fill="#FDBC6E"/>
<path fill-rule="evenodd" clip-rule="evenodd" d="M211.968 221.522L190.904 219.157L193.266 198.098L214.329 200.465L211.968 221.522Z" fill="#5859C3"/>
<path fill-rule="evenodd" clip-rule="evenodd" d="M199.358 87.3813L178.295 85.0152L180.656 63.9566L201.72 66.3227L199.358 87.3813Z" fill="#5859C3"/>
<path fill-rule="evenodd" clip-rule="evenodd" d="M238.172 181.823L217.108 179.456L219.471 158.398L240.532 160.763L238.172 181.823Z" fill="#5C4882"/>
<path fill-rule="evenodd" clip-rule="evenodd" d="M235.633 202.945L214.569 200.579L216.931 179.52L237.993 181.886L235.633 202.945Z" fill="#5859C3"/>
<path fill-rule="evenodd" clip-rule="evenodd" d="M233.094 224.067L212.031 221.701L214.392 200.642L235.455 203.009L233.094 224.067Z" fill="#FDBC6E"/>
<path fill-rule="evenodd" clip-rule="evenodd" d="M230.555 245.189L209.491 242.823L211.853 221.765L232.916 224.131L230.555 245.189Z" fill="#E03854"/>
<path fill-rule="evenodd" clip-rule="evenodd" d="M243.251 139.578L222.187 137.212L224.549 116.154L245.612 118.52L243.251 139.578Z" fill="#FDBC6E"/>
<path fill-rule="evenodd" clip-rule="evenodd" d="M264.384 142.109L243.325 139.761L245.671 118.708L266.729 121.058L264.384 142.109Z" fill="#E03854"/>
<path fill-rule="evenodd" clip-rule="evenodd" d="M261.838 163.244L240.777 160.879L243.137 139.82L264.201 142.186L261.838 163.244Z" fill="#5C4882"/>
<path fill-rule="evenodd" clip-rule="evenodd" d="M259.299 184.366L238.235 182L240.598 160.942L261.661 163.308L259.299 184.366Z" fill="#5859C3"/>
<path fill-rule="evenodd" clip-rule="evenodd" d="M256.76 205.489L235.697 203.123L238.058 182.064L259.122 184.43L256.76 205.489Z" fill="#FDBC6E"/>
<path fill-rule="evenodd" clip-rule="evenodd" d="M254.221 226.611L233.157 224.245L235.519 203.186L256.582 205.552L254.221 226.611Z" fill="#E03854"/>
<path fill-rule="evenodd" clip-rule="evenodd" d="M280.431 186.899L259.374 184.549L261.719 163.497L282.776 165.846L280.431 186.899Z" fill="#E03854"/>
<path fill-rule="evenodd" clip-rule="evenodd" d="M277.888 208.031L256.824 205.666L259.186 184.607L280.249 186.974L277.888 208.031Z" fill="#5C4882"/>
<path fill-rule="evenodd" clip-rule="evenodd" d="M275.347 229.155L254.284 226.788L256.645 205.732L277.709 208.096L275.347 229.155Z" fill="#5859C3"/>
<path fill-rule="evenodd" clip-rule="evenodd" d="M272.809 250.275L251.745 247.911L254.107 226.852L275.17 229.218L272.809 250.275Z" fill="#FDBC6E"/>
<path fill-rule="evenodd" clip-rule="evenodd" d="M270.269 271.399L249.206 269.033L251.568 247.974L272.631 250.341L270.269 271.399Z" fill="#5859C3"/>
<path fill-rule="evenodd" clip-rule="evenodd" d="M282.965 165.788L261.902 163.422L264.264 142.363L285.327 144.729L282.965 165.788Z" fill="#5C4882"/>
<path fill-rule="evenodd" clip-rule="evenodd" d="M301.558 189.443L280.5 187.093L282.846 166.04L303.904 168.39L301.558 189.443Z" fill="#E03854"/>
<path fill-rule="evenodd" clip-rule="evenodd" d="M299.014 210.576L277.95 208.21L280.312 187.151L301.374 189.517L299.014 210.576Z" fill="#FDBC6E"/>
<path fill-rule="evenodd" clip-rule="evenodd" d="M296.475 231.697L275.411 229.332L277.773 208.273L298.835 210.639L296.475 231.697Z" fill="#5859C3"/>
<path fill-rule="evenodd" clip-rule="evenodd" d="M293.935 252.821L272.872 250.454L275.234 229.396L296.297 231.762L293.935 252.821Z" fill="#E03854"/>
<path fill-rule="evenodd" clip-rule="evenodd" d="M291.396 273.943L270.333 271.577L272.695 250.518L293.758 252.884L291.396 273.943Z" fill="#FDBC6E"/>
<path fill-rule="evenodd" clip-rule="evenodd" d="M304.092 168.332L283.029 165.966L285.391 144.907L306.454 147.273L304.092 168.332Z" fill="#5859C3"/>
<path fill-rule="evenodd" clip-rule="evenodd" d="M317.607 234.231L296.55 231.881L298.895 210.829L319.952 213.178L317.607 234.231Z" fill="#E03854"/>
<path fill-rule="evenodd" clip-rule="evenodd" d="M315.062 255.364L293.999 252.998L296.361 231.939L317.424 234.306L315.062 255.364Z" fill="#5C4882"/>
<path fill-rule="evenodd" clip-rule="evenodd" d="M309.984 297.609L288.921 295.243L291.282 274.184L312.346 276.55L309.984 297.609Z" fill="#FDBC6E"/>
<path fill-rule="evenodd" clip-rule="evenodd" d="M307.445 318.731L286.381 316.365L288.743 295.306L309.806 297.672L307.445 318.731Z" fill="#E03854"/>
<path fill-rule="evenodd" clip-rule="evenodd" d="M322.685 191.987L301.628 189.637L303.973 168.584L325.03 170.934L322.685 191.987Z" fill="#FDBC6E"/>
<path fill-rule="evenodd" clip-rule="evenodd" d="M341.273 215.653L320.216 213.303L322.561 192.249L343.618 194.6L341.273 215.653Z" fill="#5859C3"/>
<path fill-rule="evenodd" clip-rule="evenodd" d="M338.728 236.786L317.665 234.42L320.027 213.361L341.09 215.727L338.728 236.786Z" fill="#5C4882"/>
<path fill-rule="evenodd" clip-rule="evenodd" d="M336.19 257.906L315.126 255.542L317.488 234.483L338.551 236.849L336.19 257.906Z" fill="#5859C3"/>
<path fill-rule="evenodd" clip-rule="evenodd" d="M333.65 279.03L312.587 276.664L314.948 255.605L336.012 257.972L333.65 279.03Z" fill="#FDBC6E"/>
<path fill-rule="evenodd" clip-rule="evenodd" d="M331.111 300.152L310.048 297.786L312.409 276.728L333.472 279.094L331.111 300.152Z" fill="#5859C3"/>
<path fill-rule="evenodd" clip-rule="evenodd" d="M228.085 266.165L249.353 269.102L246.42 290.365L225.152 287.428L228.085 266.165Z" fill="#FDBC6E"/>
<path fill-rule="evenodd" clip-rule="evenodd" d="M307.514 318.585L328.782 321.522L325.848 342.787L304.581 339.848L307.514 318.585Z" fill="#FDBC6E"/>
<g filter="url(#filter0_d)">
<path fill-rule="evenodd" clip-rule="evenodd" d="M296.475 231.698L275.411 229.332L277.773 208.274L298.836 210.64L296.475 231.698Z" fill="#6B6CDA"/>
</g>
<g filter="url(#filter1_d)">
<path fill-rule="evenodd" clip-rule="evenodd" d="M92.823 142.895L71.7598 140.528L74.1214 119.47L95.1847 121.836L92.823 142.895Z" fill="#6B6CDA"/>
</g>
<g filter="url(#filter2_d)">
<path fill-rule="evenodd" clip-rule="evenodd" d="M100.441 79.5278L79.3775 77.1617L81.7391 56.1031L102.802 58.4692L100.441 79.5278Z" fill="#FFC681"/>
</g>
<g filter="url(#filter3_d)">
<path fill-rule="evenodd" clip-rule="evenodd" d="M333.65 279.03L312.587 276.664L314.948 255.605L336.012 257.972L333.65 279.03Z" fill="#FFC681"/>
</g>
<path fill-rule="evenodd" clip-rule="evenodd" d="M50.5746 137.796L29.5172 135.446L31.8623 114.394L52.9197 116.743L50.5746 137.796Z" fill="#E03854"/>
<path fill-rule="evenodd" clip-rule="evenodd" d="M48.0353 158.918L26.9774 156.568L29.323 135.516L50.381 137.866L48.0353 158.918Z" fill="#5C4882"/>
<path fill-rule="evenodd" clip-rule="evenodd" d="M90.2892 164.006L69.2318 161.656L71.5768 140.603L92.6343 142.953L90.2892 164.006Z" fill="#E03854"/>
<path fill-rule="evenodd" clip-rule="evenodd" d="M69.163 161.46L48.1049 159.112L50.4502 138.059L71.5073 140.409L69.163 161.46Z" fill="#5C4882"/>
<path fill-rule="evenodd" clip-rule="evenodd" d="M64.0838 203.706L43.0265 201.356L45.3716 180.304L66.4289 182.653L64.0838 203.706Z" fill="#E03854"/>
<path fill-rule="evenodd" clip-rule="evenodd" d="M84.3973 34.7291L63.3402 32.3789L65.6856 11.3257L86.7426 13.6759L84.3973 34.7291Z" fill="#FDBC6E"/>
<g filter="url(#filter4_d)">
<path fill-rule="evenodd" clip-rule="evenodd" d="M307.445 318.731L286.381 316.365L288.743 295.306L309.806 297.672L307.445 318.731Z" fill="#FF405F"/>
</g>
<g filter="url(#filter5_d)">
<path fill-rule="evenodd" clip-rule="evenodd" d="M177.331 153.069L156.267 150.703L158.629 129.645L179.692 132.011L177.331 153.069Z" fill="#FF405F"/>
</g>
<g filter="url(#filter6_d)">
<path fill-rule="evenodd" clip-rule="evenodd" d="M64.0785 203.717L43.0153 201.351L45.3769 180.293L66.4401 182.659L64.0785 203.717Z" fill="#FF405F"/>
</g>
<g filter="url(#filter7_d)">
<path fill-rule="evenodd" clip-rule="evenodd" d="M10.8547 111.597L-10.2086 109.231L-7.84703 88.1726L13.2163 90.5387L10.8547 111.597Z" fill="#745CA1"/>
</g>
<g filter="url(#filter8_d)">
<path fill-rule="evenodd" clip-rule="evenodd" d="M261.838 163.244L240.775 160.878L243.137 139.82L264.2 142.186L261.838 163.244Z" fill="#745CA1"/>
</g>
<path fill-rule="evenodd" clip-rule="evenodd" d="M190.84 218.98L169.777 216.614L172.138 195.555L193.202 197.921L190.84 218.98Z" fill="#E03854"/>
<path fill-rule="evenodd" clip-rule="evenodd" d="M169.713 216.436L148.65 214.07L151.011 193.011L172.075 195.377L169.713 216.436Z" fill="#FDBC6E"/>
<path fill-rule="evenodd" clip-rule="evenodd" d="M147.784 214.294L170.051 216.131L168.219 238.393L145.952 236.559L147.784 214.294Z" fill="#E03854"/>
<path fill-rule="evenodd" clip-rule="evenodd" d="M-3.83078 122.564L-25.02 122.575L-25.0325 101.392L-3.8441 101.383L-3.83078 122.564Z" fill="#E03854"/>
<path fill-rule="evenodd" clip-rule="evenodd" d="M-4.00715 143.851L-25.2012 143.846L-25.2005 122.654L-4.00413 122.661L-4.00715 143.851Z" fill="#5C4882"/>
<path fill-rule="evenodd" clip-rule="evenodd" d="M-4.17903 165.125L-25.3754 165.118L-25.3724 143.928L-4.17602 143.935L-4.17903 165.125Z" fill="#5859C3"/>
<path fill-rule="evenodd" clip-rule="evenodd" d="M-4.35084 186.398L-25.5466 186.392L-25.5442 165.201L-4.34843 165.208L-4.35084 186.398Z" fill="#FDBC6E"/>
<path fill-rule="evenodd" clip-rule="evenodd" d="M-4.52278 207.672L-25.7186 207.666L-25.7161 186.475L-4.52034 186.481L-4.52278 207.672Z" fill="#E03854"/>
<path fill-rule="evenodd" clip-rule="evenodd" d="M17.1037 165.289L-4.08433 165.298L-4.09766 144.116L17.0903 144.106L17.1037 165.289Z" fill="#E03854"/>
<path fill-rule="evenodd" clip-rule="evenodd" d="M16.9285 186.573L-4.26787 186.568L-4.26524 165.377L16.9303 165.384L16.9285 186.573Z" fill="#5C4882"/>
<path fill-rule="evenodd" clip-rule="evenodd" d="M16.7558 207.849L-4.43968 207.842L-4.43784 186.653L16.7585 186.657L16.7558 207.849Z" fill="#5859C3"/>
<path fill-rule="evenodd" clip-rule="evenodd" d="M16.5848 229.12L-4.61158 229.115L-4.60893 207.924L16.5866 207.931L16.5848 229.12Z" fill="#FDBC6E"/>
<path fill-rule="evenodd" clip-rule="evenodd" d="M16.4123 250.395L-4.78347 250.389L-4.78104 229.198L16.4147 229.204L16.4123 250.395Z" fill="#5859C3"/>
<path fill-rule="evenodd" clip-rule="evenodd" d="M17.2717 144.027L-3.92416 144.021L-3.92174 122.83L17.2741 122.836L17.2717 144.027Z" fill="#5C4882"/>
<path fill-rule="evenodd" clip-rule="evenodd" d="M38.3823 165.465L17.1939 165.474L17.1814 144.291L38.3698 144.282L38.3823 165.465Z" fill="#E03854"/>
<path fill-rule="evenodd" clip-rule="evenodd" d="M38.2067 186.75L17.0103 186.743L17.0133 165.553L38.2073 165.559L38.2067 186.75Z" fill="#FDBC6E"/>
<path fill-rule="evenodd" clip-rule="evenodd" d="M38.0354 208.022L16.8384 208.017L16.8417 186.826L38.0355 186.832L38.0354 208.022Z" fill="#5859C3"/>
<path fill-rule="evenodd" clip-rule="evenodd" d="M37.863 229.297L16.6671 229.291L16.6696 208.1L37.8654 208.107L37.863 229.297Z" fill="#E03854"/>
<path fill-rule="evenodd" clip-rule="evenodd" d="M37.6911 250.571L16.4954 250.564L16.4978 229.374L37.6936 229.38L37.6911 250.571Z" fill="#FDBC6E"/>
<path fill-rule="evenodd" clip-rule="evenodd" d="M38.5503 144.203L17.3545 144.197L17.357 123.006L38.5527 123.012L38.5503 144.203Z" fill="#5859C3"/>
<path fill-rule="evenodd" clip-rule="evenodd" d="M59.3176 208.188L38.1296 208.197L38.1162 187.014L59.3043 187.005L59.3176 208.188Z" fill="#E03854"/>
<path fill-rule="evenodd" clip-rule="evenodd" d="M59.1417 229.473L37.9459 229.467L37.9484 208.276L59.1441 208.283L59.1417 229.473Z" fill="#5C4882"/>
<path fill-rule="evenodd" clip-rule="evenodd" d="M58.798 272.02L37.6023 272.014L37.6047 250.823L58.8005 250.83L58.798 272.02Z" fill="#FDBC6E"/>
<path fill-rule="evenodd" clip-rule="evenodd" d="M58.6262 293.294L37.4304 293.288L37.4329 272.097L58.6286 272.103L58.6262 293.294Z" fill="#E03854"/>
<path fill-rule="evenodd" clip-rule="evenodd" d="M59.6613 165.641L38.4732 165.65L38.4599 144.467L59.6479 144.458L59.6613 165.641Z" fill="#FDBC6E"/>
<path fill-rule="evenodd" clip-rule="evenodd" d="M80.768 187.091L59.5802 187.099L59.5671 165.916L80.7549 165.907L80.768 187.091Z" fill="#5859C3"/>
<path fill-rule="evenodd" clip-rule="evenodd" d="M80.5923 208.376L59.3965 208.369L59.399 187.178L80.5948 187.185L80.5923 208.376Z" fill="#5C4882"/>
<path fill-rule="evenodd" clip-rule="evenodd" d="M80.4211 229.647L59.2247 229.643L59.2273 208.451L80.4229 208.458L80.4211 229.647Z" fill="#5859C3"/>
<path fill-rule="evenodd" clip-rule="evenodd" d="M80.2487 250.923L59.0529 250.916L59.0553 229.726L80.2511 229.732L80.2487 250.923Z" fill="#FDBC6E"/>
<path fill-rule="evenodd" clip-rule="evenodd" d="M80.0768 272.196L58.881 272.19L58.8834 250.999L80.0792 251.005L80.0768 272.196Z" fill="#5859C3"/>
<path fill-rule="evenodd" clip-rule="evenodd" d="M101.532 251.085L80.3428 251.096L80.3303 229.913L101.519 229.904L101.532 251.085Z" fill="#E03854"/>
<path fill-rule="evenodd" clip-rule="evenodd" d="M101.356 272.372L80.1592 272.365L80.1623 251.175L101.359 251.181L101.356 272.372Z" fill="#5C4882"/>
<path fill-rule="evenodd" clip-rule="evenodd" d="M101.184 293.646L79.9873 293.639L79.9904 272.448L101.187 272.455L101.184 293.646Z" fill="#5859C3"/>
<path fill-rule="evenodd" clip-rule="evenodd" d="M101.012 314.919L79.8162 314.913L79.8186 293.722L101.014 293.729L101.012 314.919Z" fill="#FDBC6E"/>
<path fill-rule="evenodd" clip-rule="evenodd" d="M100.84 336.193L79.6442 336.186L79.6466 314.996L100.842 315.002L100.84 336.193Z" fill="#5859C3"/>
<path fill-rule="evenodd" clip-rule="evenodd" d="M101.875 208.539L80.6871 208.549L80.6738 187.366L101.862 187.356L101.875 208.539Z" fill="#FDBC6E"/>
<path fill-rule="evenodd" clip-rule="evenodd" d="M122.81 251.263L101.624 251.272L101.609 230.088L122.797 230.08L122.81 251.263Z" fill="#FDBC6E"/>
<path fill-rule="evenodd" clip-rule="evenodd" d="M122.634 272.548L101.44 272.542L101.441 251.351L122.637 251.357L122.634 272.548Z" fill="#5C4882"/>
<path fill-rule="evenodd" clip-rule="evenodd" d="M122.463 293.82L101.266 293.815L101.269 272.624L122.466 272.631L122.463 293.82Z" fill="#E03854"/>
<path fill-rule="evenodd" clip-rule="evenodd" d="M122.291 315.095L101.095 315.089L101.097 293.898L122.293 293.904L122.291 315.095Z" fill="#FDBC6E"/>
<path fill-rule="evenodd" clip-rule="evenodd" d="M122.119 336.369L100.923 336.362L100.925 315.172L122.121 315.178L122.119 336.369Z" fill="#E03854"/>
<path fill-rule="evenodd" clip-rule="evenodd" d="M123.154 208.715L101.966 208.724L101.953 187.542L123.141 187.532L123.154 208.715Z" fill="#E03854"/>
<path fill-rule="evenodd" clip-rule="evenodd" d="M122.978 230.001L101.782 229.994L101.785 208.803L122.98 208.81L122.978 230.001Z" fill="#5C4882"/>
<path fill-rule="evenodd" clip-rule="evenodd" d="M144.085 251.45L122.889 251.443L122.892 230.253L144.086 230.259L144.085 251.45Z" fill="#5C4882"/>
<path fill-rule="evenodd" clip-rule="evenodd" d="M143.913 272.724L122.717 272.717L122.72 251.527L143.916 251.533L143.913 272.724Z" fill="#5859C3"/>
<path fill-rule="evenodd" clip-rule="evenodd" d="M143.741 293.997L122.545 293.991L122.548 272.8L143.744 272.806L143.741 293.997Z" fill="#FDBC6E"/>
<path fill-rule="evenodd" clip-rule="evenodd" d="M143.57 315.269L122.374 315.264L122.376 294.073L143.572 294.08L143.57 315.269Z" fill="#5859C3"/>
<path fill-rule="evenodd" clip-rule="evenodd" d="M165.196 272.888L144.008 272.897L143.995 251.714L165.183 251.705L165.196 272.888Z" fill="#E03854"/>
<path fill-rule="evenodd" clip-rule="evenodd" d="M165.02 294.173L143.824 294.166L143.827 272.976L165.023 272.982L165.02 294.173Z" fill="#5C4882"/>
<path fill-rule="evenodd" clip-rule="evenodd" d="M164.848 315.447L143.652 315.44L143.655 294.25L164.851 294.256L164.848 315.447Z" fill="#5859C3"/>
<path fill-rule="evenodd" clip-rule="evenodd" d="M164.676 336.72L143.481 336.714L143.483 315.523L164.679 315.529L164.676 336.72Z" fill="#FDBC6E"/>
<path fill-rule="evenodd" clip-rule="evenodd" d="M164.505 357.994L143.309 357.987L143.311 336.797L164.507 336.803L164.505 357.994Z" fill="#5859C3"/>
<path fill-rule="evenodd" clip-rule="evenodd" d="M165.54 230.34L144.351 230.35L144.338 209.167L165.525 209.157L165.54 230.34Z" fill="#FDBC6E"/>
<path fill-rule="evenodd" clip-rule="evenodd" d="M165.364 251.626L144.167 251.619L144.17 230.429L165.364 230.434L165.364 251.626Z" fill="#5C4882"/>
<path fill-rule="evenodd" clip-rule="evenodd" d="M186.471 273.075L165.275 273.069L165.277 251.878L186.473 251.885L186.471 273.075Z" fill="#FDBC6E"/>
<path fill-rule="evenodd" clip-rule="evenodd" d="M186.299 294.349L165.103 294.342L165.105 273.152L186.301 273.158L186.299 294.349Z" fill="#5859C3"/>
<path fill-rule="evenodd" clip-rule="evenodd" d="M186.127 315.622L164.931 315.616L164.934 294.425L186.129 294.432L186.127 315.622Z" fill="#FDBC6E"/>
<path fill-rule="evenodd" clip-rule="evenodd" d="M185.955 336.896L164.759 336.89L164.762 315.699L185.958 315.705L185.955 336.896Z" fill="#E03854"/>
<path fill-rule="evenodd" clip-rule="evenodd" d="M207.582 294.513L186.393 294.522L186.38 273.339L207.568 273.33L207.582 294.513Z" fill="#FDBC6E"/>
<path fill-rule="evenodd" clip-rule="evenodd" d="M207.234 337.072L186.038 337.065L186.041 315.875L207.236 315.881L207.234 337.072Z" fill="#5859C3"/>
<path fill-rule="evenodd" clip-rule="evenodd" d="M207.062 358.345L185.866 358.339L185.869 337.148L207.064 337.155L207.062 358.345Z" fill="#FDBC6E"/>
<path fill-rule="evenodd" clip-rule="evenodd" d="M206.891 379.617L185.694 379.613L185.697 358.422L206.893 358.428L206.891 379.617Z" fill="#5859C3"/>
<path fill-rule="evenodd" clip-rule="evenodd" d="M207.75 273.249L186.554 273.245L186.556 252.053L207.752 252.06L207.75 273.249Z" fill="#5C4882"/>
<path fill-rule="evenodd" clip-rule="evenodd" d="M-26.0927 249.89L-4.63008 250.441L-5.17727 271.899L-26.6399 271.348L-26.0927 249.89Z" fill="#FDBC6E"/>
<path fill-rule="evenodd" clip-rule="evenodd" d="M122.343 314.942L143.806 315.493L143.258 336.953L121.796 336.399L122.343 314.942Z" fill="#FDBC6E"/>
<path fill-rule="evenodd" clip-rule="evenodd" d="M80.9886 165.675L102.451 166.226L101.904 187.683L80.4414 187.132L80.9886 165.675Z" fill="#FDBC6E"/>
<path fill-rule="evenodd" clip-rule="evenodd" d="M58.6786 293.141L80.1413 293.692L79.5933 315.152L58.1314 314.598L58.6786 293.141Z" fill="#FDBC6E"/>
<path fill-rule="evenodd" clip-rule="evenodd" d="M228.517 337.236L207.329 337.245L207.315 316.062L228.503 316.053L228.517 337.236Z" fill="#E03854"/>
<path fill-rule="evenodd" clip-rule="evenodd" d="M228.341 358.521L207.145 358.515L207.148 337.324L228.343 337.33L228.341 358.521Z" fill="#5C4882"/>
<path fill-rule="evenodd" clip-rule="evenodd" d="M228.169 379.795L206.973 379.788L206.976 358.598L228.171 358.604L228.169 379.795Z" fill="#FDBC6E"/>
<path fill-rule="evenodd" clip-rule="evenodd" d="M228.685 315.972L207.488 315.967L207.491 294.776L228.685 294.783L228.685 315.972Z" fill="#5C4882"/>
<path fill-rule="evenodd" clip-rule="evenodd" d="M249.624 358.685L228.436 358.695L228.422 337.512L249.61 337.502L249.624 358.685Z" fill="#E03854"/>
<path fill-rule="evenodd" clip-rule="evenodd" d="M249.448 379.971L228.252 379.964L228.254 358.773L249.45 358.78L249.448 379.971Z" fill="#FDBC6E"/>
<path fill-rule="evenodd" clip-rule="evenodd" d="M249.276 401.244L228.08 401.238L228.083 380.047L249.278 380.054L249.276 401.244Z" fill="#E03854"/>
<path fill-rule="evenodd" clip-rule="evenodd" d="M249.967 316.138L228.779 316.148L228.766 294.965L249.954 294.955L249.967 316.138Z" fill="#FDBC6E"/>
<path fill-rule="evenodd" clip-rule="evenodd" d="M249.791 337.423L228.596 337.417L228.598 316.226L249.794 316.233L249.791 337.423Z" fill="#FDBC6E"/>
<path fill-rule="evenodd" clip-rule="evenodd" d="M270.902 358.862L249.714 358.87L249.701 337.687L270.889 337.678L270.902 358.862Z" fill="#5859C3"/>
<path fill-rule="evenodd" clip-rule="evenodd" d="M270.727 380.147L249.531 380.14L249.533 358.949L270.729 358.956L270.727 380.147Z" fill="#5C4882"/>
<path fill-rule="evenodd" clip-rule="evenodd" d="M270.555 401.418L249.359 401.414L249.362 380.222L270.557 380.229L270.555 401.418Z" fill="#5859C3"/>
<path fill-rule="evenodd" clip-rule="evenodd" d="M271.07 337.599L249.875 337.593L249.877 316.402L271.073 316.409L271.07 337.599Z" fill="#5C4882"/>
<path fill-rule="evenodd" clip-rule="evenodd" d="M292.181 359.037L270.993 359.046L270.98 337.863L292.168 337.854L292.181 359.037Z" fill="#FDBC6E"/>
<path fill-rule="evenodd" clip-rule="evenodd" d="M292.005 380.322L270.81 380.316L270.812 359.125L292.008 359.132L292.005 380.322Z" fill="#E03854"/>
<path fill-rule="evenodd" clip-rule="evenodd" d="M291.833 401.596L270.638 401.589L270.64 380.399L291.836 380.405L291.833 401.596Z" fill="#FDBC6E"/>
<path fill-rule="evenodd" clip-rule="evenodd" d="M292.525 316.49L271.337 316.499L271.324 295.316L292.512 295.307L292.525 316.49Z" fill="#5859C3"/>
<path fill-rule="evenodd" clip-rule="evenodd" d="M313.116 401.76L291.93 401.77L291.915 380.586L313.104 380.577L313.116 401.76Z" fill="#E03854"/>
<path fill-rule="evenodd" clip-rule="evenodd" d="M313.46 359.213L292.272 359.222L292.259 338.039L313.447 338.03L313.46 359.213Z" fill="#E03854"/>
<path fill-rule="evenodd" clip-rule="evenodd" d="M313.284 380.498L292.088 380.492L292.091 359.301L313.286 359.307L313.284 380.498Z" fill="#5859C3"/>
<path fill-rule="evenodd" clip-rule="evenodd" d="M334.567 380.662L313.378 380.671L313.366 359.489L334.554 359.479L334.567 380.662Z" fill="#E03854"/>
<path fill-rule="evenodd" clip-rule="evenodd" d="M334.391 401.948L313.195 401.941L313.198 380.75L334.392 380.756L334.391 401.948Z" fill="#FDBC6E"/>
<path fill-rule="evenodd" clip-rule="evenodd" d="M334.219 423.221L313.023 423.214L313.026 402.024L334.22 402.03L334.219 423.221Z" fill="#5859C3"/>
<path fill-rule="evenodd" clip-rule="evenodd" d="M334.735 359.4L313.539 359.394L313.541 338.203L334.737 338.21L334.735 359.4Z" fill="#FDBC6E"/>
<g filter="url(#filter9_d)">
<path fill-rule="evenodd" clip-rule="evenodd" d="M206.89 379.619L185.694 379.613L185.697 358.422L206.893 358.428L206.89 379.619Z" fill="#6B6CDA"/>
</g>
<g filter="url(#filter10_d)">
<path fill-rule="evenodd" clip-rule="evenodd" d="M206.89 379.619L185.694 379.613L185.697 358.422L206.893 358.428L206.89 379.619Z" fill="#6B6CDA"/>
</g>
<g filter="url(#filter11_d)">
<path fill-rule="evenodd" clip-rule="evenodd" d="M143.913 272.724L122.717 272.717L122.72 251.527L143.916 251.533L143.913 272.724Z" fill="#6B6CDA"/>
</g>
<g filter="url(#filter12_d)">
<path fill-rule="evenodd" clip-rule="evenodd" d="M38.0348 208.024L16.839 208.017L16.8415 186.827L38.0373 186.833L38.0348 208.024Z" fill="#6B6CDA"/>
</g>
<g filter="url(#filter13_d)">
<path fill-rule="evenodd" clip-rule="evenodd" d="M80.2487 250.923L59.0529 250.916L59.0553 229.726L80.2511 229.732L80.2487 250.923Z" fill="#FFC681"/>
</g>
<path fill-rule="evenodd" clip-rule="evenodd" d="M228.05 400.915L249.512 401.466L248.965 422.924L227.502 422.372L228.05 400.915Z" fill="#FDBC6E"/>
<path fill-rule="evenodd" clip-rule="evenodd" d="M291.714 422.716L313.177 423.267L312.63 444.725L291.167 444.174L291.714 422.716Z" fill="#FDBC6E"/>
<g filter="url(#filter14_d)">
<path fill-rule="evenodd" clip-rule="evenodd" d="M313.456 359.224L292.26 359.218L292.263 338.027L313.458 338.034L313.456 359.224Z" fill="#FF405F"/>
</g>
<g filter="url(#filter15_d)">
<path fill-rule="evenodd" clip-rule="evenodd" d="M58.6262 293.294L37.4304 293.288L37.4329 272.097L58.6286 272.103L58.6262 293.294Z" fill="#FF405F"/>
</g>
<g filter="url(#filter16_d)">
<path fill-rule="evenodd" clip-rule="evenodd" d="M-4.00715 143.851L-25.2029 143.845L-25.2005 122.654L-4.00474 122.661L-4.00715 143.851Z" fill="#745CA1"/>
</g>
<g filter="url(#filter17_d)">
<path fill-rule="evenodd" clip-rule="evenodd" d="M270.727 380.147L249.531 380.14L249.533 358.949L270.729 358.956L270.727 380.147Z" fill="#745CA1"/>
</g>
<g filter="url(#filter18_d)">
<path fill-rule="evenodd" clip-rule="evenodd" d="M172.948 395.076L151.752 395.07L151.755 373.879L172.951 373.886L172.948 395.076Z" fill="#6B6CDA"/>
</g>
<defs>
<filter id="filter0_d" x="267.707" y="201.071" width="40.8345" height="40.8306" filterUnits="userSpaceOnUse" color-interpolation-filters="sRGB">
<feFlood flood-opacity="0" result="BackgroundImageFix"/>
<feColorMatrix in="SourceAlpha" type="matrix" values="0 0 0 0 0 0 0 0 0 0 0 0 0 0 0 0 0 0 127 0"/>
<feOffset dx="1" dy="1.5"/>
<feGaussianBlur stdDeviation="1.25"/>
<feColorMatrix type="matrix" values="0 0 0 0 0 0 0 0 0 0 0 0 0 0 0 0 0 0 0.5 0"/>
<feBlend mode="normal" in2="BackgroundImageFix" result="effect1_dropShadow"/>
<feBlend mode="normal" in="SourceGraphic" in2="effect1_dropShadow" result="shape"/>
</filter>
<filter id="filter1_d" x="64.0551" y="112.267" width="40.8344" height="40.8305" filterUnits="userSpaceOnUse" color-interpolation-filters="sRGB">
<feFlood flood-opacity="0" result="BackgroundImageFix"/>
<feColorMatrix in="SourceAlpha" type="matrix" values="0 0 0 0 0 0 0 0 0 0 0 0 0 0 0 0 0 0 127 0"/>
<feOffset dx="1" dy="1.5"/>
<feGaussianBlur stdDeviation="1.25"/>
<feColorMatrix type="matrix" values="0 0 0 0 0 0 0 0 0 0 0 0 0 0 0 0 0 0 0.5 0"/>
<feBlend mode="normal" in2="BackgroundImageFix" result="effect1_dropShadow"/>
<feBlend mode="normal" in="SourceGraphic" in2="effect1_dropShadow" result="shape"/>
</filter>
<filter id="filter2_d" x="71.6727" y="48.9001" width="40.8344" height="40.8305" filterUnits="userSpaceOnUse" color-interpolation-filters="sRGB">
<feFlood flood-opacity="0" result="BackgroundImageFix"/>
<feColorMatrix in="SourceAlpha" type="matrix" values="0 0 0 0 0 0 0 0 0 0 0 0 0 0 0 0 0 0 127 0"/>
<feOffset dx="1" dy="1.5"/>
<feGaussianBlur stdDeviation="1.25"/>
<feColorMatrix type="matrix" values="0 0 0 0 0 0 0 0 0 0 0 0 0 0 0 0 0 0 0.5 0"/>
<feBlend mode="normal" in2="BackgroundImageFix" result="effect1_dropShadow"/>
<feBlend mode="normal" in="SourceGraphic" in2="effect1_dropShadow" result="shape"/>
</filter>
<filter id="filter3_d" x="304.882" y="248.403" width="40.8345" height="40.8306" filterUnits="userSpaceOnUse" color-interpolation-filters="sRGB">
<feFlood flood-opacity="0" result="BackgroundImageFix"/>
<feColorMatrix in="SourceAlpha" type="matrix" values="0 0 0 0 0 0 0 0 0 0 0 0 0 0 0 0 0 0 127 0"/>
<feOffset dx="1" dy="1.5"/>
<feGaussianBlur stdDeviation="1.25"/>
<feColorMatrix type="matrix" values="0 0 0 0 0 0 0 0 0 0 0 0 0 0 0 0 0 0 0.5 0"/>
<feBlend mode="normal" in2="BackgroundImageFix" result="effect1_dropShadow"/>
<feBlend mode="normal" in="SourceGraphic" in2="effect1_dropShadow" result="shape"/>
</filter>
<filter id="filter4_d" x="278.677" y="288.103" width="40.8345" height="40.8306" filterUnits="userSpaceOnUse" color-interpolation-filters="sRGB">
<feFlood flood-opacity="0" result="BackgroundImageFix"/>
<feColorMatrix in="SourceAlpha" type="matrix" values="0 0 0 0 0 0 0 0 0 0 0 0 0 0 0 0 0 0 127 0"/>
<feOffset dx="1" dy="1.5"/>
<feGaussianBlur stdDeviation="1.25"/>
<feColorMatrix type="matrix" values="0 0 0 0 0 0 0 0 0 0 0 0 0 0 0 0 0 0 0.5 0"/>
<feBlend mode="normal" in2="BackgroundImageFix" result="effect1_dropShadow"/>
<feBlend mode="normal" in="SourceGraphic" in2="effect1_dropShadow" result="shape"/>
</filter>
<filter id="filter5_d" x="148.563" y="122.442" width="40.8344" height="40.8305" filterUnits="userSpaceOnUse" color-interpolation-filters="sRGB">
<feFlood flood-opacity="0" result="BackgroundImageFix"/>
<feColorMatrix in="SourceAlpha" type="matrix" values="0 0 0 0 0 0 0 0 0 0 0 0 0 0 0 0 0 0 127 0"/>
<feOffset dx="1" dy="1.5"/>
<feGaussianBlur stdDeviation="1.25"/>
<feColorMatrix type="matrix" values="0 0 0 0 0 0 0 0 0 0 0 0 0 0 0 0 0 0 0.5 0"/>
<feBlend mode="normal" in2="BackgroundImageFix" result="effect1_dropShadow"/>
<feBlend mode="normal" in="SourceGraphic" in2="effect1_dropShadow" result="shape"/>
</filter>
<filter id="filter6_d" x="35.3105" y="173.09" width="40.8344" height="40.8305" filterUnits="userSpaceOnUse" color-interpolation-filters="sRGB">
<feFlood flood-opacity="0" result="BackgroundImageFix"/>
<feColorMatrix in="SourceAlpha" type="matrix" values="0 0 0 0 0 0 0 0 0 0 0 0 0 0 0 0 0 0 127 0"/>
<feOffset dx="1" dy="1.5"/>
<feGaussianBlur stdDeviation="1.25"/>
<feColorMatrix type="matrix" values="0 0 0 0 0 0 0 0 0 0 0 0 0 0 0 0 0 0 0.5 0"/>
<feBlend mode="normal" in2="BackgroundImageFix" result="effect1_dropShadow"/>
<feBlend mode="normal" in="SourceGraphic" in2="effect1_dropShadow" result="shape"/>
</filter>
<filter id="filter7_d" x="-17.9135" y="80.9697" width="40.8345" height="40.8306" filterUnits="userSpaceOnUse" color-interpolation-filters="sRGB">
<feFlood flood-opacity="0" result="BackgroundImageFix"/>
<feColorMatrix in="SourceAlpha" type="matrix" values="0 0 0 0 0 0 0 0 0 0 0 0 0 0 0 0 0 0 127 0"/>
<feOffset dx="1" dy="1.5"/>
<feGaussianBlur stdDeviation="1.25"/>
<feColorMatrix type="matrix" values="0 0 0 0 0 0 0 0 0 0 0 0 0 0 0 0 0 0 0.5 0"/>
<feBlend mode="normal" in2="BackgroundImageFix" result="effect1_dropShadow"/>
<feBlend mode="normal" in="SourceGraphic" in2="effect1_dropShadow" result="shape"/>
</filter>
<filter id="filter8_d" x="233.07" y="132.617" width="40.8345" height="40.8305" filterUnits="userSpaceOnUse" color-interpolation-filters="sRGB">
<feFlood flood-opacity="0" result="BackgroundImageFix"/>
<feColorMatrix in="SourceAlpha" type="matrix" values="0 0 0 0 0 0 0 0 0 0 0 0 0 0 0 0 0 0 127 0"/>
<feOffset dx="1" dy="1.5"/>
<feGaussianBlur stdDeviation="1.25"/>
<feColorMatrix type="matrix" values="0 0 0 0 0 0 0 0 0 0 0 0 0 0 0 0 0 0 0.5 0"/>
<feBlend mode="normal" in2="BackgroundImageFix" result="effect1_dropShadow"/>
<feBlend mode="normal" in="SourceGraphic" in2="effect1_dropShadow" result="shape"/>
</filter>
<filter id="filter9_d" x="177.702" y="350.931" width="39.1835" height="39.1785" filterUnits="userSpaceOnUse" color-interpolation-filters="sRGB">
<feFlood flood-opacity="0" result="BackgroundImageFix"/>
<feColorMatrix in="SourceAlpha" type="matrix" values="0 0 0 0 0 0 0 0 0 0 0 0 0 0 0 0 0 0 127 0"/>
<feOffset dx="1" dy="1.5"/>
<feGaussianBlur stdDeviation="1.25"/>
<feColorMatrix type="matrix" values="0 0 0 0 0 0 0 0 0 0 0 0 0 0 0 0 0 0 0.5 0"/>
<feBlend mode="normal" in2="BackgroundImageFix" result="effect1_dropShadow"/>
<feBlend mode="normal" in="SourceGraphic" in2="effect1_dropShadow" result="shape"/>
</filter>
<filter id="filter10_d" x="177.702" y="350.931" width="39.1835" height="39.1785" filterUnits="userSpaceOnUse" color-interpolation-filters="sRGB">
<feFlood flood-opacity="0" result="BackgroundImageFix"/>
<feColorMatrix in="SourceAlpha" type="matrix" values="0 0 0 0 0 0 0 0 0 0 0 0 0 0 0 0 0 0 127 0"/>
<feOffset dx="1" dy="1.5"/>
<feGaussianBlur stdDeviation="1.25"/>
<feColorMatrix type="matrix" values="0 0 0 0 0 0 0 0 0 0 0 0 0 0 0 0 0 0 0.5 0"/>
<feBlend mode="normal" in2="BackgroundImageFix" result="effect1_dropShadow"/>
<feBlend mode="normal" in="SourceGraphic" in2="effect1_dropShadow" result="shape"/>
</filter>
<filter id="filter11_d" x="114.725" y="244.036" width="39.1836" height="39.1784" filterUnits="userSpaceOnUse" color-interpolation-filters="sRGB">
<feFlood flood-opacity="0" result="BackgroundImageFix"/>
<feColorMatrix in="SourceAlpha" type="matrix" values="0 0 0 0 0 0 0 0 0 0 0 0 0 0 0 0 0 0 127 0"/>
<feOffset dx="1" dy="1.5"/>
<feGaussianBlur stdDeviation="1.25"/>
<feColorMatrix type="matrix" values="0 0 0 0 0 0 0 0 0 0 0 0 0 0 0 0 0 0 0.5 0"/>
<feBlend mode="normal" in2="BackgroundImageFix" result="effect1_dropShadow"/>
<feBlend mode="normal" in="SourceGraphic" in2="effect1_dropShadow" result="shape"/>
</filter>
<filter id="filter12_d" x="8.84637" y="179.336" width="39.1836" height="39.1785" filterUnits="userSpaceOnUse" color-interpolation-filters="sRGB">
<feFlood flood-opacity="0" result="BackgroundImageFix"/>
<feColorMatrix in="SourceAlpha" type="matrix" values="0 0 0 0 0 0 0 0 0 0 0 0 0 0 0 0 0 0 127 0"/>
<feOffset dx="1" dy="1.5"/>
<feGaussianBlur stdDeviation="1.25"/>
<feColorMatrix type="matrix" values="0 0 0 0 0 0 0 0 0 0 0 0 0 0 0 0 0 0 0.5 0"/>
<feBlend mode="normal" in2="BackgroundImageFix" result="effect1_dropShadow"/>
<feBlend mode="normal" in="SourceGraphic" in2="effect1_dropShadow" result="shape"/>
</filter>
<filter id="filter13_d" x="51.0602" y="222.235" width="39.1836" height="39.1785" filterUnits="userSpaceOnUse" color-interpolation-filters="sRGB">
<feFlood flood-opacity="0" result="BackgroundImageFix"/>
<feColorMatrix in="SourceAlpha" type="matrix" values="0 0 0 0 0 0 0 0 0 0 0 0 0 0 0 0 0 0 127 0"/>
<feOffset dx="1" dy="1.5"/>
<feGaussianBlur stdDeviation="1.25"/>
<feColorMatrix type="matrix" values="0 0 0 0 0 0 0 0 0 0 0 0 0 0 0 0 0 0 0.5 0"/>
<feBlend mode="normal" in2="BackgroundImageFix" result="effect1_dropShadow"/>
<feBlend mode="normal" in="SourceGraphic" in2="effect1_dropShadow" result="shape"/>
</filter>
<filter id="filter14_d" x="284.267" y="330.537" width="39.1835" height="39.1784" filterUnits="userSpaceOnUse" color-interpolation-filters="sRGB">
<feFlood flood-opacity="0" result="BackgroundImageFix"/>
<feColorMatrix in="SourceAlpha" type="matrix" values="0 0 0 0 0 0 0 0 0 0 0 0 0 0 0 0 0 0 127 0"/>
<feOffset dx="1" dy="1.5"/>
<feGaussianBlur stdDeviation="1.25"/>
<feColorMatrix type="matrix" values="0 0 0 0 0 0 0 0 0 0 0 0 0 0 0 0 0 0 0.5 0"/>
<feBlend mode="normal" in2="BackgroundImageFix" result="effect1_dropShadow"/>
<feBlend mode="normal" in="SourceGraphic" in2="effect1_dropShadow" result="shape"/>
</filter>
<filter id="filter15_d" x="29.4377" y="264.606" width="39.1835" height="39.1784" filterUnits="userSpaceOnUse" color-interpolation-filters="sRGB">
<feFlood flood-opacity="0" result="BackgroundImageFix"/>
<feColorMatrix in="SourceAlpha" type="matrix" values="0 0 0 0 0 0 0 0 0 0 0 0 0 0 0 0 0 0 127 0"/>
<feOffset dx="1" dy="1.5"/>
<feGaussianBlur stdDeviation="1.25"/>
<feColorMatrix type="matrix" values="0 0 0 0 0 0 0 0 0 0 0 0 0 0 0 0 0 0 0.5 0"/>
<feBlend mode="normal" in2="BackgroundImageFix" result="effect1_dropShadow"/>
<feBlend mode="normal" in="SourceGraphic" in2="effect1_dropShadow" result="shape"/>
</filter>
<filter id="filter16_d" x="-33.1956" y="115.164" width="39.1836" height="39.1784" filterUnits="userSpaceOnUse" color-interpolation-filters="sRGB">
<feFlood flood-opacity="0" result="BackgroundImageFix"/>
<feColorMatrix in="SourceAlpha" type="matrix" values="0 0 0 0 0 0 0 0 0 0 0 0 0 0 0 0 0 0 127 0"/>
<feOffset dx="1" dy="1.5"/>
<feGaussianBlur stdDeviation="1.25"/>
<feColorMatrix type="matrix" values="0 0 0 0 0 0 0 0 0 0 0 0 0 0 0 0 0 0 0.5 0"/>
<feBlend mode="normal" in2="BackgroundImageFix" result="effect1_dropShadow"/>
<feBlend mode="normal" in="SourceGraphic" in2="effect1_dropShadow" result="shape"/>
</filter>
<filter id="filter17_d" x="241.538" y="351.459" width="39.1835" height="39.1784" filterUnits="userSpaceOnUse" color-interpolation-filters="sRGB">
<feFlood flood-opacity="0" result="BackgroundImageFix"/>
<feColorMatrix in="SourceAlpha" type="matrix" values="0 0 0 0 0 0 0 0 0 0 0 0 0 0 0 0 0 0 127 0"/>
<feOffset dx="1" dy="1.5"/>
<feGaussianBlur stdDeviation="1.25"/>
<feColorMatrix type="matrix" values="0 0 0 0 0 0 0 0 0 0 0 0 0 0 0 0 0 0 0.5 0"/>
<feBlend mode="normal" in2="BackgroundImageFix" result="effect1_dropShadow"/>
<feBlend mode="normal" in="SourceGraphic" in2="effect1_dropShadow" result="shape"/>
</filter>
<filter id="filter18_d" x="143.76" y="366.388" width="39.1835" height="39.1784" filterUnits="userSpaceOnUse" color-interpolation-filters="sRGB">
<feFlood flood-opacity="0" result="BackgroundImageFix"/>
<feColorMatrix in="SourceAlpha" type="matrix" values="0 0 0 0 0 0 0 0 0 0 0 0 0 0 0 0 0 0 127 0"/>
<feOffset dx="1" dy="1.5"/>
<feGaussianBlur stdDeviation="1.25"/>
<feColorMatrix type="matrix" values="0 0 0 0 0 0 0 0 0 0 0 0 0 0 0 0 0 0 0.5 0"/>
<feBlend mode="normal" in2="BackgroundImageFix" result="effect1_dropShadow"/>
<feBlend mode="normal" in="SourceGraphic" in2="effect1_dropShadow" result="shape"/>
</filter>
</defs>
</svg>
