<svg width="221" height="158" viewBox="0 0 221 158" fill="none" xmlns="http://www.w3.org/2000/svg">
<path fill-rule="evenodd" clip-rule="evenodd" d="M221 106.337L198.563 114L190.864 91.6625L213.303 84L221 106.337Z" fill="#F4395F"/>
<path fill-rule="evenodd" clip-rule="evenodd" d="M106.482 127.337L84.0421 135L76.3455 112.663L98.7852 105L106.482 127.337Z" fill="#F4395F"/>
<path fill-rule="evenodd" clip-rule="evenodd" d="M137.623 150.351L115.17 158L107.486 135.649L129.939 128L137.623 150.351Z" fill="#FDBC6E"/>
<path fill-rule="evenodd" clip-rule="evenodd" d="M83.3773 135.337L60.9383 143L53.241 120.663L75.68 113L83.3773 135.337Z" fill="#FDBC6E"/>
<path fill-rule="evenodd" clip-rule="evenodd" d="M120.545 96.3513L98.0925 104L90.4091 81.6487L112.862 74L120.545 96.3513Z" fill="#5C4882"/>
<path fill-rule="evenodd" clip-rule="evenodd" d="M53.2409 121.351L30.788 129L23.1045 106.649L45.5574 99L53.2409 121.351Z" fill="#5859C3"/>
<path fill-rule="evenodd" clip-rule="evenodd" d="M30.1364 129.337L7.69736 137L0 114.663L22.439 107L30.1364 129.337Z" fill="#F4395F"/>
<path fill-rule="evenodd" clip-rule="evenodd" d="M190.864 6.93159L213.032 0L219.995 22.0684L197.827 29L190.864 6.93159Z" fill="#FDBC6E"/>
</svg>
