<svg width="683" height="183" viewBox="0 0 683 183" fill="none" xmlns="http://www.w3.org/2000/svg">
<path fill-rule="evenodd" clip-rule="evenodd" d="M540 36H558V18H540V36Z" fill="#FDBC6E"/>
<path fill-rule="evenodd" clip-rule="evenodd" d="M540 72H558V54H540V72Z" fill="#5C4882"/>
<path fill-rule="evenodd" clip-rule="evenodd" d="M540 90H558V72H540V90Z" fill="#E03854"/>
<path fill-rule="evenodd" clip-rule="evenodd" d="M540 126H558V108H540V126Z" fill="#E03854"/>
<path fill-rule="evenodd" clip-rule="evenodd" d="M540 144H558V126H540V144Z" fill="#E03854"/>
<path fill-rule="evenodd" clip-rule="evenodd" d="M522 54H540V36H522V54Z" fill="#FDBC6E"/>
<path fill-rule="evenodd" clip-rule="evenodd" d="M522 90H540V72H522V90Z" fill="#5859C3"/>
<path fill-rule="evenodd" clip-rule="evenodd" d="M522 108H540V90H522V108Z" fill="#5C4882"/>
<path fill-rule="evenodd" clip-rule="evenodd" d="M522 144H540V126H522V144Z" fill="#FDBC6E"/>
<path fill-rule="evenodd" clip-rule="evenodd" d="M558 54H576V36H558V54Z" fill="#E03854"/>
<path fill-rule="evenodd" clip-rule="evenodd" d="M558 72H576V54H558V72Z" fill="#FDBC6E"/>
<path fill-rule="evenodd" clip-rule="evenodd" d="M558 90H576V72H558V90Z" fill="#5859C3"/>
<path fill-rule="evenodd" clip-rule="evenodd" d="M558 108H576V90H558V108Z" fill="#FDBC6E"/>
<path fill-rule="evenodd" clip-rule="evenodd" d="M558 126H576V108H558V126Z" fill="#FDBC6E"/>
<path fill-rule="evenodd" clip-rule="evenodd" d="M576 54H594V36H576V54Z" fill="#5859C3"/>
<path fill-rule="evenodd" clip-rule="evenodd" d="M576 72H594V54H576V72Z" fill="#E03854"/>
<path fill-rule="evenodd" clip-rule="evenodd" d="M576 90H594V72H576V90Z" fill="#E03854"/>
<path fill-rule="evenodd" clip-rule="evenodd" d="M576 108H594V90H576V108Z" fill="#E03854"/>
<path fill-rule="evenodd" clip-rule="evenodd" d="M576 144H594V126H576V144Z" fill="#E03854"/>
<path fill-rule="evenodd" clip-rule="evenodd" d="M594 72H612V54H594V72Z" fill="#5859C3"/>
<path fill-rule="evenodd" clip-rule="evenodd" d="M594 90H612V72H594V90Z" fill="#FDBC6E"/>
<path fill-rule="evenodd" clip-rule="evenodd" d="M594 108H612V90H594V108Z" fill="#E03854"/>
<path fill-rule="evenodd" clip-rule="evenodd" d="M594 126H612V108H594V126Z" fill="#E03854"/>
<path fill-rule="evenodd" clip-rule="evenodd" d="M594 144H612V126H594V144Z" fill="#FDBC6E"/>
<path fill-rule="evenodd" clip-rule="evenodd" d="M594 162H612V144H594V162Z" fill="#E03854"/>
<path fill-rule="evenodd" clip-rule="evenodd" d="M612 90H630V72H612V90Z" fill="#5C4882"/>
<path fill-rule="evenodd" clip-rule="evenodd" d="M612 108H630V90H612V108Z" fill="#FDBC6E"/>
<path fill-rule="evenodd" clip-rule="evenodd" d="M612 144H630V126H612V144Z" fill="#FDBC6E"/>
<path fill-rule="evenodd" clip-rule="evenodd" d="M630 54H648V36H630V54Z" fill="#E03854"/>
<path fill-rule="evenodd" clip-rule="evenodd" d="M630 72H648V54H630V72Z" fill="#5859C3"/>
<path fill-rule="evenodd" clip-rule="evenodd" d="M630 90H648V72H630V90Z" fill="#FDBC6E"/>
<path fill-rule="evenodd" clip-rule="evenodd" d="M630 108H648V90H630V108Z" fill="#E03854"/>
<path fill-rule="evenodd" clip-rule="evenodd" d="M630 126H648V108H630V126Z" fill="#5859C3"/>
<path fill-rule="evenodd" clip-rule="evenodd" d="M648 72H666V54H648V72Z" fill="#5859C3"/>
<path fill-rule="evenodd" clip-rule="evenodd" d="M648 90H666V72H648V90Z" fill="#E03854"/>
<path fill-rule="evenodd" clip-rule="evenodd" d="M648 108H666V90H648V108Z" fill="#5859C3"/>
<path fill-rule="evenodd" clip-rule="evenodd" d="M648 126H666V108H648V126Z" fill="#E03854"/>
<path fill-rule="evenodd" clip-rule="evenodd" d="M648 144H666V126H648V144Z" fill="#5C4882"/>
<path fill-rule="evenodd" clip-rule="evenodd" d="M648 36H666V18H648V36Z" fill="#FDBC6E"/>
<path fill-rule="evenodd" clip-rule="evenodd" d="M648 54H666V36H648V54Z" fill="#5C4882"/>
<path fill-rule="evenodd" clip-rule="evenodd" d="M630 18H648V0H630V18Z" fill="#FDBC6E"/>
<path fill-rule="evenodd" clip-rule="evenodd" d="M666 54H684V36H666V54Z" fill="#E03854"/>
<path fill-rule="evenodd" clip-rule="evenodd" d="M666 90H684V72H666V90Z" fill="#FDBC6E"/>
<path fill-rule="evenodd" clip-rule="evenodd" d="M666 108H684V90H666V108Z" fill="#FDBC6E"/>
<path fill-rule="evenodd" clip-rule="evenodd" d="M666 126H684V108H666V126Z" fill="#E03854"/>
<path fill-rule="evenodd" clip-rule="evenodd" d="M270 36H288V18H270V36Z" fill="#FDBC6E"/>
<path fill-rule="evenodd" clip-rule="evenodd" d="M270 54H288V36H270V54Z" fill="#5C4882"/>
<path fill-rule="evenodd" clip-rule="evenodd" d="M270 72H288V54H270V72Z" fill="#5C4882"/>
<path fill-rule="evenodd" clip-rule="evenodd" d="M270 90H288V72H270V90Z" fill="#E03854"/>
<path fill-rule="evenodd" clip-rule="evenodd" d="M270 126H288V108H270V126Z" fill="#E03854"/>
<path fill-rule="evenodd" clip-rule="evenodd" d="M270 144H288V126H270V144Z" fill="#E03854"/>
<path fill-rule="evenodd" clip-rule="evenodd" d="M252 54H270V36H252V54Z" fill="#FDBC6E"/>
<path fill-rule="evenodd" clip-rule="evenodd" d="M252 90H270V72H252V90Z" fill="#5859C3"/>
<path fill-rule="evenodd" clip-rule="evenodd" d="M252 108H270V90H252V108Z" fill="#5C4882"/>
<path fill-rule="evenodd" clip-rule="evenodd" d="M252 144H270V126H252V144Z" fill="#5C4882"/>
<path fill-rule="evenodd" clip-rule="evenodd" d="M288 72H306V54H288V72Z" fill="#FDBC6E"/>
<path fill-rule="evenodd" clip-rule="evenodd" d="M288 90H306V72H288V90Z" fill="#5859C3"/>
<path fill-rule="evenodd" clip-rule="evenodd" d="M288 126H306V108H288V126Z" fill="#FDBC6E"/>
<path fill-rule="evenodd" clip-rule="evenodd" d="M306 54H324V36H306V54Z" fill="#5859C3"/>
<path fill-rule="evenodd" clip-rule="evenodd" d="M306 90H324V72H306V90Z" fill="#E03854"/>
<path fill-rule="evenodd" clip-rule="evenodd" d="M306 108H324V90H306V108Z" fill="#E03854"/>
<path fill-rule="evenodd" clip-rule="evenodd" d="M306 144H324V126H306V144Z" fill="#E03854"/>
<path fill-rule="evenodd" clip-rule="evenodd" d="M324 72H342V54H324V72Z" fill="#5859C3"/>
<path fill-rule="evenodd" clip-rule="evenodd" d="M324 108H342V90H324V108Z" fill="#5C4882"/>
<path fill-rule="evenodd" clip-rule="evenodd" d="M324 126H342V108H324V126Z" fill="#E03854"/>
<path fill-rule="evenodd" clip-rule="evenodd" d="M324 144H342V126H324V144Z" fill="#5859C3"/>
<path fill-rule="evenodd" clip-rule="evenodd" d="M324 162H342V144H324V162Z" fill="#E03854"/>
<path fill-rule="evenodd" clip-rule="evenodd" d="M342 108H360V90H342V108Z" fill="#FDBC6E"/>
<path fill-rule="evenodd" clip-rule="evenodd" d="M342 144H360V126H342V144Z" fill="#FDBC6E"/>
<path fill-rule="evenodd" clip-rule="evenodd" d="M360 54H378V36H360V54Z" fill="#E03854"/>
<path fill-rule="evenodd" clip-rule="evenodd" d="M360 72H378V54H360V72Z" fill="#5859C3"/>
<path fill-rule="evenodd" clip-rule="evenodd" d="M360 90H378V72H360V90Z" fill="#FDBC6E"/>
<path fill-rule="evenodd" clip-rule="evenodd" d="M360 108H378V90H360V108Z" fill="#E03854"/>
<g filter="url(#filter0_d)">
<path fill-rule="evenodd" clip-rule="evenodd" d="M288 108H306V90H288V108Z" fill="#FFC681"/>
</g>
<path fill-rule="evenodd" clip-rule="evenodd" d="M360 126H378V108H360V126Z" fill="#5859C3"/>
<path fill-rule="evenodd" clip-rule="evenodd" d="M378 72H396V54H378V72Z" fill="#5859C3"/>
<path fill-rule="evenodd" clip-rule="evenodd" d="M378 90H396V72H378V90Z" fill="#E03854"/>
<path fill-rule="evenodd" clip-rule="evenodd" d="M378 126H396V108H378V126Z" fill="#E03854"/>
<path fill-rule="evenodd" clip-rule="evenodd" d="M378 144H396V126H378V144Z" fill="#5C4882"/>
<path fill-rule="evenodd" clip-rule="evenodd" d="M378 36H396V18H378V36Z" fill="#FDBC6E"/>
<path fill-rule="evenodd" clip-rule="evenodd" d="M378 54H396V36H378V54Z" fill="#5C4882"/>
<path fill-rule="evenodd" clip-rule="evenodd" d="M396 72H414V54H396V72Z" fill="#E03854"/>
<path fill-rule="evenodd" clip-rule="evenodd" d="M396 90H414V72H396V90Z" fill="#FDBC6E"/>
<path fill-rule="evenodd" clip-rule="evenodd" d="M396 126H414V108H396V126Z" fill="#E03854"/>
<path fill-rule="evenodd" clip-rule="evenodd" d="M414 54H432V36H414V54Z" fill="#5859C3"/>
<path fill-rule="evenodd" clip-rule="evenodd" d="M414 90H432V72H414V90Z" fill="#E03854"/>
<path fill-rule="evenodd" clip-rule="evenodd" d="M414 108H432V90H414V108Z" fill="#FDBC6E"/>
<path fill-rule="evenodd" clip-rule="evenodd" d="M414 126H432V108H414V126Z" fill="#E03854"/>
<path fill-rule="evenodd" clip-rule="evenodd" d="M432 54H450V36H432V54Z" fill="#E03854"/>
<path fill-rule="evenodd" clip-rule="evenodd" d="M432 72H450V54H432V72Z" fill="#5859C3"/>
<path fill-rule="evenodd" clip-rule="evenodd" d="M432 90H450V72H432V90Z" fill="#FDBC6E"/>
<path fill-rule="evenodd" clip-rule="evenodd" d="M432 108H450V90H432V108Z" fill="#5859C3"/>
<path fill-rule="evenodd" clip-rule="evenodd" d="M432 126H450V108H432V126Z" fill="#5C4882"/>
<path fill-rule="evenodd" clip-rule="evenodd" d="M432 144H450V126H432V144Z" fill="#5859C3"/>
<path fill-rule="evenodd" clip-rule="evenodd" d="M414 162H432V144H414V162Z" fill="#FDBC6E"/>
<path fill-rule="evenodd" clip-rule="evenodd" d="M450 72H468V54H450V72Z" fill="#E03854"/>
<path fill-rule="evenodd" clip-rule="evenodd" d="M450 90H468V72H450V90Z" fill="#5859C3"/>
<path fill-rule="evenodd" clip-rule="evenodd" d="M450 108H468V90H450V108Z" fill="#E03854"/>
<path fill-rule="evenodd" clip-rule="evenodd" d="M450 126H468V108H450V126Z" fill="#FDBC6E"/>
<path fill-rule="evenodd" clip-rule="evenodd" d="M449 36H467V18H449V36Z" fill="#5859C3"/>
<path fill-rule="evenodd" clip-rule="evenodd" d="M486 36H504V18H486V36Z" fill="#5C4882"/>
<path fill-rule="evenodd" clip-rule="evenodd" d="M468 54H486V36H468V54Z" fill="#E03854"/>
<path fill-rule="evenodd" clip-rule="evenodd" d="M468 72H486V54H468V72Z" fill="#FDBC6E"/>
<path fill-rule="evenodd" clip-rule="evenodd" d="M468 90H486V72H468V90Z" fill="#5C4882"/>
<path fill-rule="evenodd" clip-rule="evenodd" d="M468 108H486V90H468V108Z" fill="#5C4882"/>
<path fill-rule="evenodd" clip-rule="evenodd" d="M468 144H486V126H468V144Z" fill="#5C4882"/>
<path fill-rule="evenodd" clip-rule="evenodd" d="M486 54H504V36H486V54Z" fill="#FDBC6E"/>
<path fill-rule="evenodd" clip-rule="evenodd" d="M486 72H504V54H486V72Z" fill="#5C4882"/>
<path fill-rule="evenodd" clip-rule="evenodd" d="M486 108H504V90H486V108Z" fill="#FDBC6E"/>
<path fill-rule="evenodd" clip-rule="evenodd" d="M504 72H522V54H504V72Z" fill="#FDBC6E"/>
<path fill-rule="evenodd" clip-rule="evenodd" d="M504 108H522V90H504V108Z" fill="#E03854"/>
<path fill-rule="evenodd" clip-rule="evenodd" d="M504 161H522V143H504V161Z" fill="#FDBC6E"/>
<path fill-rule="evenodd" clip-rule="evenodd" d="M18 90H36V72H18V90Z" fill="#5859C3"/>
<path fill-rule="evenodd" clip-rule="evenodd" d="M36 62H54V44H36V62Z" fill="#FDBC6E"/>
<path fill-rule="evenodd" clip-rule="evenodd" d="M36 108H54V90H36V108Z" fill="#E03854"/>
<path fill-rule="evenodd" clip-rule="evenodd" d="M36 90H54V72H36V90Z" fill="#E03854"/>
<path fill-rule="evenodd" clip-rule="evenodd" d="M90 108H108V90H90V108Z" fill="#E03854"/>
<path fill-rule="evenodd" clip-rule="evenodd" d="M72 90H90V72H72V90Z" fill="#5C4882"/>
<path fill-rule="evenodd" clip-rule="evenodd" d="M108 90H126V72H108V90Z" fill="#E03854"/>
<path fill-rule="evenodd" clip-rule="evenodd" d="M108 54H126V36H108V54Z" fill="#FDBC6E"/>
<path fill-rule="evenodd" clip-rule="evenodd" d="M126 90H144V72H126V90Z" fill="#FDBC6E"/>
<path fill-rule="evenodd" clip-rule="evenodd" d="M126 108H144V90H126V108Z" fill="#FDBC6E"/>
<path fill-rule="evenodd" clip-rule="evenodd" d="M144 54H162V36H144V54Z" fill="#5859C3"/>
<g filter="url(#filter1_d)">
<path fill-rule="evenodd" clip-rule="evenodd" d="M126 72H144V54H126V72Z" fill="#FF405F"/>
</g>
<g filter="url(#filter2_d)">
<path fill-rule="evenodd" clip-rule="evenodd" d="M36 90H54V72H36V90Z" fill="#F4395F"/>
</g>
<path fill-rule="evenodd" clip-rule="evenodd" d="M144 90H162V72H144V90Z" fill="#E03854"/>
<path fill-rule="evenodd" clip-rule="evenodd" d="M144 126H162V108H144V126Z" fill="#E03854"/>
<path fill-rule="evenodd" clip-rule="evenodd" d="M162 54H180V36H162V54Z" fill="#E03854"/>
<path fill-rule="evenodd" clip-rule="evenodd" d="M162 72H180V54H162V72Z" fill="#5859C3"/>
<path fill-rule="evenodd" clip-rule="evenodd" d="M162 90H180V72H162V90Z" fill="#FDBC6E"/>
<path fill-rule="evenodd" clip-rule="evenodd" d="M162 108H180V90H162V108Z" fill="#5859C3"/>
<path fill-rule="evenodd" clip-rule="evenodd" d="M180 72H198V54H180V72Z" fill="#E03854"/>
<path fill-rule="evenodd" clip-rule="evenodd" d="M180 108H198V90H180V108Z" fill="#E03854"/>
<path fill-rule="evenodd" clip-rule="evenodd" d="M198 126H216V108H198V126Z" fill="#5859C3"/>
<path fill-rule="evenodd" clip-rule="evenodd" d="M179 36H197V18H179V36Z" fill="#5859C3"/>
<path fill-rule="evenodd" clip-rule="evenodd" d="M216 36H234V18H216V36Z" fill="#5C4882"/>
<path fill-rule="evenodd" clip-rule="evenodd" d="M198 54H216V36H198V54Z" fill="#E03854"/>
<path fill-rule="evenodd" clip-rule="evenodd" d="M198 72H216V54H198V72Z" fill="#FDBC6E"/>
<path fill-rule="evenodd" clip-rule="evenodd" d="M198 90H216V72H198V90Z" fill="#5C4882"/>
<path fill-rule="evenodd" clip-rule="evenodd" d="M198 108H216V90H198V108Z" fill="#5C4882"/>
<path fill-rule="evenodd" clip-rule="evenodd" d="M216 72H234V54H216V72Z" fill="#5C4882"/>
<path fill-rule="evenodd" clip-rule="evenodd" d="M216 108H234V90H216V108Z" fill="#FDBC6E"/>
<g filter="url(#filter3_d)">
<path fill-rule="evenodd" clip-rule="evenodd" d="M180 90H198V72H180V90Z" fill="#6B6CDA"/>
</g>
<path fill-rule="evenodd" clip-rule="evenodd" d="M234 72H252V54H234V72Z" fill="#FDBC6E"/>
<path fill-rule="evenodd" clip-rule="evenodd" d="M234 108H252V90H234V108Z" fill="#E03854"/>
<path fill-rule="evenodd" clip-rule="evenodd" d="M234 161H252V143H234V161Z" fill="#FDBC6E"/>
<path fill-rule="evenodd" clip-rule="evenodd" d="M287 183H305V165H287V183Z" fill="#5859C3"/>
<path fill-rule="evenodd" clip-rule="evenodd" d="M0 126H18V108H0V126Z" fill="#FDBC6E"/>
<path fill-rule="evenodd" clip-rule="evenodd" d="M234 126H252V108H234V126Z" fill="#5859C3"/>
<path fill-rule="evenodd" clip-rule="evenodd" d="M540 36H558V18H540V36Z" fill="#FDBC6E"/>
<path fill-rule="evenodd" clip-rule="evenodd" d="M540 72H558V54H540V72Z" fill="#5C4882"/>
<path fill-rule="evenodd" clip-rule="evenodd" d="M540 90H558V72H540V90Z" fill="#E03854"/>
<path fill-rule="evenodd" clip-rule="evenodd" d="M540 126H558V108H540V126Z" fill="#E03854"/>
<path fill-rule="evenodd" clip-rule="evenodd" d="M540 144H558V126H540V144Z" fill="#E03854"/>
<path fill-rule="evenodd" clip-rule="evenodd" d="M522 54H540V36H522V54Z" fill="#FDBC6E"/>
<path fill-rule="evenodd" clip-rule="evenodd" d="M522 90H540V72H522V90Z" fill="#5859C3"/>
<path fill-rule="evenodd" clip-rule="evenodd" d="M522 108H540V90H522V108Z" fill="#5C4882"/>
<path fill-rule="evenodd" clip-rule="evenodd" d="M522 144H540V126H522V144Z" fill="#FDBC6E"/>
<path fill-rule="evenodd" clip-rule="evenodd" d="M558 54H576V36H558V54Z" fill="#E03854"/>
<path fill-rule="evenodd" clip-rule="evenodd" d="M558 72H576V54H558V72Z" fill="#FDBC6E"/>
<path fill-rule="evenodd" clip-rule="evenodd" d="M558 90H576V72H558V90Z" fill="#5859C3"/>
<path fill-rule="evenodd" clip-rule="evenodd" d="M558 108H576V90H558V108Z" fill="#FDBC6E"/>
<path fill-rule="evenodd" clip-rule="evenodd" d="M558 126H576V108H558V126Z" fill="#FDBC6E"/>
<path fill-rule="evenodd" clip-rule="evenodd" d="M576 54H594V36H576V54Z" fill="#5859C3"/>
<path fill-rule="evenodd" clip-rule="evenodd" d="M576 72H594V54H576V72Z" fill="#E03854"/>
<path fill-rule="evenodd" clip-rule="evenodd" d="M576 90H594V72H576V90Z" fill="#E03854"/>
<path fill-rule="evenodd" clip-rule="evenodd" d="M576 108H594V90H576V108Z" fill="#E03854"/>
<path fill-rule="evenodd" clip-rule="evenodd" d="M576 144H594V126H576V144Z" fill="#E03854"/>
<path fill-rule="evenodd" clip-rule="evenodd" d="M594 72H612V54H594V72Z" fill="#5859C3"/>
<path fill-rule="evenodd" clip-rule="evenodd" d="M594 90H612V72H594V90Z" fill="#FDBC6E"/>
<path fill-rule="evenodd" clip-rule="evenodd" d="M594 108H612V90H594V108Z" fill="#E03854"/>
<path fill-rule="evenodd" clip-rule="evenodd" d="M594 126H612V108H594V126Z" fill="#E03854"/>
<path fill-rule="evenodd" clip-rule="evenodd" d="M594 144H612V126H594V144Z" fill="#FDBC6E"/>
<path fill-rule="evenodd" clip-rule="evenodd" d="M594 162H612V144H594V162Z" fill="#E03854"/>
<path fill-rule="evenodd" clip-rule="evenodd" d="M612 90H630V72H612V90Z" fill="#5C4882"/>
<path fill-rule="evenodd" clip-rule="evenodd" d="M612 108H630V90H612V108Z" fill="#FDBC6E"/>
<path fill-rule="evenodd" clip-rule="evenodd" d="M612 144H630V126H612V144Z" fill="#FDBC6E"/>
<path fill-rule="evenodd" clip-rule="evenodd" d="M630 54H648V36H630V54Z" fill="#E03854"/>
<g filter="url(#filter4_d)">
<path fill-rule="evenodd" clip-rule="evenodd" d="M216 54H234V36H216V54Z" fill="#FF405F"/>
</g>
<path fill-rule="evenodd" clip-rule="evenodd" d="M630 72H648V54H630V72Z" fill="#5859C3"/>
<path fill-rule="evenodd" clip-rule="evenodd" d="M630 90H648V72H630V90Z" fill="#FDBC6E"/>
<path fill-rule="evenodd" clip-rule="evenodd" d="M630 108H648V90H630V108Z" fill="#E03854"/>
<path fill-rule="evenodd" clip-rule="evenodd" d="M630 126H648V108H630V126Z" fill="#5859C3"/>
<path fill-rule="evenodd" clip-rule="evenodd" d="M648 72H666V54H648V72Z" fill="#5859C3"/>
<path fill-rule="evenodd" clip-rule="evenodd" d="M648 90H666V72H648V90Z" fill="#E03854"/>
<path fill-rule="evenodd" clip-rule="evenodd" d="M648 108H666V90H648V108Z" fill="#5859C3"/>
<path fill-rule="evenodd" clip-rule="evenodd" d="M648 126H666V108H648V126Z" fill="#E03854"/>
<path fill-rule="evenodd" clip-rule="evenodd" d="M648 144H666V126H648V144Z" fill="#5C4882"/>
<path fill-rule="evenodd" clip-rule="evenodd" d="M648 36H666V18H648V36Z" fill="#FDBC6E"/>
<path fill-rule="evenodd" clip-rule="evenodd" d="M648 54H666V36H648V54Z" fill="#5C4882"/>
<path fill-rule="evenodd" clip-rule="evenodd" d="M630 18H648V0H630V18Z" fill="#FDBC6E"/>
<path fill-rule="evenodd" clip-rule="evenodd" d="M666 54H684V36H666V54Z" fill="#E03854"/>
<path fill-rule="evenodd" clip-rule="evenodd" d="M666 90H684V72H666V90Z" fill="#FDBC6E"/>
<path fill-rule="evenodd" clip-rule="evenodd" d="M666 108H684V90H666V108Z" fill="#FDBC6E"/>
<path fill-rule="evenodd" clip-rule="evenodd" d="M666 126H684V108H666V126Z" fill="#E03854"/>
<g filter="url(#filter5_d)">
<path fill-rule="evenodd" clip-rule="evenodd" d="M594 144H612V126H594V144Z" fill="#FFC681"/>
</g>
<g filter="url(#filter6_d)">
<path fill-rule="evenodd" clip-rule="evenodd" d="M216 144H234V126H216V144Z" fill="#FFC681"/>
</g>
<g filter="url(#filter7_d)">
<path fill-rule="evenodd" clip-rule="evenodd" d="M306 72H324V54H306V72Z" fill="#FFC681"/>
</g>
<g filter="url(#filter8_d)">
<path fill-rule="evenodd" clip-rule="evenodd" d="M378 108H396V90H378V108Z" fill="#745CA1"/>
</g>
<g filter="url(#filter9_d)">
<path fill-rule="evenodd" clip-rule="evenodd" d="M414 126H432V108H414V126Z" fill="#FF405F"/>
</g>
<g filter="url(#filter10_d)">
<path fill-rule="evenodd" clip-rule="evenodd" d="M648 126H666V108H648V126Z" fill="#FF405F"/>
</g>
<g filter="url(#filter11_d)">
<path fill-rule="evenodd" clip-rule="evenodd" d="M684 108H702V90H684V108Z" fill="#FFC681"/>
</g>
<g filter="url(#filter12_d)">
<path fill-rule="evenodd" clip-rule="evenodd" d="M612 108H630V90H612V108Z" fill="#FFC681"/>
</g>
<g filter="url(#filter13_d)">
<path fill-rule="evenodd" clip-rule="evenodd" d="M648 54H666V36H648V54Z" fill="#745CA1"/>
</g>
<g filter="url(#filter14_d)">
<path fill-rule="evenodd" clip-rule="evenodd" d="M540 72H558V54H540V72Z" fill="#745CA1"/>
</g>
<g filter="url(#filter15_d)">
<path fill-rule="evenodd" clip-rule="evenodd" d="M468 90H486V72H468V90Z" fill="#745CA1"/>
</g>
<g filter="url(#filter16_d)">
<path fill-rule="evenodd" clip-rule="evenodd" d="M432 54H450V36H432V54Z" fill="#FF405F"/>
</g>
<defs>
<filter id="filter0_d" x="285" y="90" width="24" height="24" filterUnits="userSpaceOnUse" color-interpolation-filters="sRGB">
<feFlood flood-opacity="0" result="BackgroundImageFix"/>
<feColorMatrix in="SourceAlpha" type="matrix" values="0 0 0 0 0 0 0 0 0 0 0 0 0 0 0 0 0 0 127 0"/>
<feOffset dy="3"/>
<feGaussianBlur stdDeviation="1.5"/>
<feColorMatrix type="matrix" values="0 0 0 0 0 0 0 0 0 0 0 0 0 0 0 0 0 0 0.5 0"/>
<feBlend mode="normal" in2="BackgroundImageFix" result="effect1_dropShadow"/>
<feBlend mode="normal" in="SourceGraphic" in2="effect1_dropShadow" result="shape"/>
</filter>
<filter id="filter1_d" x="123" y="54" width="24" height="24" filterUnits="userSpaceOnUse" color-interpolation-filters="sRGB">
<feFlood flood-opacity="0" result="BackgroundImageFix"/>
<feColorMatrix in="SourceAlpha" type="matrix" values="0 0 0 0 0 0 0 0 0 0 0 0 0 0 0 0 0 0 127 0"/>
<feOffset dy="3"/>
<feGaussianBlur stdDeviation="1.5"/>
<feColorMatrix type="matrix" values="0 0 0 0 0 0 0 0 0 0 0 0 0 0 0 0 0 0 0.5 0"/>
<feBlend mode="normal" in2="BackgroundImageFix" result="effect1_dropShadow"/>
<feBlend mode="normal" in="SourceGraphic" in2="effect1_dropShadow" result="shape"/>
</filter>
<filter id="filter2_d" x="33" y="72" width="24" height="24" filterUnits="userSpaceOnUse" color-interpolation-filters="sRGB">
<feFlood flood-opacity="0" result="BackgroundImageFix"/>
<feColorMatrix in="SourceAlpha" type="matrix" values="0 0 0 0 0 0 0 0 0 0 0 0 0 0 0 0 0 0 127 0"/>
<feOffset dy="3"/>
<feGaussianBlur stdDeviation="1.5"/>
<feColorMatrix type="matrix" values="0 0 0 0 0 0 0 0 0 0 0 0 0 0 0 0 0 0 0.5 0"/>
<feBlend mode="normal" in2="BackgroundImageFix" result="effect1_dropShadow"/>
<feBlend mode="normal" in="SourceGraphic" in2="effect1_dropShadow" result="shape"/>
</filter>
<filter id="filter3_d" x="177" y="72" width="24" height="24" filterUnits="userSpaceOnUse" color-interpolation-filters="sRGB">
<feFlood flood-opacity="0" result="BackgroundImageFix"/>
<feColorMatrix in="SourceAlpha" type="matrix" values="0 0 0 0 0 0 0 0 0 0 0 0 0 0 0 0 0 0 127 0"/>
<feOffset dy="3"/>
<feGaussianBlur stdDeviation="1.5"/>
<feColorMatrix type="matrix" values="0 0 0 0 0 0 0 0 0 0 0 0 0 0 0 0 0 0 0.5 0"/>
<feBlend mode="normal" in2="BackgroundImageFix" result="effect1_dropShadow"/>
<feBlend mode="normal" in="SourceGraphic" in2="effect1_dropShadow" result="shape"/>
</filter>
<filter id="filter4_d" x="213" y="36" width="24" height="24" filterUnits="userSpaceOnUse" color-interpolation-filters="sRGB">
<feFlood flood-opacity="0" result="BackgroundImageFix"/>
<feColorMatrix in="SourceAlpha" type="matrix" values="0 0 0 0 0 0 0 0 0 0 0 0 0 0 0 0 0 0 127 0"/>
<feOffset dy="3"/>
<feGaussianBlur stdDeviation="1.5"/>
<feColorMatrix type="matrix" values="0 0 0 0 0 0 0 0 0 0 0 0 0 0 0 0 0 0 0.5 0"/>
<feBlend mode="normal" in2="BackgroundImageFix" result="effect1_dropShadow"/>
<feBlend mode="normal" in="SourceGraphic" in2="effect1_dropShadow" result="shape"/>
</filter>
<filter id="filter5_d" x="591" y="126" width="24" height="24" filterUnits="userSpaceOnUse" color-interpolation-filters="sRGB">
<feFlood flood-opacity="0" result="BackgroundImageFix"/>
<feColorMatrix in="SourceAlpha" type="matrix" values="0 0 0 0 0 0 0 0 0 0 0 0 0 0 0 0 0 0 127 0"/>
<feOffset dy="3"/>
<feGaussianBlur stdDeviation="1.5"/>
<feColorMatrix type="matrix" values="0 0 0 0 0 0 0 0 0 0 0 0 0 0 0 0 0 0 0.5 0"/>
<feBlend mode="normal" in2="BackgroundImageFix" result="effect1_dropShadow"/>
<feBlend mode="normal" in="SourceGraphic" in2="effect1_dropShadow" result="shape"/>
</filter>
<filter id="filter6_d" x="213.5" y="125" width="23" height="23" filterUnits="userSpaceOnUse" color-interpolation-filters="sRGB">
<feFlood flood-opacity="0" result="BackgroundImageFix"/>
<feColorMatrix in="SourceAlpha" type="matrix" values="0 0 0 0 0 0 0 0 0 0 0 0 0 0 0 0 0 0 127 0"/>
<feOffset dy="1.5"/>
<feGaussianBlur stdDeviation="1.25"/>
<feColorMatrix type="matrix" values="0 0 0 0 0 0 0 0 0 0 0 0 0 0 0 0 0 0 0.5 0"/>
<feBlend mode="normal" in2="BackgroundImageFix" result="effect1_dropShadow"/>
<feBlend mode="normal" in="SourceGraphic" in2="effect1_dropShadow" result="shape"/>
</filter>
<filter id="filter7_d" x="303" y="54" width="24" height="24" filterUnits="userSpaceOnUse" color-interpolation-filters="sRGB">
<feFlood flood-opacity="0" result="BackgroundImageFix"/>
<feColorMatrix in="SourceAlpha" type="matrix" values="0 0 0 0 0 0 0 0 0 0 0 0 0 0 0 0 0 0 127 0"/>
<feOffset dy="3"/>
<feGaussianBlur stdDeviation="1.5"/>
<feColorMatrix type="matrix" values="0 0 0 0 0 0 0 0 0 0 0 0 0 0 0 0 0 0 0.5 0"/>
<feBlend mode="normal" in2="BackgroundImageFix" result="effect1_dropShadow"/>
<feBlend mode="normal" in="SourceGraphic" in2="effect1_dropShadow" result="shape"/>
</filter>
<filter id="filter8_d" x="375" y="90" width="24" height="24" filterUnits="userSpaceOnUse" color-interpolation-filters="sRGB">
<feFlood flood-opacity="0" result="BackgroundImageFix"/>
<feColorMatrix in="SourceAlpha" type="matrix" values="0 0 0 0 0 0 0 0 0 0 0 0 0 0 0 0 0 0 127 0"/>
<feOffset dy="3"/>
<feGaussianBlur stdDeviation="1.5"/>
<feColorMatrix type="matrix" values="0 0 0 0 0 0 0 0 0 0 0 0 0 0 0 0 0 0 0.5 0"/>
<feBlend mode="normal" in2="BackgroundImageFix" result="effect1_dropShadow"/>
<feBlend mode="normal" in="SourceGraphic" in2="effect1_dropShadow" result="shape"/>
</filter>
<filter id="filter9_d" x="411" y="108" width="24" height="24" filterUnits="userSpaceOnUse" color-interpolation-filters="sRGB">
<feFlood flood-opacity="0" result="BackgroundImageFix"/>
<feColorMatrix in="SourceAlpha" type="matrix" values="0 0 0 0 0 0 0 0 0 0 0 0 0 0 0 0 0 0 127 0"/>
<feOffset dy="3"/>
<feGaussianBlur stdDeviation="1.5"/>
<feColorMatrix type="matrix" values="0 0 0 0 0 0 0 0 0 0 0 0 0 0 0 0 0 0 0.5 0"/>
<feBlend mode="normal" in2="BackgroundImageFix" result="effect1_dropShadow"/>
<feBlend mode="normal" in="SourceGraphic" in2="effect1_dropShadow" result="shape"/>
</filter>
<filter id="filter10_d" x="645" y="108" width="24" height="24" filterUnits="userSpaceOnUse" color-interpolation-filters="sRGB">
<feFlood flood-opacity="0" result="BackgroundImageFix"/>
<feColorMatrix in="SourceAlpha" type="matrix" values="0 0 0 0 0 0 0 0 0 0 0 0 0 0 0 0 0 0 127 0"/>
<feOffset dy="3"/>
<feGaussianBlur stdDeviation="1.5"/>
<feColorMatrix type="matrix" values="0 0 0 0 0 0 0 0 0 0 0 0 0 0 0 0 0 0 0.5 0"/>
<feBlend mode="normal" in2="BackgroundImageFix" result="effect1_dropShadow"/>
<feBlend mode="normal" in="SourceGraphic" in2="effect1_dropShadow" result="shape"/>
</filter>
<filter id="filter11_d" x="681.5" y="89" width="23" height="23" filterUnits="userSpaceOnUse" color-interpolation-filters="sRGB">
<feFlood flood-opacity="0" result="BackgroundImageFix"/>
<feColorMatrix in="SourceAlpha" type="matrix" values="0 0 0 0 0 0 0 0 0 0 0 0 0 0 0 0 0 0 127 0"/>
<feOffset dy="1.5"/>
<feGaussianBlur stdDeviation="1.25"/>
<feColorMatrix type="matrix" values="0 0 0 0 0 0 0 0 0 0 0 0 0 0 0 0 0 0 0.5 0"/>
<feBlend mode="normal" in2="BackgroundImageFix" result="effect1_dropShadow"/>
<feBlend mode="normal" in="SourceGraphic" in2="effect1_dropShadow" result="shape"/>
</filter>
<filter id="filter12_d" x="609.5" y="89" width="23" height="23" filterUnits="userSpaceOnUse" color-interpolation-filters="sRGB">
<feFlood flood-opacity="0" result="BackgroundImageFix"/>
<feColorMatrix in="SourceAlpha" type="matrix" values="0 0 0 0 0 0 0 0 0 0 0 0 0 0 0 0 0 0 127 0"/>
<feOffset dy="1.5"/>
<feGaussianBlur stdDeviation="1.25"/>
<feColorMatrix type="matrix" values="0 0 0 0 0 0 0 0 0 0 0 0 0 0 0 0 0 0 0.5 0"/>
<feBlend mode="normal" in2="BackgroundImageFix" result="effect1_dropShadow"/>
<feBlend mode="normal" in="SourceGraphic" in2="effect1_dropShadow" result="shape"/>
</filter>
<filter id="filter13_d" x="645" y="36" width="24" height="24" filterUnits="userSpaceOnUse" color-interpolation-filters="sRGB">
<feFlood flood-opacity="0" result="BackgroundImageFix"/>
<feColorMatrix in="SourceAlpha" type="matrix" values="0 0 0 0 0 0 0 0 0 0 0 0 0 0 0 0 0 0 127 0"/>
<feOffset dy="3"/>
<feGaussianBlur stdDeviation="1.5"/>
<feColorMatrix type="matrix" values="0 0 0 0 0 0 0 0 0 0 0 0 0 0 0 0 0 0 0.5 0"/>
<feBlend mode="normal" in2="BackgroundImageFix" result="effect1_dropShadow"/>
<feBlend mode="normal" in="SourceGraphic" in2="effect1_dropShadow" result="shape"/>
</filter>
<filter id="filter14_d" x="537" y="54" width="24" height="24" filterUnits="userSpaceOnUse" color-interpolation-filters="sRGB">
<feFlood flood-opacity="0" result="BackgroundImageFix"/>
<feColorMatrix in="SourceAlpha" type="matrix" values="0 0 0 0 0 0 0 0 0 0 0 0 0 0 0 0 0 0 127 0"/>
<feOffset dy="3"/>
<feGaussianBlur stdDeviation="1.5"/>
<feColorMatrix type="matrix" values="0 0 0 0 0 0 0 0 0 0 0 0 0 0 0 0 0 0 0.5 0"/>
<feBlend mode="normal" in2="BackgroundImageFix" result="effect1_dropShadow"/>
<feBlend mode="normal" in="SourceGraphic" in2="effect1_dropShadow" result="shape"/>
</filter>
<filter id="filter15_d" x="465" y="72" width="24" height="24" filterUnits="userSpaceOnUse" color-interpolation-filters="sRGB">
<feFlood flood-opacity="0" result="BackgroundImageFix"/>
<feColorMatrix in="SourceAlpha" type="matrix" values="0 0 0 0 0 0 0 0 0 0 0 0 0 0 0 0 0 0 127 0"/>
<feOffset dy="3"/>
<feGaussianBlur stdDeviation="1.5"/>
<feColorMatrix type="matrix" values="0 0 0 0 0 0 0 0 0 0 0 0 0 0 0 0 0 0 0.5 0"/>
<feBlend mode="normal" in2="BackgroundImageFix" result="effect1_dropShadow"/>
<feBlend mode="normal" in="SourceGraphic" in2="effect1_dropShadow" result="shape"/>
</filter>
<filter id="filter16_d" x="429" y="36" width="24" height="24" filterUnits="userSpaceOnUse" color-interpolation-filters="sRGB">
<feFlood flood-opacity="0" result="BackgroundImageFix"/>
<feColorMatrix in="SourceAlpha" type="matrix" values="0 0 0 0 0 0 0 0 0 0 0 0 0 0 0 0 0 0 127 0"/>
<feOffset dy="3"/>
<feGaussianBlur stdDeviation="1.5"/>
<feColorMatrix type="matrix" values="0 0 0 0 0 0 0 0 0 0 0 0 0 0 0 0 0 0 0.5 0"/>
<feBlend mode="normal" in2="BackgroundImageFix" result="effect1_dropShadow"/>
<feBlend mode="normal" in="SourceGraphic" in2="effect1_dropShadow" result="shape"/>
</filter>
</defs>
</svg>
